<svg class="marks" width="691" height="216" viewBox="0 0 691 216" version="1.1" xmlns="http://www.w3.org/2000/svg" xmlns:xlink="http://www.w3.org/1999/xlink"><rect width="691" height="216" style="fill: #ffffff;"></rect><defs><linearGradient id="gradient_0" x1="0" x2="1" y1="0" y2="0"><stop offset="0" stop-color="rgb(247, 252, 240)"></stop><stop offset="0.07692307692307693" stop-color="rgb(233, 247, 227)"></stop><stop offset="0.15384615384615385" stop-color="rgb(220, 241, 214)"></stop><stop offset="0.23076923076923078" stop-color="rgb(205, 236, 201)"></stop><stop offset="0.3076923076923077" stop-color="rgb(187, 228, 190)"></stop><stop offset="0.38461538461538464" stop-color="rgb(163, 219, 186)"></stop><stop offset="0.46153846153846156" stop-color="rgb(137, 209, 192)"></stop><stop offset="0.5384615384615384" stop-color="rgb(109, 196, 200)"></stop><stop offset="0.6153846153846154" stop-color="rgb(83, 179, 205)"></stop><stop offset="0.6923076923076923" stop-color="rgb(59, 158, 199)"></stop><stop offset="0.7692307692307693" stop-color="rgb(38, 135, 188)"></stop><stop offset="0.8461538461538461" stop-color="rgb(19, 112, 174)"></stop><stop offset="0.9230769230769231" stop-color="rgb(9, 88, 154)"></stop><stop offset="1" stop-color="rgb(8, 64, 129)"></stop></linearGradient></defs><g transform="translate(86,5)"><g class="mark-group role-frame root"><g transform="translate(0,0)"><path class="background" d="M0.5,0.5h462v105h-462Z" style="fill-opacity: 0; stroke: #ddd;"></path><g><g class="mark-rect role-mark marks"><path d="M1.0500000000000114,1.0499999999999972h18.900000000000002v18.900000000000002h-18.900000000000002Z" style="fill: rgb(233, 247, 227);"></path><path d="M1.0500000000000114,43.05h18.900000000000002v18.900000000000002h-18.900000000000002Z" style="fill: rgb(247, 252, 240);"></path><path d="M22.05000000000001,64.05h18.900000000000002v18.900000000000002h-18.900000000000002Z" style="fill: rgb(187, 228, 190);"></path><path d="M22.05000000000001,85.05h18.900000000000002v18.900000000000002h-18.900000000000002Z" style="fill: rgb(247, 252, 240);"></path><path d="M22.05000000000001,43.05h18.900000000000002v18.900000000000002h-18.900000000000002Z" style="fill: rgb(247, 252, 240);"></path><path d="M43.05000000000001,64.05h18.900000000000002v18.900000000000002h-18.900000000000002Z" style="fill: rgb(109, 196, 200);"></path><path d="M64.05000000000001,43.05h18.900000000000002v18.900000000000002h-18.900000000000002Z" style="fill: rgb(233, 247, 227);"></path><path d="M64.05000000000001,64.05h18.900000000000002v18.900000000000002h-18.900000000000002Z" style="fill: rgb(247, 252, 240);"></path><path d="M85.05000000000001,43.05h18.900000000000002v18.900000000000002h-18.900000000000002Z" style="fill: rgb(187, 228, 190);"></path><path d="M85.05000000000001,64.05h18.900000000000002v18.900000000000002h-18.900000000000002Z" style="fill: rgb(220, 241, 214);"></path><path d="M85.05000000000001,85.05h18.900000000000002v18.900000000000002h-18.900000000000002Z" style="fill: rgb(247, 252, 240);"></path><path d="M106.05000000000001,43.05h18.900000000000002v18.900000000000002h-18.900000000000002Z" style="fill: rgb(137, 209, 192);"></path><path d="M106.05000000000001,64.05h18.900000000000002v18.900000000000002h-18.900000000000002Z" style="fill: rgb(187, 228, 190);"></path><path d="M106.05000000000001,85.05h18.900000000000002v18.900000000000002h-18.900000000000002Z" style="fill: rgb(247, 252, 240);"></path><path d="M127.05000000000001,64.05h18.900000000000002v18.900000000000002h-18.900000000000002Z" style="fill: rgb(220, 241, 214);"></path><path d="M127.05000000000001,43.05h18.900000000000002v18.900000000000002h-18.900000000000002Z" style="fill: rgb(247, 252, 240);"></path><path d="M148.05,64.05h18.900000000000002v18.900000000000002h-18.900000000000002Z" style="fill: rgb(220, 241, 214);"></path><path d="M169.05,43.05h18.900000000000002v18.900000000000002h-18.900000000000002Z" style="fill: rgb(59, 158, 199);"></path><path d="M169.05,64.05h18.900000000000002v18.900000000000002h-18.900000000000002Z" style="fill: rgb(137, 209, 192);"></path><path d="M190.05,64.05h18.900000000000002v18.900000000000002h-18.900000000000002Z" style="fill: rgb(205, 236, 201);"></path><path d="M190.05,85.05h18.900000000000002v18.900000000000002h-18.900000000000002Z" style="fill: rgb(247, 252, 240);"></path><path d="M190.05,22.049999999999997h18.900000000000002v18.900000000000002h-18.900000000000002Z" style="fill: rgb(233, 247, 227);"></path><path d="M190.05,1.0499999999999972h18.900000000000002v18.900000000000002h-18.900000000000002Z" style="fill: rgb(247, 252, 240);"></path><path d="M211.05,43.05h18.900000000000002v18.900000000000002h-18.900000000000002Z" style="fill: rgb(247, 252, 240);"></path><path d="M232.05,43.05h18.900000000000002v18.900000000000002h-18.900000000000002Z" style="fill: rgb(83, 179, 205);"></path><path d="M232.05,64.05h18.900000000000002v18.900000000000002h-18.900000000000002Z" style="fill: rgb(205, 236, 201);"></path><path d="M253.05,64.05h18.900000000000002v18.900000000000002h-18.900000000000002Z" style="fill: rgb(83, 179, 205);"></path><path d="M253.05,85.05h18.900000000000002v18.900000000000002h-18.900000000000002Z" style="fill: rgb(220, 241, 214);"></path><path d="M253.05,43.05h18.900000000000002v18.900000000000002h-18.900000000000002Z" style="fill: rgb(187, 228, 190);"></path><path d="M253.05,22.049999999999997h18.900000000000002v18.900000000000002h-18.900000000000002Z" style="fill: rgb(247, 252, 240);"></path><path d="M274.05,64.05h18.900000000000002v18.900000000000002h-18.900000000000002Z" style="fill: rgb(137, 209, 192);"></path><path d="M274.05,85.05h18.900000000000002v18.900000000000002h-18.900000000000002Z" style="fill: rgb(205, 236, 201);"></path><path d="M295.05,43.05h18.900000000000002v18.900000000000002h-18.900000000000002Z" style="fill: rgb(205, 236, 201);"></path><path d="M295.05,64.05h18.900000000000002v18.900000000000002h-18.900000000000002Z" style="fill: rgb(233, 247, 227);"></path><path d="M295.05,85.05h18.900000000000002v18.900000000000002h-18.900000000000002Z" style="fill: rgb(247, 252, 240);"></path><path d="M316.05,43.05h18.900000000000002v18.900000000000002h-18.900000000000002Z" style="fill: rgb(233, 247, 227);"></path><path d="M316.05,22.049999999999997h18.900000000000002v18.900000000000002h-18.900000000000002Z" style="fill: rgb(233, 247, 227);"></path><path d="M316.05,1.0499999999999972h18.900000000000002v18.900000000000002h-18.900000000000002Z" style="fill: rgb(247, 252, 240);"></path><path d="M337.05,85.05h18.900000000000002v18.900000000000002h-18.900000000000002Z" style="fill: rgb(247, 252, 240);"></path><path d="M337.05,43.05h18.900000000000002v18.900000000000002h-18.900000000000002Z" style="fill: rgb(247, 252, 240);"></path><path d="M358.05,43.05h18.900000000000002v18.900000000000002h-18.900000000000002Z" style="fill: rgb(220, 241, 214);"></path><path d="M358.05,64.05h18.900000000000002v18.900000000000002h-18.900000000000002Z" style="fill: rgb(220, 241, 214);"></path><path d="M379.05,43.05h18.900000000000002v18.900000000000002h-18.900000000000002Z" style="fill: rgb(220, 241, 214);"></path><path d="M379.05,64.05h18.900000000000002v18.900000000000002h-18.900000000000002Z" style="fill: rgb(187, 228, 190);"></path><path d="M379.05,85.05h18.900000000000002v18.900000000000002h-18.900000000000002Z" style="fill: rgb(205, 236, 201);"></path><path d="M400.05,43.05h18.900000000000002v18.900000000000002h-18.900000000000002Z" style="fill: rgb(8, 64, 129);"></path><path d="M400.05,85.05h18.900000000000002v18.900000000000002h-18.900000000000002Z" style="fill: rgb(205, 236, 201);"></path><path d="M400.05,64.05h18.900000000000002v18.900000000000002h-18.900000000000002Z" style="fill: rgb(59, 158, 199);"></path><path d="M400.05,22.049999999999997h18.900000000000002v18.900000000000002h-18.900000000000002Z" style="fill: rgb(220, 241, 214);"></path><path d="M400.05,1.0499999999999972h18.900000000000002v18.900000000000002h-18.900000000000002Z" style="fill: rgb(247, 252, 240);"></path><path d="M421.05,64.05h18.900000000000002v18.900000000000002h-18.900000000000002Z" style="fill: rgb(83, 179, 205);"></path><path d="M421.05,1.0499999999999972h18.900000000000002v18.900000000000002h-18.900000000000002Z" style="fill: rgb(247, 252, 240);"></path><path d="M421.05,43.05h18.900000000000002v18.900000000000002h-18.900000000000002Z" style="fill: rgb(247, 252, 240);"></path><path d="M421.05,85.05h18.900000000000002v18.900000000000002h-18.900000000000002Z" style="fill: rgb(247, 252, 240);"></path><path d="M442.05,64.05h18.900000000000002v18.900000000000002h-18.900000000000002Z" style="fill: rgb(109, 196, 200);"></path><path d="M442.05,85.05h18.900000000000002v18.900000000000002h-18.900000000000002Z" style="fill: rgb(220, 241, 214);"></path></g><g class="mark-group role-legend"><g transform="translate(480,0)"><path class="background" d="M0,0h120v49h-120Z" style="pointer-events: none; fill: none;"></path><g><g class="mark-group role-legend-entry"><g transform="translate(0,16)"><path class="background" d="M0,0h0v0h0Z" style="pointer-events: none; fill: none;"></path><g><g class="mark-rect role-legend-gradient" style="pointer-events: none;"><path d="M0,0h100v20h-100Z" style="fill: url(#gradient_0); stroke: #ddd; stroke-width: 0; opacity: 1;"></path></g><g class="mark-text role-legend-label" style="pointer-events: none;"><text text-anchor="start" transform="translate(0,30)" style="font: 10px sans-serif; fill: #000; opacity: 1;">1</text><text text-anchor="end" transform="translate(100,30)" style="font: 10px sans-serif; fill: #000; opacity: 1;">14</text></g></g></g></g><g class="mark-text role-legend-title" style="pointer-events: none;"><text text-anchor="start" transform="translate(0,9)" style="font: bold 11px sans-serif; fill: #000; opacity: 1;">Number of Records</text></g></g></g></g><g class="mark-group role-axis"><g transform="translate(0.5,105.5)"><path class="background" d="M0,0h0v0h0Z" style="pointer-events: none; fill: none;"></path><g><g class="mark-rule role-axis-tick" style="pointer-events: none;"><line transform="translate(10,0)" x2="0" y2="5" style="fill: none; stroke: #888; stroke-width: 1; opacity: 1;"></line><line transform="translate(31,0)" x2="0" y2="5" style="fill: none; stroke: #888; stroke-width: 1; opacity: 1;"></line><line transform="translate(52,0)" x2="0" y2="5" style="fill: none; stroke: #888; stroke-width: 1; opacity: 1;"></line><line transform="translate(73,0)" x2="0" y2="5" style="fill: none; stroke: #888; stroke-width: 1; opacity: 1;"></line><line transform="translate(94,0)" x2="0" y2="5" style="fill: none; stroke: #888; stroke-width: 1; opacity: 1;"></line><line transform="translate(115,0)" x2="0" y2="5" style="fill: none; stroke: #888; stroke-width: 1; opacity: 1;"></line><line transform="translate(136,0)" x2="0" y2="5" style="fill: none; stroke: #888; stroke-width: 1; opacity: 1;"></line><line transform="translate(157,0)" x2="0" y2="5" style="fill: none; stroke: #888; stroke-width: 1; opacity: 1;"></line><line transform="translate(178,0)" x2="0" y2="5" style="fill: none; stroke: #888; stroke-width: 1; opacity: 1;"></line><line transform="translate(199,0)" x2="0" y2="5" style="fill: none; stroke: #888; stroke-width: 1; opacity: 1;"></line><line transform="translate(220,0)" x2="0" y2="5" style="fill: none; stroke: #888; stroke-width: 1; opacity: 1;"></line><line transform="translate(241,0)" x2="0" y2="5" style="fill: none; stroke: #888; stroke-width: 1; opacity: 1;"></line><line transform="translate(262,0)" x2="0" y2="5" style="fill: none; stroke: #888; stroke-width: 1; opacity: 1;"></line><line transform="translate(283,0)" x2="0" y2="5" style="fill: none; stroke: #888; stroke-width: 1; opacity: 1;"></line><line transform="translate(304,0)" x2="0" y2="5" style="fill: none; stroke: #888; stroke-width: 1; opacity: 1;"></line><line transform="translate(325,0)" x2="0" y2="5" style="fill: none; stroke: #888; stroke-width: 1; opacity: 1;"></line><line transform="translate(346,0)" x2="0" y2="5" style="fill: none; stroke: #888; stroke-width: 1; opacity: 1;"></line><line transform="translate(367,0)" x2="0" y2="5" style="fill: none; stroke: #888; stroke-width: 1; opacity: 1;"></line><line transform="translate(388,0)" x2="0" y2="5" style="fill: none; stroke: #888; stroke-width: 1; opacity: 1;"></line><line transform="translate(409,0)" x2="0" y2="5" style="fill: none; stroke: #888; stroke-width: 1; opacity: 1;"></line><line transform="translate(430,0)" x2="0" y2="5" style="fill: none; stroke: #888; stroke-width: 1; opacity: 1;"></line><line transform="translate(451,0)" x2="0" y2="5" style="fill: none; stroke: #888; stroke-width: 1; opacity: 1;"></line></g><g class="mark-text role-axis-label" style="pointer-events: none;"><text text-anchor="end" transform="translate(9.500000000000012,7) rotate(270) translate(0,3)" style="font: 10px sans-serif; fill: #000; opacity: 1;">alfa-romero</text><text text-anchor="end" transform="translate(30.500000000000014,7) rotate(270) translate(0,3)" style="font: 10px sans-serif; fill: #000; opacity: 1;">audi</text><text text-anchor="end" transform="translate(51.500000000000014,7) rotate(270) translate(0,3)" style="font: 10px sans-serif; fill: #000; opacity: 1;">bmw</text><text text-anchor="end" transform="translate(72.50000000000001,7) rotate(270) translate(0,3)" style="font: 10px sans-serif; fill: #000; opacity: 1;">chevrolet</text><text text-anchor="end" transform="translate(93.50000000000001,7) rotate(270) translate(0,3)" style="font: 10px sans-serif; fill: #000; opacity: 1;">dodge</text><text text-anchor="end" transform="translate(114.50000000000001,7) rotate(270) translate(0,3)" style="font: 10px sans-serif; fill: #000; opacity: 1;">honda</text><text text-anchor="end" transform="translate(135.5,7) rotate(270) translate(0,3)" style="font: 10px sans-serif; fill: #000; opacity: 1;">isuzu</text><text text-anchor="end" transform="translate(156.5,7) rotate(270) translate(0,3)" style="font: 10px sans-serif; fill: #000; opacity: 1;">jaguar</text><text text-anchor="end" transform="translate(177.5,7) rotate(270) translate(0,3)" style="font: 10px sans-serif; fill: #000; opacity: 1;">mazda</text><text text-anchor="end" transform="translate(198.5,7) rotate(270) translate(0,3)" style="font: 10px sans-serif; fill: #000; opacity: 1;">mercedes-benz</text><text text-anchor="end" transform="translate(219.5,7) rotate(270) translate(0,3)" style="font: 10px sans-serif; fill: #000; opacity: 1;">mercury</text><text text-anchor="end" transform="translate(240.5,7) rotate(270) translate(0,3)" style="font: 10px sans-serif; fill: #000; opacity: 1;">mitsubishi</text><text text-anchor="end" transform="translate(261.5,7) rotate(270) translate(0,3)" style="font: 10px sans-serif; fill: #000; opacity: 1;">nissan</text><text text-anchor="end" transform="translate(282.5,7) rotate(270) translate(0,3)" style="font: 10px sans-serif; fill: #000; opacity: 1;">peugot</text><text text-anchor="end" transform="translate(303.5,7) rotate(270) translate(0,3)" style="font: 10px sans-serif; fill: #000; opacity: 1;">plymouth</text><text text-anchor="end" transform="translate(324.5,7) rotate(270) translate(0,3)" style="font: 10px sans-serif; fill: #000; opacity: 1;">porsche</text><text text-anchor="end" transform="translate(345.5,7) rotate(270) translate(0,3)" style="font: 10px sans-serif; fill: #000; opacity: 1;">renault</text><text text-anchor="end" transform="translate(366.5,7) rotate(270) translate(0,3)" style="font: 10px sans-serif; fill: #000; opacity: 1;">saab</text><text text-anchor="end" transform="translate(387.5,7) rotate(270) translate(0,3)" style="font: 10px sans-serif; fill: #000; opacity: 1;">subaru</text><text text-anchor="end" transform="translate(408.5,7) rotate(270) translate(0,3)" style="font: 10px sans-serif; fill: #000; opacity: 1;">toyota</text><text text-anchor="end" transform="translate(429.5,7) rotate(270) translate(0,3)" style="font: 10px sans-serif; fill: #000; opacity: 1;">volkswagen</text><text text-anchor="end" transform="translate(450.5,7) rotate(270) translate(0,3)" style="font: 10px sans-serif; fill: #000; opacity: 1;">volvo</text></g><g class="mark-rule role-axis-domain" style="pointer-events: none;"><line transform="translate(0,0)" x2="462" y2="0" style="fill: none; stroke: #888; stroke-width: 1; opacity: 1;"></line></g><g class="mark-text role-axis-title" style="pointer-events: none;"><text text-anchor="middle" transform="translate(231,97)" style="font: bold 11px sans-serif; fill: #000; opacity: 1;">Make</text></g></g></g></g><g class="mark-group role-axis"><g transform="translate(0.5,0.5)"><path class="background" d="M0,0h0v0h0Z" style="pointer-events: none; fill: none;"></path><g><g class="mark-rule role-axis-tick" style="pointer-events: none;"><line transform="translate(0,9)" x2="-5" y2="0" style="fill: none; stroke: #888; stroke-width: 1; opacity: 1;"></line><line transform="translate(0,31)" x2="-5" y2="0" style="fill: none; stroke: #888; stroke-width: 1; opacity: 1;"></line><line transform="translate(0,52)" x2="-5" y2="0" style="fill: none; stroke: #888; stroke-width: 1; opacity: 1;"></line><line transform="translate(0,73)" x2="-5" y2="0" style="fill: none; stroke: #888; stroke-width: 1; opacity: 1;"></line><line transform="translate(0,94)" x2="-5" y2="0" style="fill: none; stroke: #888; stroke-width: 1; opacity: 1;"></line></g><g class="mark-text role-axis-label" style="pointer-events: none;"><text text-anchor="end" transform="translate(-7,12.499999999999998)" style="font: 10px sans-serif; fill: #000; opacity: 1;">convertible</text><text text-anchor="end" transform="translate(-7,33.5)" style="font: 10px sans-serif; fill: #000; opacity: 1;">hardtop</text><text text-anchor="end" transform="translate(-7,54.5)" style="font: 10px sans-serif; fill: #000; opacity: 1;">hatchback</text><text text-anchor="end" transform="translate(-7,75.5)" style="font: 10px sans-serif; fill: #000; opacity: 1;">sedan</text><text text-anchor="end" transform="translate(-7,96.5)" style="font: 10px sans-serif; fill: #000; opacity: 1;">wagon</text></g><g class="mark-rule role-axis-domain" style="pointer-events: none;"><line transform="translate(0,0)" x2="0" y2="105" style="fill: none; stroke: #888; stroke-width: 1; opacity: 1;"></line></g><g class="mark-text role-axis-title" style="pointer-events: none;"><text text-anchor="middle" transform="translate(-68,52.5) rotate(-90) translate(0,-2)" style="font: bold 11px sans-serif; fill: #000; opacity: 1;">Body Style</text></g></g></g></g></g></g></g></g></svg>