<svg class="marks" width="400" height="251" viewBox="0 0 400 251" version="1.1" xmlns="http://www.w3.org/2000/svg" xmlns:xlink="http://www.w3.org/1999/xlink"><defs><linearGradient id="gradient_0" x1="0" x2="1" y1="0" y2="0"><stop offset="0" stop-color="rgb(247, 252, 240)"></stop><stop offset="0.02857142857142857" stop-color="rgb(242, 250, 235)"></stop><stop offset="0.08571428571428572" stop-color="rgb(231, 246, 226)"></stop><stop offset="0.14285714285714285" stop-color="rgb(221, 242, 216)"></stop><stop offset="0.2" stop-color="rgb(211, 238, 206)"></stop><stop offset="0.2571428571428571" stop-color="rgb(200, 233, 197)"></stop><stop offset="0.3142857142857143" stop-color="rgb(185, 228, 190)"></stop><stop offset="0.37142857142857144" stop-color="rgb(168, 221, 186)"></stop><stop offset="0.42857142857142855" stop-color="rgb(148, 214, 188)"></stop><stop offset="0.4857142857142857" stop-color="rgb(128, 205, 194)"></stop><stop offset="0.5428571428571428" stop-color="rgb(108, 195, 201)"></stop><stop offset="0.6" stop-color="rgb(88, 183, 205)"></stop><stop offset="0.6571428571428571" stop-color="rgb(70, 168, 203)"></stop><stop offset="0.7142857142857143" stop-color="rgb(53, 151, 196)"></stop><stop offset="0.7714285714285715" stop-color="rgb(37, 134, 187)"></stop><stop offset="0.8285714285714286" stop-color="rgb(22, 117, 178)"></stop><stop offset="0.8857142857142857" stop-color="rgb(12, 100, 165)"></stop><stop offset="0.9428571428571428" stop-color="rgb(9, 82, 148)"></stop><stop offset="1" stop-color="rgb(8, 64, 129)"></stop></linearGradient></defs><g transform="translate(57,11)"><g class="mark-group role-frame root"><g transform="translate(0,0)"><path class="background" d="M0.5,0.5h200v200h-200Z" style="fill-opacity: 0; stroke: #ddd;"></path><g><g class="mark-rect role-mark marks"><path d="M50,85.71428571428572h25v28.57142857142857h-25Z" style="fill: rgb(70, 168, 203);"></path><path d="M25,85.71428571428572h25v28.57142857142857h-25Z" style="fill: rgb(108, 195, 201);"></path><path d="M50,114.28571428571429h25v28.57142857142857h-25Z" style="fill: rgb(138, 209, 191);"></path><path d="M25,57.14285714285714h25v28.571428571428584h-25Z" style="fill: rgb(70, 168, 203);"></path><path d="M50,57.14285714285714h25v28.571428571428584h-25Z" style="fill: rgb(226, 244, 221);"></path><path d="M25,28.571428571428584h25v28.571428571428555h-25Z" style="fill: rgb(237, 248, 230);"></path><path d="M175,171.42857142857144h25v28.571428571428555h-25Z" style="fill: rgb(247, 252, 240);"></path><path d="M125,142.85714285714286h25v28.571428571428584h-25Z" style="fill: rgb(206, 236, 201);"></path><path d="M100,142.85714285714286h25v28.571428571428584h-25Z" style="fill: rgb(108, 195, 201);"></path><path d="M175,142.85714285714286h25v28.571428571428584h-25Z" style="fill: rgb(247, 252, 240);"></path><path d="M100,114.28571428571429h25v28.57142857142857h-25Z" style="fill: rgb(138, 209, 191);"></path><path d="M75,114.28571428571429h25v28.57142857142857h-25Z" style="fill: rgb(8, 64, 129);"></path><path d="M25,0h25v28.571428571428584h-25Z" style="fill: rgb(242, 250, 235);"></path><path d="M0,28.571428571428584h25v28.571428571428555h-25Z" style="fill: rgb(237, 248, 230);"></path><path d="M25,114.28571428571429h25v28.57142857142857h-25Z" style="fill: rgb(237, 248, 230);"></path><path d="M125,114.28571428571429h25v28.57142857142857h-25Z" style="fill: rgb(221, 242, 216);"></path><path d="M100,85.71428571428572h25v28.57142857142857h-25Z" style="fill: rgb(242, 250, 235);"></path><path d="M50,28.571428571428584h25v28.571428571428555h-25Z" style="fill: rgb(237, 248, 230);"></path><path d="M175,114.28571428571429h25v28.57142857142857h-25Z" style="fill: rgb(247, 252, 240);"></path><path d="M75,57.14285714285714h25v28.571428571428584h-25Z" style="fill: rgb(217, 240, 211);"></path><path d="M75,85.71428571428572h25v28.57142857142857h-25Z" style="fill: rgb(247, 252, 240);"></path></g><g class="mark-group role-legend"><g transform="translate(218,0)"><path class="background" d="M0,0h120v49h-120Z" style="pointer-events: none; fill: none;"></path><g><g class="mark-group role-legend-entry"><g transform="translate(0,16)"><path class="background" d="M0,0h0v0h0Z" style="pointer-events: none; fill: none;"></path><g><g class="mark-rect role-legend-gradient" style="pointer-events: none;"><path d="M0,0h100v20h-100Z" style="fill: url(#gradient_0); stroke: #ddd; stroke-width: 0; opacity: 1;"></path></g><g class="mark-text role-legend-label" style="pointer-events: none;"><text text-anchor="start" transform="translate(0,30)" style="font: 10px sans-serif; fill: #000; opacity: 1;">1</text><text text-anchor="end" transform="translate(100,30)" style="font: 10px sans-serif; fill: #000; opacity: 1;">36</text></g></g></g></g><g class="mark-text role-legend-title" style="pointer-events: none;"><text text-anchor="start" transform="translate(0,9)" style="font: bold 11px sans-serif; fill: #000; opacity: 1;">Number of Records</text></g></g></g></g><g class="mark-group role-axis"><g transform="translate(0.5,200.5)"><path class="background" d="M0,0h0v0h0Z" style="pointer-events: none; fill: none;"></path><g><g class="mark-rule role-axis-tick" style="pointer-events: none;"><line transform="translate(0,0)" x2="0" y2="5" style="fill: none; stroke: #888; stroke-width: 1; opacity: 1;"></line><line transform="translate(25,0)" x2="0" y2="5" style="fill: none; stroke: #888; stroke-width: 1; opacity: 1;"></line><line transform="translate(50,0)" x2="0" y2="5" style="fill: none; stroke: #888; stroke-width: 1; opacity: 1;"></line><line transform="translate(75,0)" x2="0" y2="5" style="fill: none; stroke: #888; stroke-width: 1; opacity: 1;"></line><line transform="translate(100,0)" x2="0" y2="5" style="fill: none; stroke: #888; stroke-width: 1; opacity: 1;"></line><line transform="translate(125,0)" x2="0" y2="5" style="fill: none; stroke: #888; stroke-width: 1; opacity: 1;"></line><line transform="translate(150,0)" x2="0" y2="5" style="fill: none; stroke: #888; stroke-width: 1; opacity: 1;"></line><line transform="translate(175,0)" x2="0" y2="5" style="fill: none; stroke: #888; stroke-width: 1; opacity: 1;"></line><line transform="translate(200,0)" x2="0" y2="5" style="fill: none; stroke: #888; stroke-width: 1; opacity: 1;"></line></g><g class="mark-text role-axis-label" style="pointer-events: none;"><text text-anchor="start" transform="translate(0,15)" style="font: 10px sans-serif; fill: #000; opacity: 1;">10</text><text text-anchor="middle" transform="translate(25,15)" style="font: 10px sans-serif; fill: #000; opacity: 1;">15</text><text text-anchor="middle" transform="translate(50,15)" style="font: 10px sans-serif; fill: #000; opacity: 1;">20</text><text text-anchor="middle" transform="translate(75,15)" style="font: 10px sans-serif; fill: #000; opacity: 1;">25</text><text text-anchor="middle" transform="translate(100,15)" style="font: 10px sans-serif; fill: #000; opacity: 1;">30</text><text text-anchor="middle" transform="translate(125,15)" style="font: 10px sans-serif; fill: #000; opacity: 1;">35</text><text text-anchor="middle" transform="translate(150,15)" style="font: 10px sans-serif; fill: #000; opacity: 1;">40</text><text text-anchor="middle" transform="translate(175,15)" style="font: 10px sans-serif; fill: #000; opacity: 1;">45</text><text text-anchor="end" transform="translate(200,15)" style="font: 10px sans-serif; fill: #000; opacity: 1;">50</text></g><g class="mark-rule role-axis-domain" style="pointer-events: none;"><line transform="translate(0,0)" x2="200" y2="0" style="fill: none; stroke: #888; stroke-width: 1; opacity: 1;"></line></g><g class="mark-text role-axis-title" style="pointer-events: none;"><text text-anchor="middle" transform="translate(100,31)" style="font: bold 11px sans-serif; fill: #000; opacity: 1;">City MPG</text></g></g></g></g><g class="mark-group role-axis"><g transform="translate(0.5,0.5)"><path class="background" d="M0,0h0v0h0Z" style="pointer-events: none; fill: none;"></path><g><g class="mark-rule role-axis-tick" style="pointer-events: none;"><line transform="translate(0,200)" x2="-5" y2="0" style="fill: none; stroke: #888; stroke-width: 1; opacity: 1;"></line><line transform="translate(0,171)" x2="-5" y2="0" style="fill: none; stroke: #888; stroke-width: 1; opacity: 1;"></line><line transform="translate(0,143)" x2="-5" y2="0" style="fill: none; stroke: #888; stroke-width: 1; opacity: 1;"></line><line transform="translate(0,114)" x2="-5" y2="0" style="fill: none; stroke: #888; stroke-width: 1; opacity: 1;"></line><line transform="translate(0,86)" x2="-5" y2="0" style="fill: none; stroke: #888; stroke-width: 1; opacity: 1;"></line><line transform="translate(0,57)" x2="-5" y2="0" style="fill: none; stroke: #888; stroke-width: 1; opacity: 1;"></line><line transform="translate(0,29)" x2="-5" y2="0" style="fill: none; stroke: #888; stroke-width: 1; opacity: 1;"></line><line transform="translate(0,0)" x2="-5" y2="0" style="fill: none; stroke: #888; stroke-width: 1; opacity: 1;"></line></g><g class="mark-text role-axis-label" style="pointer-events: none;"><text text-anchor="end" transform="translate(-7,203)" style="font: 10px sans-serif; fill: #000; opacity: 1;">1,000</text><text text-anchor="end" transform="translate(-7,174.42857142857144)" style="font: 10px sans-serif; fill: #000; opacity: 1;">1,500</text><text text-anchor="end" transform="translate(-7,145.85714285714286)" style="font: 10px sans-serif; fill: #000; opacity: 1;">2,000</text><text text-anchor="end" transform="translate(-7,117.28571428571429)" style="font: 10px sans-serif; fill: #000; opacity: 1;">2,500</text><text text-anchor="end" transform="translate(-7,88.71428571428572)" style="font: 10px sans-serif; fill: #000; opacity: 1;">3,000</text><text text-anchor="end" transform="translate(-7,60.14285714285714)" style="font: 10px sans-serif; fill: #000; opacity: 1;">3,500</text><text text-anchor="end" transform="translate(-7,31.571428571428584)" style="font: 10px sans-serif; fill: #000; opacity: 1;">4,000</text><text text-anchor="end" transform="translate(-7,3)" style="font: 10px sans-serif; fill: #000; opacity: 1;">4,500</text></g><g class="mark-rule role-axis-domain" style="pointer-events: none;"><line transform="translate(0,200)" x2="0" y2="-200" style="fill: none; stroke: #888; stroke-width: 1; opacity: 1;"></line></g><g class="mark-text role-axis-title" style="pointer-events: none;"><text text-anchor="middle" transform="translate(-39,100) rotate(-90) translate(0,-2)" style="font: bold 11px sans-serif; fill: #000; opacity: 1;">Curb Weight</text></g></g></g></g></g></g></g></g></svg>