<svg class="marks" width="358" height="180" viewBox="0 0 358 180" version="1.1" xmlns="http://www.w3.org/2000/svg" xmlns:xlink="http://www.w3.org/1999/xlink"><rect width="358" height="180" style="fill: #ffffff;"></rect><g transform="translate(81,9)"><g class="mark-group role-frame root"><g transform="translate(0,0)"><path class="background" d="M0,0h0v0h0Z" style="fill: none;"></path><g><g class="mark-group role-scope product-group"><g transform="translate(0,0)"><path class="background" d="M0,0h0v0h0Z" style="fill: none;"></path><g><g class="mark-text role-mark"><text text-anchor="middle" transform="translate(0,0)" style="font: 11px sans-serif; fill: #000;"></text></g><g class="mark-arc role-mark"><path transform="translate(0,90)" d="M4.898587196589413e-15,-80A80,80,0,1,1,-79.90394455126096,3.919138317157645L-39.95197227563048,1.9595691585788224A40,40,0,1,0,2.4492935982947065e-15,-40Z" style="fill: #4c78a8; stroke: #fff;"></path><path transform="translate(0,90)" d="M-79.90394455126096,3.919138317157645A80,80,0,0,1,-56.993447293134665,-56.14042185132456L-28.496723646567332,-28.07021092566228A40,40,0,0,0,-39.95197227563048,1.9595691585788224Z" style="fill: #f58518; stroke: #fff;"></path><path transform="translate(0,90)" d="M-56.993447293134665,-56.14042185132456A80,80,0,0,1,-54.56191109657408,-58.506391595188525L-27.28095554828704,-29.253195797594262A40,40,0,0,0,-28.496723646567332,-28.07021092566228Z" style="fill: #eeca3b; stroke: #fff;"></path><path transform="translate(0,90)" d="M-54.56191109657408,-58.506391595188525A80,80,0,0,1,-26.69665153740302,-75.41411536768483L-13.34832576870151,-37.707057683842415A40,40,0,0,0,-27.28095554828704,-29.253195797594262Z" style="fill: #e45756; stroke: #fff;"></path><path transform="translate(0,90)" d="M-26.69665153740302,-75.41411536768483A80,80,0,0,1,-14.891743071681812,-78.60175563107364L-7.445871535840906,-39.30087781553682A40,40,0,0,0,-13.34832576870151,-37.707057683842415Z" style="fill: #72b7b2; stroke: #fff;"></path><path transform="translate(0,90)" d="M-14.891743071681812,-78.60175563107364A80,80,0,0,1,-3.0152146135948033,-79.94315781124713L-1.5076073067974016,-39.971578905623566A40,40,0,0,0,-7.445871535840906,-39.30087781553682Z" style="fill: #54a24b; stroke: #fff;"></path><path transform="translate(0,90)" d="M-3.0152146135948033,-79.94315781124713A80,80,0,0,1,-0.4775192477233569,-79.99857483335596L-0.23875962386167845,-39.99928741667798A40,40,0,0,0,-1.5076073067974016,-39.971578905623566Z" style="fill: #b279a2; stroke: #fff;"></path><path transform="translate(0,90)" d="M-0.4775192477233569,-79.99857483335596A80,80,0,0,1,-1.4695761589768237e-14,-80L-7.347880794884118e-15,-40A40,40,0,0,0,-0.23875962386167845,-39.99928741667798Z" style="fill: #ff9da6; stroke: #fff;"></path></g></g></g></g><g class="mark-group role-legend"><g transform="translate(99,0)"><path class="background" d="M0,0h178v132h-178Z" style="pointer-events: none; fill: none;"></path><g><g class="mark-group role-legend-entry"><g transform="translate(0,16)"><path class="background" d="M0,0h0v0h0Z" style="pointer-events: none; fill: none;"></path><g><g class="mark-symbol role-legend-symbol" style="pointer-events: none;"><path transform="translate(5,5)" d="M5,0A5,5,0,1,1,-5,0A5,5,0,1,1,5,0" style="fill: #4c78a8; stroke-width: 1.5; opacity: 1;"></path><path transform="translate(5,20)" d="M5,0A5,5,0,1,1,-5,0A5,5,0,1,1,5,0" style="fill: #f58518; stroke-width: 1.5; opacity: 1;"></path><path transform="translate(5,35)" d="M5,0A5,5,0,1,1,-5,0A5,5,0,1,1,5,0" style="fill: #e45756; stroke-width: 1.5; opacity: 1;"></path><path transform="translate(5,50)" d="M5,0A5,5,0,1,1,-5,0A5,5,0,1,1,5,0" style="fill: #72b7b2; stroke-width: 1.5; opacity: 1;"></path><path transform="translate(5,65)" d="M5,0A5,5,0,1,1,-5,0A5,5,0,1,1,5,0" style="fill: #54a24b; stroke-width: 1.5; opacity: 1;"></path><path transform="translate(5,80)" d="M5,0A5,5,0,1,1,-5,0A5,5,0,1,1,5,0" style="fill: #eeca3b; stroke-width: 1.5; opacity: 1;"></path><path transform="translate(5,95)" d="M5,0A5,5,0,1,1,-5,0A5,5,0,1,1,5,0" style="fill: #b279a2; stroke-width: 1.5; opacity: 1;"></path><path transform="translate(5,110)" d="M5,0A5,5,0,1,1,-5,0A5,5,0,1,1,5,0" style="fill: #ff9da6; stroke-width: 1.5; opacity: 1;"></path></g><g class="mark-text role-legend-label" style="pointer-events: none;"><text text-anchor="start" transform="translate(18,8)" style="font: 10px sans-serif; fill: #000; opacity: 1;">Closed with explanation</text><text text-anchor="start" transform="translate(18,23)" style="font: 10px sans-serif; fill: #000; opacity: 1;">Closed with non-monetary relief</text><text text-anchor="start" transform="translate(18,38)" style="font: 10px sans-serif; fill: #000; opacity: 1;">Closed with monetary relief</text><text text-anchor="start" transform="translate(18,53)" style="font: 10px sans-serif; fill: #000; opacity: 1;">Closed without relief</text><text text-anchor="start" transform="translate(18,68)" style="font: 10px sans-serif; fill: #000; opacity: 1;">Closed</text><text text-anchor="start" transform="translate(18,83)" style="font: 10px sans-serif; fill: #000; opacity: 1;">Closed with relief</text><text text-anchor="start" transform="translate(18,98)" style="font: 10px sans-serif; fill: #000; opacity: 1;">Untimely response</text><text text-anchor="start" transform="translate(18,113)" style="font: 10px sans-serif; fill: #000; opacity: 1;">In progress</text></g></g></g></g><g class="mark-text role-legend-title" style="pointer-events: none;"><text text-anchor="start" transform="translate(0,9)" style="font: bold 11px sans-serif; fill: #000; opacity: 1;">Company response</text></g></g></g></g></g></g></g></g></svg>