<svg class="marks" width="893" height="150" viewBox="0 0 893 150" version="1.1" xmlns="http://www.w3.org/2000/svg" xmlns:xlink="http://www.w3.org/1999/xlink"><rect width="893" height="150" style="fill: #ffffff;"></rect><defs><linearGradient id="gradient_0" x1="0" x2="1" y1="0" y2="0"><stop offset="0" stop-color="rgb(255, 255, 217)"></stop><stop offset="0.030927835051546393" stop-color="rgb(250, 253, 207)"></stop><stop offset="0.08247422680412371" stop-color="rgb(242, 250, 193)"></stop><stop offset="0.13402061855670103" stop-color="rgb(232, 246, 183)"></stop><stop offset="0.18556701030927836" stop-color="rgb(217, 240, 180)"></stop><stop offset="0.23711340206185566" stop-color="rgb(199, 233, 180)"></stop><stop offset="0.28865979381443296" stop-color="rgb(175, 224, 182)"></stop><stop offset="0.3402061855670103" stop-color="rgb(148, 213, 185)"></stop><stop offset="0.3917525773195876" stop-color="rgb(120, 202, 188)"></stop><stop offset="0.44329896907216493" stop-color="rgb(94, 192, 192)"></stop><stop offset="0.4948453608247423" stop-color="rgb(71, 181, 194)"></stop><stop offset="0.5463917525773195" stop-color="rgb(53, 168, 194)"></stop><stop offset="0.5979381443298969" stop-color="rgb(40, 152, 191)"></stop><stop offset="0.6494845360824743" stop-color="rgb(34, 134, 186)"></stop><stop offset="0.7010309278350515" stop-color="rgb(32, 114, 177)"></stop><stop offset="0.7525773195876289" stop-color="rgb(34, 95, 168)"></stop><stop offset="0.8041237113402062" stop-color="rgb(35, 76, 159)"></stop><stop offset="0.8556701030927835" stop-color="rgb(33, 60, 147)"></stop><stop offset="0.9072164948453608" stop-color="rgb(27, 47, 130)"></stop><stop offset="0.9587628865979382" stop-color="rgb(17, 37, 108)"></stop><stop offset="1" stop-color="rgb(8, 29, 88)"></stop></linearGradient></defs><g transform="translate(150,5)"><g class="mark-group role-frame root"><g transform="translate(0,0)"><path class="background" d="M0.5,0.5h600v105h-600Z" style="fill-opacity: 0; stroke: #ddd;"></path><g><g class="mark-group role-axis"><g transform="translate(0.5,105.5)"><path class="background" d="M0,0h0v0h0Z" style="pointer-events: none; fill: none;"></path><g><g class="mark-rule role-axis-grid" style="pointer-events: none;"><line transform="translate(0,0)" x2="0" y2="-105" style="fill: none; stroke: #ddd; stroke-width: 1; stroke-dasharray: ; opacity: 1;"></line><line transform="translate(30,0)" x2="0" y2="-105" style="fill: none; stroke: #ddd; stroke-width: 1; stroke-dasharray: ; opacity: 1;"></line><line transform="translate(61,0)" x2="0" y2="-105" style="fill: none; stroke: #ddd; stroke-width: 1; stroke-dasharray: ; opacity: 1;"></line><line transform="translate(92,0)" x2="0" y2="-105" style="fill: none; stroke: #ddd; stroke-width: 1; stroke-dasharray: ; opacity: 1;"></line><line transform="translate(122,0)" x2="0" y2="-105" style="fill: none; stroke: #ddd; stroke-width: 1; stroke-dasharray: ; opacity: 1;"></line><line transform="translate(152,0)" x2="0" y2="-105" style="fill: none; stroke: #ddd; stroke-width: 1; stroke-dasharray: ; opacity: 1;"></line><line transform="translate(183,0)" x2="0" y2="-105" style="fill: none; stroke: #ddd; stroke-width: 1; stroke-dasharray: ; opacity: 1;"></line><line transform="translate(213,0)" x2="0" y2="-105" style="fill: none; stroke: #ddd; stroke-width: 1; stroke-dasharray: ; opacity: 1;"></line><line transform="translate(244,0)" x2="0" y2="-105" style="fill: none; stroke: #ddd; stroke-width: 1; stroke-dasharray: ; opacity: 1;"></line><line transform="translate(274,0)" x2="0" y2="-105" style="fill: none; stroke: #ddd; stroke-width: 1; stroke-dasharray: ; opacity: 1;"></line><line transform="translate(305,0)" x2="0" y2="-105" style="fill: none; stroke: #ddd; stroke-width: 1; stroke-dasharray: ; opacity: 1;"></line><line transform="translate(335,0)" x2="0" y2="-105" style="fill: none; stroke: #ddd; stroke-width: 1; stroke-dasharray: ; opacity: 1;"></line><line transform="translate(366,0)" x2="0" y2="-105" style="fill: none; stroke: #ddd; stroke-width: 1; stroke-dasharray: ; opacity: 1;"></line><line transform="translate(396,0)" x2="0" y2="-105" style="fill: none; stroke: #ddd; stroke-width: 1; stroke-dasharray: ; opacity: 1;"></line><line transform="translate(427,0)" x2="0" y2="-105" style="fill: none; stroke: #ddd; stroke-width: 1; stroke-dasharray: ; opacity: 1;"></line><line transform="translate(457,0)" x2="0" y2="-105" style="fill: none; stroke: #ddd; stroke-width: 1; stroke-dasharray: ; opacity: 1;"></line><line transform="translate(488,0)" x2="0" y2="-105" style="fill: none; stroke: #ddd; stroke-width: 1; stroke-dasharray: ; opacity: 1;"></line><line transform="translate(518,0)" x2="0" y2="-105" style="fill: none; stroke: #ddd; stroke-width: 1; stroke-dasharray: ; opacity: 1;"></line><line transform="translate(549,0)" x2="0" y2="-105" style="fill: none; stroke: #ddd; stroke-width: 1; stroke-dasharray: ; opacity: 1;"></line><line transform="translate(580,0)" x2="0" y2="-105" style="fill: none; stroke: #ddd; stroke-width: 1; stroke-dasharray: ; opacity: 1;"></line></g></g></g></g><g class="mark-rect role-mark marks"><path d="M0,64.05h223.81681514476617v18.900000000000002h-223.81681514476617Z" style="fill: rgb(120, 202, 188);"></path><path d="M0,85.05h538.8502227171492v18.900000000000002h-538.8502227171492Z" style="fill: rgb(45, 158, 193);"></path><path d="M0,1.0499999999999972h263.9198218262806v18.900000000000002h-263.9198218262806Z" style="fill: rgb(219, 241, 180);"></path><path d="M0,22.049999999999997h263.9198218262806v18.900000000000002h-263.9198218262806Z" style="fill: rgb(232, 246, 183);"></path><path d="M0,22.049999999999997h10.356347438752783v18.900000000000002h-10.356347438752783Z" style="fill: rgb(222, 242, 180);"></path><path d="M0,1.0499999999999972h182.72550111358575v18.900000000000002h-182.72550111358575Z" style="fill: rgb(203, 235, 180);"></path><path d="M0,85.05h152.3246102449889v18.900000000000002h-152.3246102449889Z" style="fill: rgb(33, 102, 172);"></path><path d="M0,64.05h518.4716035634744v18.900000000000002h-518.4716035634744Z" style="fill: rgb(67, 178, 194);"></path><path d="M0,1.0499999999999972h203.43819599109133v18.900000000000002h-203.43819599109133Z" style="fill: rgb(232, 246, 183);"></path><path d="M0,43.05h315.01948775055683v18.900000000000002h-315.01948775055683Z" style="fill: rgb(120, 202, 188);"></path><path d="M0,64.05h559.2288418708241v18.900000000000002h-559.2288418708241Z" style="fill: rgb(33, 104, 173);"></path><path d="M0,64.05h396.1998886414254v18.900000000000002h-396.1998886414254Z" style="fill: rgb(82, 187, 193);"></path><path d="M0,22.049999999999997h274.26224944320717v18.900000000000002h-274.26224944320717Z" style="fill: rgb(212, 238, 179);"></path><path d="M0,64.05h274.26224944320717v18.900000000000002h-274.26224944320717Z" style="fill: rgb(63, 176, 194);"></path><path d="M0,43.05h436.95712694877506v18.900000000000002h-436.95712694877506Z" style="fill: rgb(49, 163, 193);"></path><path d="M0,43.05h508.1291759465479v18.900000000000002h-508.1291759465479Z" style="fill: rgb(33, 128, 183);"></path><path d="M0,85.05h508.1291759465479v18.900000000000002h-508.1291759465479Z" style="fill: rgb(38, 148, 190);"></path><path d="M0,1.0499999999999972h406.22216035634744v18.900000000000002h-406.22216035634744Z" style="fill: rgb(221, 242, 180);"></path><path d="M0,22.049999999999997h406.22216035634744v18.900000000000002h-406.22216035634744Z" style="fill: rgb(212, 238, 179);"></path><path d="M0,64.05h477.728285077951v18.900000000000002h-477.728285077951Z" style="fill: rgb(96, 193, 191);"></path><path d="M0,85.05h457.3357461024499v18.900000000000002h-457.3357461024499Z" style="fill: rgb(34, 138, 187);"></path><path d="M0,64.05h579.6074610244989v18.900000000000002h-579.6074610244989Z" style="fill: rgb(53, 168, 194);"></path><path d="M0,43.05h548.8724944320712v18.900000000000002h-548.8724944320712Z" style="fill: rgb(38, 148, 190);"></path><path d="M0,43.05h345.75445434298445v18.900000000000002h-345.75445434298445Z" style="fill: rgb(128, 206, 187);"></path><path d="M0,22.049999999999997h233.85300668151447v18.900000000000002h-233.85300668151447Z" style="fill: rgb(229, 245, 182);"></path><path d="M0,85.05h193.08184855233853v18.900000000000002h-193.08184855233853Z" style="fill: rgb(34, 136, 186);"></path><path d="M0,85.05h488.0846325167038v18.900000000000002h-488.0846325167038Z" style="fill: rgb(42, 155, 192);"></path><path d="M0,22.049999999999997h101.87917594654787v18.900000000000002h-101.87917594654787Z" style="fill: rgb(225, 243, 181);"></path><path d="M0,85.05h366.14699331848556v18.900000000000002h-366.14699331848556Z" style="fill: rgb(65, 177, 194);"></path><path d="M0,64.05h304.663140311804v18.900000000000002h-304.663140311804Z" style="fill: rgb(73, 182, 194);"></path><path d="M0,22.049999999999997h203.43819599109133v18.900000000000002h-203.43819599109133Z" style="fill: rgb(232, 246, 183);"></path><path d="M0,43.05h355.7906458797327v18.900000000000002h-355.7906458797327Z" style="fill: rgb(172, 223, 183);"></path><path d="M0,22.049999999999997h477.728285077951v18.900000000000002h-477.728285077951Z" style="fill: rgb(216, 240, 179);"></path><path d="M0,22.049999999999997h20.0445434298441v18.900000000000002h-20.0445434298441Z" style="fill: rgb(226, 244, 181);"></path><path d="M0,1.0499999999999972h315.01948775055683v18.900000000000002h-315.01948775055683Z" style="fill: rgb(219, 241, 180);"></path><path d="M0,85.05h254.56570155902006v18.900000000000002h-254.56570155902006Z" style="fill: rgb(47, 162, 193);"></path><path d="M0,22.049999999999997h447.31347438752783v18.900000000000002h-447.31347438752783Z" style="fill: rgb(178, 225, 182);"></path><path d="M0,85.05h0v18.900000000000002h0Z" style="fill: rgb(134, 208, 187);"></path><path d="M0,85.05h406.22216035634744v18.900000000000002h-406.22216035634744Z" style="fill: rgb(53, 168, 194);"></path><path d="M0,64.05h263.9198218262806v18.900000000000002h-263.9198218262806Z" style="fill: rgb(42, 155, 192);"></path><path d="M0,64.05h254.56570155902006v18.900000000000002h-254.56570155902006Z" style="fill: rgb(71, 181, 194);"></path><path d="M0,64.05h426.6007795100222v18.900000000000002h-426.6007795100222Z" style="fill: rgb(35, 141, 188);"></path><path d="M0,85.05h122.27171492204899v18.900000000000002h-122.27171492204899Z" style="fill: rgb(8, 29, 88);"></path><path d="M0,22.049999999999997h548.8724944320712v18.900000000000002h-548.8724944320712Z" style="fill: rgb(201, 234, 180);"></path><path d="M0,43.05h406.22216035634744v18.900000000000002h-406.22216035634744Z" style="fill: rgb(131, 207, 187);"></path><path d="M0,64.05h366.14699331848556v18.900000000000002h-366.14699331848556Z" style="fill: rgb(58, 172, 194);"></path><path d="M0,85.05h579.6074610244989v18.900000000000002h-579.6074610244989Z" style="fill: rgb(36, 143, 189);"></path><path d="M0,85.05h345.75445434298445v18.900000000000002h-345.75445434298445Z" style="fill: rgb(82, 187, 193);"></path><path d="M0,1.0499999999999972h345.75445434298445v18.900000000000002h-345.75445434298445Z" style="fill: rgb(224, 243, 180);"></path><path d="M0,22.049999999999997h284.28452115812917v18.900000000000002h-284.28452115812917Z" style="fill: rgb(238, 248, 188);"></path><path d="M0,1.0499999999999972h600v18.900000000000002h-600Z" style="fill: rgb(194, 231, 181);"></path><path d="M0,64.05h355.7906458797327v18.900000000000002h-355.7906458797327Z" style="fill: rgb(96, 193, 191);"></path><path d="M0,1.0499999999999972h538.8502227171492v18.900000000000002h-538.8502227171492Z" style="fill: rgb(201, 234, 180);"></path><path d="M0,43.05h447.31347438752783v18.900000000000002h-447.31347438752783Z" style="fill: rgb(112, 199, 189);"></path><path d="M0,22.049999999999997h559.2288418708241v18.900000000000002h-559.2288418708241Z" style="fill: rgb(139, 210, 186);"></path><path d="M0,85.05h559.2288418708241v18.900000000000002h-559.2288418708241Z" style="fill: rgb(60, 173, 194);"></path><path d="M0,85.05h141.98218262806236v18.900000000000002h-141.98218262806236Z" style="fill: rgb(34, 96, 169);"></path><path d="M0,43.05h426.6007795100222v18.900000000000002h-426.6007795100222Z" style="fill: rgb(35, 139, 188);"></path><path d="M0,1.0499999999999972h467.69209354120267v18.900000000000002h-467.69209354120267Z" style="fill: rgb(192, 230, 181);"></path><path d="M0,64.05h528.4938752783964v18.900000000000002h-528.4938752783964Z" style="fill: rgb(58, 172, 194);"></path><path d="M0,85.05h182.72550111358575v18.900000000000002h-182.72550111358575Z" style="fill: rgb(32, 122, 181);"></path><path d="M0,43.05h263.9198218262806v18.900000000000002h-263.9198218262806Z" style="fill: rgb(82, 187, 193);"></path><path d="M0,22.049999999999997h436.95712694877506v18.900000000000002h-436.95712694877506Z" style="fill: rgb(203, 235, 180);"></path><path d="M0,85.05h132.62806236080178v18.900000000000002h-132.62806236080178Z" style="fill: rgb(33, 110, 176);"></path><path d="M0,64.05h315.01948775055683v18.900000000000002h-315.01948775055683Z" style="fill: rgb(112, 199, 189);"></path><path d="M0,1.0499999999999972h477.728285077951v18.900000000000002h-477.728285077951Z" style="fill: rgb(187, 229, 181);"></path><path d="M0,85.05h81.50055679287306v18.900000000000002h-81.50055679287306Z" style="fill: rgb(73, 182, 194);"></path><path d="M0,85.05h172.7032293986637v18.900000000000002h-172.7032293986637Z" style="fill: rgb(33, 104, 173);"></path><path d="M0,22.049999999999997h538.8502227171492v18.900000000000002h-538.8502227171492Z" style="fill: rgb(209, 237, 180);"></path><path d="M0,85.05h376.5033407572383v18.900000000000002h-376.5033407572383Z" style="fill: rgb(52, 166, 194);"></path><path d="M0,43.05h325.37583518930956v18.900000000000002h-325.37583518930956Z" style="fill: rgb(148, 213, 185);"></path><path d="M0,85.05h436.95712694877506v18.900000000000002h-436.95712694877506Z" style="fill: rgb(32, 122, 181);"></path><path d="M0,85.05h263.9198218262806v18.900000000000002h-263.9198218262806Z" style="fill: rgb(33, 108, 175);"></path><path d="M0,85.05h355.7906458797327v18.900000000000002h-355.7906458797327Z" style="fill: rgb(120, 202, 188);"></path><path d="M0,85.05h385.8574610244989v18.900000000000002h-385.8574610244989Z" style="fill: rgb(78, 184, 193);"></path><path d="M0,43.05h488.0846325167038v18.900000000000002h-488.0846325167038Z" style="fill: rgb(104, 196, 190);"></path><path d="M0,85.05h162.34688195991092v18.900000000000002h-162.34688195991092Z" style="fill: rgb(37, 147, 190);"></path><path d="M0,64.05h457.3357461024499v18.900000000000002h-457.3357461024499Z" style="fill: rgb(78, 184, 193);"></path><path d="M0,43.05h162.34688195991092v18.900000000000002h-162.34688195991092Z" style="fill: rgb(229, 245, 182);"></path><path d="M0,85.05h426.6007795100222v18.900000000000002h-426.6007795100222Z" style="fill: rgb(58, 172, 194);"></path><path d="M0,85.05h315.01948775055683v18.900000000000002h-315.01948775055683Z" style="fill: rgb(112, 199, 189);"></path><path d="M0,43.05h254.56570155902006v18.900000000000002h-254.56570155902006Z" style="fill: rgb(128, 206, 187);"></path><path d="M0,1.0499999999999972h50.76559020044544v18.900000000000002h-50.76559020044544Z" style="fill: rgb(190, 229, 181);"></path><path d="M0,64.05h385.8574610244989v18.900000000000002h-385.8574610244989Z" style="fill: rgb(36, 143, 189);"></path><path d="M0,85.05h20.0445434298441v18.900000000000002h-20.0445434298441Z" style="fill: rgb(69, 180, 194);"></path><path d="M0,22.049999999999997h589.9638084632517v18.900000000000002h-589.9638084632517Z" style="fill: rgb(167, 221, 183);"></path><path d="M0,85.05h548.8724944320712v18.900000000000002h-548.8724944320712Z" style="fill: rgb(71, 181, 194);"></path><path d="M0,43.05h172.7032293986637v18.900000000000002h-172.7032293986637Z" style="fill: rgb(230, 245, 182);"></path><path d="M0,22.049999999999997h518.4716035634744v18.900000000000002h-518.4716035634744Z" style="fill: rgb(194, 231, 181);"></path><path d="M0,64.05h213.46046770601336v18.900000000000002h-213.46046770601336Z" style="fill: rgb(183, 227, 182);"></path><path d="M0,64.05h548.8724944320712v18.900000000000002h-548.8724944320712Z" style="fill: rgb(89, 190, 192);"></path><path d="M0,85.05h396.1998886414254v18.900000000000002h-396.1998886414254Z" style="fill: rgb(55, 169, 194);"></path><path d="M0,64.05h294.64086859688194v18.900000000000002h-294.64086859688194Z" style="fill: rgb(35, 141, 188);"></path><path d="M0,85.05h498.44097995545656v18.900000000000002h-498.44097995545656Z" style="fill: rgb(34, 136, 186);"></path><path d="M0,85.05h304.663140311804v18.900000000000002h-304.663140311804Z" style="fill: rgb(53, 168, 194);"></path><path d="M0,85.05h569.5851893095769v18.900000000000002h-569.5851893095769Z" style="fill: rgb(39, 150, 191);"></path><path d="M0,85.05h60.787861915367486v18.900000000000002h-60.787861915367486Z" style="fill: rgb(36, 143, 189);"></path><path d="M0,43.05h416.5785077951002v18.900000000000002h-416.5785077951002Z" style="fill: rgb(107, 197, 190);"></path><path d="M0,22.049999999999997h498.44097995545656v18.900000000000002h-498.44097995545656Z" style="fill: rgb(197, 232, 180);"></path><path d="M0,85.05h528.4938752783964v18.900000000000002h-528.4938752783964Z" style="fill: rgb(58, 172, 194);"></path><path d="M0,1.0499999999999972h498.44097995545656v18.900000000000002h-498.44097995545656Z" style="fill: rgb(212, 238, 179);"></path><path d="M0,64.05h182.72550111358575v18.900000000000002h-182.72550111358575Z" style="fill: rgb(222, 242, 180);"></path><path d="M0,64.05h345.75445434298445v18.900000000000002h-345.75445434298445Z" style="fill: rgb(73, 182, 194);"></path><path d="M0,85.05h30.3869710467706v18.900000000000002h-30.3869710467706Z" style="fill: rgb(104, 196, 190);"></path><path d="M0,64.05h569.5851893095769v18.900000000000002h-569.5851893095769Z" style="fill: rgb(71, 181, 194);"></path><path d="M0,64.05h600v18.900000000000002h-600Z" style="fill: rgb(96, 193, 191);"></path><path d="M0,43.05h366.14699331848556v18.900000000000002h-366.14699331848556Z" style="fill: rgb(109, 198, 190);"></path><path d="M0,1.0499999999999972h488.0846325167038v18.900000000000002h-488.0846325167038Z" style="fill: rgb(205, 235, 180);"></path><path d="M0,85.05h335.3981069042316v18.900000000000002h-335.3981069042316Z" style="fill: rgb(43, 157, 192);"></path><path d="M0,43.05h467.69209354120267v18.900000000000002h-467.69209354120267Z" style="fill: rgb(92, 191, 192);"></path><path d="M0,85.05h40.40924276169265v18.900000000000002h-40.40924276169265Z" style="fill: rgb(32, 112, 176);"></path><path d="M0,85.05h477.728285077951v18.900000000000002h-477.728285077951Z" style="fill: rgb(136, 209, 186);"></path><path d="M0,43.05h579.6074610244989v18.900000000000002h-579.6074610244989Z" style="fill: rgb(35, 76, 159);"></path><path d="M0,85.05h223.81681514476617v18.900000000000002h-223.81681514476617Z" style="fill: rgb(109, 198, 190);"></path><path d="M0,22.049999999999997h376.5033407572383v18.900000000000002h-376.5033407572383Z" style="fill: rgb(187, 229, 181);"></path><path d="M0,22.049999999999997h40.40924276169265v18.900000000000002h-40.40924276169265Z" style="fill: rgb(201, 234, 180);"></path><path d="M0,85.05h213.46046770601336v18.900000000000002h-213.46046770601336Z" style="fill: rgb(62, 175, 194);"></path><path d="M0,1.0499999999999972h436.95712694877506v18.900000000000002h-436.95712694877506Z" style="fill: rgb(190, 229, 181);"></path><path d="M0,22.049999999999997h91.5228285077951v18.900000000000002h-91.5228285077951Z" style="fill: rgb(212, 238, 179);"></path><path d="M0,64.05h376.5033407572383v18.900000000000002h-376.5033407572383Z" style="fill: rgb(34, 134, 186);"></path><path d="M0,22.049999999999997h335.3981069042316v18.900000000000002h-335.3981069042316Z" style="fill: rgb(232, 246, 183);"></path><path d="M0,64.05h589.9638084632517v18.900000000000002h-589.9638084632517Z" style="fill: rgb(62, 175, 194);"></path><path d="M0,64.05h406.22216035634744v18.900000000000002h-406.22216035634744Z" style="fill: rgb(67, 178, 194);"></path><path d="M0,85.05h447.31347438752783v18.900000000000002h-447.31347438752783Z" style="fill: rgb(45, 158, 193);"></path><path d="M0,1.0499999999999972h589.9638084632517v18.900000000000002h-589.9638084632517Z" style="fill: rgb(201, 234, 180);"></path><path d="M0,85.05h111.91536748329621v18.900000000000002h-111.91536748329621Z" style="fill: rgb(41, 154, 192);"></path><path d="M0,64.05h244.20935412026725v18.900000000000002h-244.20935412026725Z" style="fill: rgb(37, 147, 190);"></path><path d="M0,22.049999999999997h0v18.900000000000002h0Z" style="fill: rgb(212, 238, 179);"></path><path d="M0,85.05h325.37583518930956v18.900000000000002h-325.37583518930956Z" style="fill: rgb(33, 106, 174);"></path><path d="M0,22.049999999999997h366.14699331848556v18.900000000000002h-366.14699331848556Z" style="fill: rgb(225, 243, 181);"></path><path d="M0,1.0499999999999972h20.0445434298441v18.900000000000002h-20.0445434298441Z" style="fill: rgb(224, 243, 180);"></path><path d="M0,22.049999999999997h304.663140311804v18.900000000000002h-304.663140311804Z" style="fill: rgb(201, 234, 180);"></path><path d="M0,85.05h274.26224944320717v18.900000000000002h-274.26224944320717Z" style="fill: rgb(33, 128, 183);"></path><path d="M0,22.049999999999997h315.01948775055683v18.900000000000002h-315.01948775055683Z" style="fill: rgb(226, 244, 181);"></path><path d="M0,22.049999999999997h111.91536748329621v18.900000000000002h-111.91536748329621Z" style="fill: rgb(240, 249, 190);"></path><path d="M0,43.05h335.3981069042316v18.900000000000002h-335.3981069042316Z" style="fill: rgb(136, 209, 186);"></path><path d="M0,64.05h436.95712694877506v18.900000000000002h-436.95712694877506Z" style="fill: rgb(46, 160, 193);"></path><path d="M0,43.05h600v18.900000000000002h-600Z" style="fill: rgb(80, 186, 193);"></path><path d="M0,85.05h294.64086859688194v18.900000000000002h-294.64086859688194Z" style="fill: rgb(43, 157, 192);"></path><path d="M0,1.0499999999999972h457.3357461024499v18.900000000000002h-457.3357461024499Z" style="fill: rgb(197, 232, 180);"></path><path d="M0,85.05h10.356347438752783v18.900000000000002h-10.356347438752783Z" style="fill: rgb(117, 201, 189);"></path><path d="M0,22.049999999999997h488.0846325167038v18.900000000000002h-488.0846325167038Z" style="fill: rgb(197, 232, 180);"></path><path d="M0,1.0499999999999972h60.787861915367486v18.900000000000002h-60.787861915367486Z" style="fill: rgb(219, 241, 180);"></path><path d="M0,22.049999999999997h122.27171492204899v18.900000000000002h-122.27171492204899Z" style="fill: rgb(203, 235, 180);"></path><path d="M0,1.0499999999999972h548.8724944320712v18.900000000000002h-548.8724944320712Z" style="fill: rgb(175, 224, 182);"></path><path d="M0,85.05h203.43819599109133v18.900000000000002h-203.43819599109133Z" style="fill: rgb(53, 168, 194);"></path><path d="M0,22.049999999999997h426.6007795100222v18.900000000000002h-426.6007795100222Z" style="fill: rgb(201, 234, 180);"></path><path d="M0,43.05h559.2288418708241v18.900000000000002h-559.2288418708241Z" style="fill: rgb(45, 158, 193);"></path><path d="M0,22.049999999999997h254.56570155902006v18.900000000000002h-254.56570155902006Z" style="fill: rgb(214, 239, 179);"></path><path d="M0,43.05h101.87917594654787v18.900000000000002h-101.87917594654787Z" style="fill: rgb(241, 250, 191);"></path><path d="M0,85.05h600v18.900000000000002h-600Z" style="fill: rgb(87, 189, 192);"></path><path d="M0,43.05h477.728285077951v18.900000000000002h-477.728285077951Z" style="fill: rgb(101, 195, 191);"></path><path d="M0,1.0499999999999972h111.91536748329621v18.900000000000002h-111.91536748329621Z" style="fill: rgb(221, 242, 180);"></path><path d="M0,43.05h396.1998886414254v18.900000000000002h-396.1998886414254Z" style="fill: rgb(128, 206, 187);"></path><path d="M0,22.049999999999997h528.4938752783964v18.900000000000002h-528.4938752783964Z" style="fill: rgb(180, 226, 182);"></path><path d="M0,1.0499999999999972h30.3869710467706v18.900000000000002h-30.3869710467706Z" style="fill: rgb(212, 238, 179);"></path><path d="M0,1.0499999999999972h284.28452115812917v18.900000000000002h-284.28452115812917Z" style="fill: rgb(221, 242, 180);"></path><path d="M0,85.05h416.5785077951002v18.900000000000002h-416.5785077951002Z" style="fill: rgb(33, 128, 183);"></path><path d="M0,85.05h91.5228285077951v18.900000000000002h-91.5228285077951Z" style="fill: rgb(40, 152, 191);"></path><path d="M0,1.0499999999999972h426.6007795100222v18.900000000000002h-426.6007795100222Z" style="fill: rgb(219, 241, 180);"></path><path d="M0,22.049999999999997h457.3357461024499v18.900000000000002h-457.3357461024499Z" style="fill: rgb(221, 242, 180);"></path><path d="M0,22.049999999999997h172.7032293986637v18.900000000000002h-172.7032293986637Z" style="fill: rgb(225, 243, 181);"></path><path d="M0,85.05h589.9638084632517v18.900000000000002h-589.9638084632517Z" style="fill: rgb(56, 170, 194);"></path><path d="M0,43.05h244.20935412026725v18.900000000000002h-244.20935412026725Z" style="fill: rgb(170, 222, 183);"></path><path d="M0,85.05h284.28452115812917v18.900000000000002h-284.28452115812917Z" style="fill: rgb(63, 176, 194);"></path><path d="M0,22.049999999999997h355.7906458797327v18.900000000000002h-355.7906458797327Z" style="fill: rgb(221, 242, 180);"></path><path d="M0,1.0499999999999972h132.62806236080178v18.900000000000002h-132.62806236080178Z" style="fill: rgb(224, 243, 180);"></path><path d="M0,43.05h304.663140311804v18.900000000000002h-304.663140311804Z" style="fill: rgb(92, 191, 192);"></path><path d="M0,1.0499999999999972h91.5228285077951v18.900000000000002h-91.5228285077951Z" style="fill: rgb(211, 238, 179);"></path><path d="M0,1.0499999999999972h569.5851893095769v18.900000000000002h-569.5851893095769Z" style="fill: rgb(136, 209, 186);"></path><path d="M0,1.0499999999999972h508.1291759465479v18.900000000000002h-508.1291759465479Z" style="fill: rgb(197, 232, 180);"></path><path d="M0,64.05h193.08184855233853v18.900000000000002h-193.08184855233853Z" style="fill: rgb(211, 238, 179);"></path><path d="M0,22.049999999999997h60.787861915367486v18.900000000000002h-60.787861915367486Z" style="fill: rgb(205, 235, 180);"></path><path d="M0,43.05h274.26224944320717v18.900000000000002h-274.26224944320717Z" style="fill: rgb(87, 189, 192);"></path><path d="M0,1.0499999999999972h579.6074610244989v18.900000000000002h-579.6074610244989Z" style="fill: rgb(94, 192, 192);"></path><path d="M0,85.05h101.87917594654787v18.900000000000002h-101.87917594654787Z" style="fill: rgb(107, 197, 190);"></path><path d="M0,43.05h528.4938752783964v18.900000000000002h-528.4938752783964Z" style="fill: rgb(37, 147, 190);"></path><path d="M0,22.049999999999997h569.5851893095769v18.900000000000002h-569.5851893095769Z" style="fill: rgb(156, 216, 184);"></path><path d="M0,43.05h223.81681514476617v18.900000000000002h-223.81681514476617Z" style="fill: rgb(219, 241, 180);"></path><path d="M0,64.05h233.85300668151447v18.900000000000002h-233.85300668151447Z" style="fill: rgb(96, 193, 191);"></path><path d="M0,1.0499999999999972h559.2288418708241v18.900000000000002h-559.2288418708241Z" style="fill: rgb(185, 228, 181);"></path><path d="M0,1.0499999999999972h294.64086859688194v18.900000000000002h-294.64086859688194Z" style="fill: rgb(216, 240, 179);"></path><path d="M0,64.05h488.0846325167038v18.900000000000002h-488.0846325167038Z" style="fill: rgb(41, 154, 192);"></path><path d="M0,43.05h498.44097995545656v18.900000000000002h-498.44097995545656Z" style="fill: rgb(42, 155, 192);"></path><path d="M0,85.05h71.14420935412026v18.900000000000002h-71.14420935412026Z" style="fill: rgb(42, 155, 192);"></path><path d="M0,22.049999999999997h30.3869710467706v18.900000000000002h-30.3869710467706Z" style="fill: rgb(225, 243, 181);"></path><path d="M0,43.05h213.46046770601336v18.900000000000002h-213.46046770601336Z" style="fill: rgb(207, 236, 180);"></path><path d="M0,1.0499999999999972h396.1998886414254v18.900000000000002h-396.1998886414254Z" style="fill: rgb(216, 240, 179);"></path><path d="M0,22.049999999999997h152.3246102449889v18.900000000000002h-152.3246102449889Z" style="fill: rgb(217, 240, 180);"></path><path d="M0,22.049999999999997h81.50055679287306v18.900000000000002h-81.50055679287306Z" style="fill: rgb(228, 244, 181);"></path><path d="M0,1.0499999999999972h366.14699331848556v18.900000000000002h-366.14699331848556Z" style="fill: rgb(219, 241, 180);"></path><path d="M0,64.05h335.3981069042316v18.900000000000002h-335.3981069042316Z" style="fill: rgb(87, 189, 192);"></path><path d="M0,43.05h457.3357461024499v18.900000000000002h-457.3357461024499Z" style="fill: rgb(117, 201, 189);"></path><path d="M0,43.05h589.9638084632517v18.900000000000002h-589.9638084632517Z" style="fill: rgb(47, 162, 193);"></path><path d="M0,22.049999999999997h294.64086859688194v18.900000000000002h-294.64086859688194Z" style="fill: rgb(232, 246, 183);"></path><path d="M0,43.05h193.08184855233853v18.900000000000002h-193.08184855233853Z" style="fill: rgb(229, 245, 182);"></path><path d="M0,1.0499999999999972h447.31347438752783v18.900000000000002h-447.31347438752783Z" style="fill: rgb(217, 240, 180);"></path><path d="M0,85.05h467.69209354120267v18.900000000000002h-467.69209354120267Z" style="fill: rgb(67, 178, 194);"></path><path d="M0,85.05h518.4716035634744v18.900000000000002h-518.4716035634744Z" style="fill: rgb(60, 173, 194);"></path><path d="M0,43.05h518.4716035634744v18.900000000000002h-518.4716035634744Z" style="fill: rgb(76, 183, 193);"></path><path d="M0,43.05h569.5851893095769v18.900000000000002h-569.5851893095769Z" style="fill: rgb(45, 158, 193);"></path><path d="M0,22.049999999999997h396.1998886414254v18.900000000000002h-396.1998886414254Z" style="fill: rgb(207, 236, 180);"></path><path d="M0,1.0499999999999972h213.46046770601336v18.900000000000002h-213.46046770601336Z" style="fill: rgb(224, 243, 180);"></path><path d="M0,22.049999999999997h162.34688195991092v18.900000000000002h-162.34688195991092Z" style="fill: rgb(229, 245, 182);"></path><path d="M0,22.049999999999997h508.1291759465479v18.900000000000002h-508.1291759465479Z" style="fill: rgb(187, 229, 181);"></path><path d="M0,64.05h447.31347438752783v18.900000000000002h-447.31347438752783Z" style="fill: rgb(92, 191, 192);"></path><path d="M0,43.05h538.8502227171492v18.900000000000002h-538.8502227171492Z" style="fill: rgb(36, 143, 189);"></path><path d="M0,1.0499999999999972h172.7032293986637v18.900000000000002h-172.7032293986637Z" style="fill: rgb(233, 246, 184);"></path><path d="M0,43.05h132.62806236080178v18.900000000000002h-132.62806236080178Z" style="fill: rgb(221, 242, 180);"></path><path d="M0,64.05h325.37583518930956v18.900000000000002h-325.37583518930956Z" style="fill: rgb(63, 176, 194);"></path><path d="M0,43.05h91.5228285077951v18.900000000000002h-91.5228285077951Z" style="fill: rgb(249, 253, 204);"></path><path d="M0,43.05h385.8574610244989v18.900000000000002h-385.8574610244989Z" style="fill: rgb(56, 170, 194);"></path><path d="M0,64.05h416.5785077951002v18.900000000000002h-416.5785077951002Z" style="fill: rgb(63, 176, 194);"></path><path d="M0,1.0499999999999972h325.37583518930956v18.900000000000002h-325.37583518930956Z" style="fill: rgb(203, 235, 180);"></path><path d="M0,43.05h284.28452115812917v18.900000000000002h-284.28452115812917Z" style="fill: rgb(161, 218, 184);"></path><path d="M0,1.0499999999999972h385.8574610244989v18.900000000000002h-385.8574610244989Z" style="fill: rgb(217, 240, 180);"></path><path d="M0,43.05h203.43819599109133v18.900000000000002h-203.43819599109133Z" style="fill: rgb(178, 225, 182);"></path><path d="M0,22.049999999999997h467.69209354120267v18.900000000000002h-467.69209354120267Z" style="fill: rgb(219, 241, 180);"></path><path d="M0,64.05h284.28452115812917v18.900000000000002h-284.28452115812917Z" style="fill: rgb(82, 187, 193);"></path><path d="M0,22.049999999999997h50.76559020044544v18.900000000000002h-50.76559020044544Z" style="fill: rgb(203, 235, 180);"></path><path d="M0,1.0499999999999972h518.4716035634744v18.900000000000002h-518.4716035634744Z" style="fill: rgb(229, 245, 182);"></path><path d="M0,22.049999999999997h141.98218262806236v18.900000000000002h-141.98218262806236Z" style="fill: rgb(224, 243, 180);"></path><path d="M0,22.049999999999997h193.08184855233853v18.900000000000002h-193.08184855233853Z" style="fill: rgb(230, 245, 182);"></path><path d="M0,22.049999999999997h579.6074610244989v18.900000000000002h-579.6074610244989Z" style="fill: rgb(164, 219, 183);"></path><path d="M0,22.049999999999997h71.14420935412026v18.900000000000002h-71.14420935412026Z" style="fill: rgb(224, 243, 180);"></path><path d="M0,1.0499999999999972h40.40924276169265v18.900000000000002h-40.40924276169265Z" style="fill: rgb(185, 228, 181);"></path><path d="M0,43.05h376.5033407572383v18.900000000000002h-376.5033407572383Z" style="fill: rgb(145, 212, 185);"></path><path d="M0,64.05h467.69209354120267v18.900000000000002h-467.69209354120267Z" style="fill: rgb(92, 191, 192);"></path><path d="M0,1.0499999999999972h416.5785077951002v18.900000000000002h-416.5785077951002Z" style="fill: rgb(201, 234, 180);"></path><path d="M0,1.0499999999999972h254.56570155902006v18.900000000000002h-254.56570155902006Z" style="fill: rgb(214, 239, 179);"></path><path d="M0,85.05h244.20935412026725v18.900000000000002h-244.20935412026725Z" style="fill: rgb(56, 170, 194);"></path><path d="M0,22.049999999999997h345.75445434298445v18.900000000000002h-345.75445434298445Z" style="fill: rgb(225, 243, 181);"></path><path d="M0,43.05h294.64086859688194v18.900000000000002h-294.64086859688194Z" style="fill: rgb(89, 190, 192);"></path><path d="M0,43.05h152.3246102449889v18.900000000000002h-152.3246102449889Z" style="fill: rgb(228, 244, 181);"></path><path d="M0,43.05h141.98218262806236v18.900000000000002h-141.98218262806236Z" style="fill: rgb(219, 241, 180);"></path><path d="M0,85.05h50.76559020044544v18.900000000000002h-50.76559020044544Z" style="fill: rgb(65, 177, 194);"></path><path d="M0,1.0499999999999972h122.27171492204899v18.900000000000002h-122.27171492204899Z" style="fill: rgb(224, 243, 180);"></path><path d="M0,1.0499999999999972h335.3981069042316v18.900000000000002h-335.3981069042316Z" style="fill: rgb(207, 236, 180);"></path><path d="M0,1.0499999999999972h10.356347438752783v18.900000000000002h-10.356347438752783Z" style="fill: rgb(255, 255, 217);"></path><path d="M0,1.0499999999999972h223.81681514476617v18.900000000000002h-223.81681514476617Z" style="fill: rgb(230, 245, 182);"></path><path d="M0,64.05h498.44097995545656v18.900000000000002h-498.44097995545656Z" style="fill: rgb(94, 192, 192);"></path><path d="M0,64.05h538.8502227171492v18.900000000000002h-538.8502227171492Z" style="fill: rgb(39, 150, 191);"></path><path d="M0,22.049999999999997h244.20935412026725v18.900000000000002h-244.20935412026725Z" style="fill: rgb(211, 238, 179);"></path><path d="M0,1.0499999999999972h233.85300668151447v18.900000000000002h-233.85300668151447Z" style="fill: rgb(228, 244, 181);"></path><path d="M0,1.0499999999999972h244.20935412026725v18.900000000000002h-244.20935412026725Z" style="fill: rgb(201, 234, 180);"></path><path d="M0,1.0499999999999972h528.4938752783964v18.900000000000002h-528.4938752783964Z" style="fill: rgb(170, 222, 183);"></path><path d="M0,1.0499999999999972h152.3246102449889v18.900000000000002h-152.3246102449889Z" style="fill: rgb(226, 244, 181);"></path><path d="M0,43.05h182.72550111358575v18.900000000000002h-182.72550111358575Z" style="fill: rgb(225, 243, 181);"></path><path d="M0,22.049999999999997h600v18.900000000000002h-600Z" style="fill: rgb(194, 231, 181);"></path><path d="M0,43.05h233.85300668151447v18.900000000000002h-233.85300668151447Z" style="fill: rgb(207, 236, 180);"></path><path d="M0,22.049999999999997h325.37583518930956v18.900000000000002h-325.37583518930956Z" style="fill: rgb(222, 242, 180);"></path><path d="M0,64.05h203.43819599109133v18.900000000000002h-203.43819599109133Z" style="fill: rgb(153, 215, 185);"></path><path d="M0,85.05h233.85300668151447v18.900000000000002h-233.85300668151447Z" style="fill: rgb(65, 177, 194);"></path><path d="M0,64.05h508.1291759465479v18.900000000000002h-508.1291759465479Z" style="fill: rgb(49, 163, 193);"></path><path d="M0,1.0499999999999972h101.87917594654787v18.900000000000002h-101.87917594654787Z" style="fill: rgb(235, 247, 185);"></path><path d="M0,22.049999999999997h385.8574610244989v18.900000000000002h-385.8574610244989Z" style="fill: rgb(211, 238, 179);"></path><path d="M0,1.0499999999999972h193.08184855233853v18.900000000000002h-193.08184855233853Z" style="fill: rgb(238, 248, 188);"></path><path d="M0,43.05h111.91536748329621v18.900000000000002h-111.91536748329621Z" style="fill: rgb(239, 249, 189);"></path><path d="M0,1.0499999999999972h376.5033407572383v18.900000000000002h-376.5033407572383Z" style="fill: rgb(230, 245, 182);"></path><path d="M0,1.0499999999999972h304.663140311804v18.900000000000002h-304.663140311804Z" style="fill: rgb(221, 242, 180);"></path><path d="M0,22.049999999999997h223.81681514476617v18.900000000000002h-223.81681514476617Z" style="fill: rgb(228, 244, 181);"></path><path d="M0,1.0499999999999972h71.14420935412026v18.900000000000002h-71.14420935412026Z" style="fill: rgb(232, 246, 183);"></path><path d="M0,1.0499999999999972h81.50055679287306v18.900000000000002h-81.50055679287306Z" style="fill: rgb(219, 241, 180);"></path><path d="M0,22.049999999999997h132.62806236080178v18.900000000000002h-132.62806236080178Z" style="fill: rgb(226, 244, 181);"></path><path d="M0,22.049999999999997h213.46046770601336v18.900000000000002h-213.46046770601336Z" style="fill: rgb(224, 243, 180);"></path><path d="M0,1.0499999999999972h274.26224944320717v18.900000000000002h-274.26224944320717Z" style="fill: rgb(229, 245, 182);"></path><path d="M0,22.049999999999997h416.5785077951002v18.900000000000002h-416.5785077951002Z" style="fill: rgb(212, 238, 179);"></path><path d="M0,22.049999999999997h182.72550111358575v18.900000000000002h-182.72550111358575Z" style="fill: rgb(224, 243, 180);"></path><path d="M0,1.0499999999999972h141.98218262806236v18.900000000000002h-141.98218262806236Z" style="fill: rgb(216, 240, 179);"></path><path d="M0,43.05h122.27171492204899v18.900000000000002h-122.27171492204899Z" style="fill: rgb(212, 238, 179);"></path><path d="M0,1.0499999999999972h355.7906458797327v18.900000000000002h-355.7906458797327Z" style="fill: rgb(230, 245, 182);"></path><path d="M0,1.0499999999999972h162.34688195991092v18.900000000000002h-162.34688195991092Z" style="fill: rgb(242, 250, 193);"></path></g><g class="mark-group role-legend"><g transform="translate(618,0)"><path class="background" d="M0,0h120v49h-120Z" style="pointer-events: none; fill: none;"></path><g><g class="mark-group role-legend-entry"><g transform="translate(0,16)"><path class="background" d="M0,0h0v0h0Z" style="pointer-events: none; fill: none;"></path><g><g class="mark-rect role-legend-gradient" style="pointer-events: none;"><path d="M0,0h100v20h-100Z" style="fill: url(#gradient_0); stroke: #ddd; stroke-width: 0; opacity: 1;"></path></g><g class="mark-text role-legend-label" style="pointer-events: none;"><text text-anchor="start" transform="translate(0,30)" style="font: 10px sans-serif; fill: #000; opacity: 1;">4</text><text text-anchor="end" transform="translate(100,30)" style="font: 10px sans-serif; fill: #000; opacity: 1;">198</text></g></g></g></g><g class="mark-text role-legend-title" style="pointer-events: none;"><text text-anchor="start" transform="translate(0,9)" style="font: bold 11px sans-serif; fill: #000; opacity: 1;">Number of Records</text></g></g></g></g><g class="mark-group role-axis"><g transform="translate(0.5,105.5)"><path class="background" d="M0,0h0v0h0Z" style="pointer-events: none; fill: none;"></path><g><g class="mark-rule role-axis-tick" style="pointer-events: none;"><line transform="translate(0,0)" x2="0" y2="5" style="fill: none; stroke: #888; stroke-width: 1; opacity: 1;"></line><line transform="translate(30,0)" x2="0" y2="5" style="fill: none; stroke: #888; stroke-width: 1; opacity: 1;"></line><line transform="translate(61,0)" x2="0" y2="5" style="fill: none; stroke: #888; stroke-width: 1; opacity: 1;"></line><line transform="translate(92,0)" x2="0" y2="5" style="fill: none; stroke: #888; stroke-width: 1; opacity: 1;"></line><line transform="translate(122,0)" x2="0" y2="5" style="fill: none; stroke: #888; stroke-width: 1; opacity: 1;"></line><line transform="translate(152,0)" x2="0" y2="5" style="fill: none; stroke: #888; stroke-width: 1; opacity: 1;"></line><line transform="translate(183,0)" x2="0" y2="5" style="fill: none; stroke: #888; stroke-width: 1; opacity: 1;"></line><line transform="translate(213,0)" x2="0" y2="5" style="fill: none; stroke: #888; stroke-width: 1; opacity: 1;"></line><line transform="translate(244,0)" x2="0" y2="5" style="fill: none; stroke: #888; stroke-width: 1; opacity: 1;"></line><line transform="translate(274,0)" x2="0" y2="5" style="fill: none; stroke: #888; stroke-width: 1; opacity: 1;"></line><line transform="translate(305,0)" x2="0" y2="5" style="fill: none; stroke: #888; stroke-width: 1; opacity: 1;"></line><line transform="translate(335,0)" x2="0" y2="5" style="fill: none; stroke: #888; stroke-width: 1; opacity: 1;"></line><line transform="translate(366,0)" x2="0" y2="5" style="fill: none; stroke: #888; stroke-width: 1; opacity: 1;"></line><line transform="translate(396,0)" x2="0" y2="5" style="fill: none; stroke: #888; stroke-width: 1; opacity: 1;"></line><line transform="translate(427,0)" x2="0" y2="5" style="fill: none; stroke: #888; stroke-width: 1; opacity: 1;"></line><line transform="translate(457,0)" x2="0" y2="5" style="fill: none; stroke: #888; stroke-width: 1; opacity: 1;"></line><line transform="translate(488,0)" x2="0" y2="5" style="fill: none; stroke: #888; stroke-width: 1; opacity: 1;"></line><line transform="translate(518,0)" x2="0" y2="5" style="fill: none; stroke: #888; stroke-width: 1; opacity: 1;"></line><line transform="translate(549,0)" x2="0" y2="5" style="fill: none; stroke: #888; stroke-width: 1; opacity: 1;"></line><line transform="translate(580,0)" x2="0" y2="5" style="fill: none; stroke: #888; stroke-width: 1; opacity: 1;"></line></g><g class="mark-text role-axis-label" style="pointer-events: none;"><text text-anchor="start" transform="translate(0,15)" style="font: 10px sans-serif; fill: #000; opacity: 1;">Jan 2012</text><text text-anchor="middle" transform="translate(30.3869710467706,15)" style="font: 10px sans-serif; fill: #000; opacity: 0;">Apr 2012</text><text text-anchor="middle" transform="translate(60.787861915367486,15)" style="font: 10px sans-serif; fill: #000; opacity: 0;">Jul 2012</text><text text-anchor="middle" transform="translate(91.5228285077951,15)" style="font: 10px sans-serif; fill: #000; opacity: 0;">Oct 2012</text><text text-anchor="middle" transform="translate(122.27171492204899,15)" style="font: 10px sans-serif; fill: #000; opacity: 1;">Jan 2013</text><text text-anchor="middle" transform="translate(152.3246102449889,15)" style="font: 10px sans-serif; fill: #000; opacity: 0;">Apr 2013</text><text text-anchor="middle" transform="translate(182.72550111358575,15)" style="font: 10px sans-serif; fill: #000; opacity: 0;">Jul 2013</text><text text-anchor="middle" transform="translate(213.46046770601336,15)" style="font: 10px sans-serif; fill: #000; opacity: 0;">Oct 2013</text><text text-anchor="middle" transform="translate(244.20935412026725,15)" style="font: 10px sans-serif; fill: #000; opacity: 1;">Jan 2014</text><text text-anchor="middle" transform="translate(274.26224944320717,15)" style="font: 10px sans-serif; fill: #000; opacity: 0;">Apr 2014</text><text text-anchor="middle" transform="translate(304.663140311804,15)" style="font: 10px sans-serif; fill: #000; opacity: 0;">Jul 2014</text><text text-anchor="middle" transform="translate(335.3981069042316,15)" style="font: 10px sans-serif; fill: #000; opacity: 0;">Oct 2014</text><text text-anchor="middle" transform="translate(366.14699331848556,15)" style="font: 10px sans-serif; fill: #000; opacity: 1;">Jan 2015</text><text text-anchor="middle" transform="translate(396.1998886414254,15)" style="font: 10px sans-serif; fill: #000; opacity: 0;">Apr 2015</text><text text-anchor="middle" transform="translate(426.6007795100222,15)" style="font: 10px sans-serif; fill: #000; opacity: 0;">Jul 2015</text><text text-anchor="middle" transform="translate(457.3357461024499,15)" style="font: 10px sans-serif; fill: #000; opacity: 0;">Oct 2015</text><text text-anchor="middle" transform="translate(488.0846325167038,15)" style="font: 10px sans-serif; fill: #000; opacity: 1;">Jan 2016</text><text text-anchor="middle" transform="translate(518.4716035634744,15)" style="font: 10px sans-serif; fill: #000; opacity: 0;">Apr 2016</text><text text-anchor="middle" transform="translate(548.8724944320712,15)" style="font: 10px sans-serif; fill: #000; opacity: 0;">Jul 2016</text><text text-anchor="middle" transform="translate(579.6074610244989,15)" style="font: 10px sans-serif; fill: #000; opacity: 0;">Oct 2016</text></g><g class="mark-rule role-axis-domain" style="pointer-events: none;"><line transform="translate(0,0)" x2="600" y2="0" style="fill: none; stroke: #888; stroke-width: 1; opacity: 1;"></line></g><g class="mark-text role-axis-title" style="pointer-events: none;"><text text-anchor="middle" transform="translate(300,31)" style="font: bold 11px sans-serif; fill: #000; opacity: 1;">Date received (year-month)</text></g></g></g></g><g class="mark-group role-axis"><g transform="translate(0.5,0.5)"><path class="background" d="M0,0h0v0h0Z" style="pointer-events: none; fill: none;"></path><g><g class="mark-rule role-axis-tick" style="pointer-events: none;"><line transform="translate(0,9)" x2="-5" y2="0" style="fill: none; stroke: #888; stroke-width: 1; opacity: 1;"></line><line transform="translate(0,31)" x2="-5" y2="0" style="fill: none; stroke: #888; stroke-width: 1; opacity: 1;"></line><line transform="translate(0,52)" x2="-5" y2="0" style="fill: none; stroke: #888; stroke-width: 1; opacity: 1;"></line><line transform="translate(0,73)" x2="-5" y2="0" style="fill: none; stroke: #888; stroke-width: 1; opacity: 1;"></line><line transform="translate(0,94)" x2="-5" y2="0" style="fill: none; stroke: #888; stroke-width: 1; opacity: 1;"></line></g><g class="mark-text role-axis-label" style="pointer-events: none;"><text text-anchor="end" transform="translate(-7,12.499999999999998)" style="font: 10px sans-serif; fill: #000; opacity: 1;">Bank account or service</text><text text-anchor="end" transform="translate(-7,33.5)" style="font: 10px sans-serif; fill: #000; opacity: 1;">Credit card</text><text text-anchor="end" transform="translate(-7,54.5)" style="font: 10px sans-serif; fill: #000; opacity: 1;">Credit reporting</text><text text-anchor="end" transform="translate(-7,75.5)" style="font: 10px sans-serif; fill: #000; opacity: 1;">Debt collection</text><text text-anchor="end" transform="translate(-7,96.5)" style="font: 10px sans-serif; fill: #000; opacity: 1;">Mortgage</text></g><g class="mark-rule role-axis-domain" style="pointer-events: none;"><line transform="translate(0,0)" x2="0" y2="105" style="fill: none; stroke: #888; stroke-width: 1; opacity: 1;"></line></g><g class="mark-text role-axis-title" style="pointer-events: none;"><text text-anchor="middle" transform="translate(-132,52.5) rotate(-90) translate(0,-2)" style="font: bold 11px sans-serif; fill: #000; opacity: 1;">Product</text></g></g></g></g></g></g></g></g></svg>