<svg class="marks" width="356" height="245" viewBox="0 0 356 245" version="1.1" xmlns="http://www.w3.org/2000/svg" xmlns:xlink="http://www.w3.org/1999/xlink"><rect width="356" height="245" style="fill: #ffffff;"></rect><g transform="translate(57,5)"><g class="mark-group role-frame root"><g transform="translate(0,0)"><path class="background" d="M0.5,0.5h200v200h-200Z" style="fill-opacity: 0; stroke: #ddd;"></path><g><g class="mark-group role-axis"><g transform="translate(0.5,200.5)"><path class="background" d="M0,0h0v0h0Z" style="pointer-events: none; fill: none;"></path><g><g class="mark-rule role-axis-grid" style="pointer-events: none;"><line transform="translate(0,-200)" x2="0" y2="200" style="fill: none; stroke: #ddd; stroke-width: 1; stroke-dasharray: ; opacity: 1;"></line><line transform="translate(40,-200)" x2="0" y2="200" style="fill: none; stroke: #ddd; stroke-width: 1; stroke-dasharray: ; opacity: 1;"></line><line transform="translate(80,-200)" x2="0" y2="200" style="fill: none; stroke: #ddd; stroke-width: 1; stroke-dasharray: ; opacity: 1;"></line><line transform="translate(120,-200)" x2="0" y2="200" style="fill: none; stroke: #ddd; stroke-width: 1; stroke-dasharray: ; opacity: 1;"></line><line transform="translate(160,-200)" x2="0" y2="200" style="fill: none; stroke: #ddd; stroke-width: 1; stroke-dasharray: ; opacity: 1;"></line><line transform="translate(200,-200)" x2="0" y2="200" style="fill: none; stroke: #ddd; stroke-width: 1; stroke-dasharray: ; opacity: 1;"></line></g></g></g></g><g class="mark-group role-axis"><g transform="translate(0.5,0.5)"><path class="background" d="M0,0h0v0h0Z" style="pointer-events: none; fill: none;"></path><g><g class="mark-rule role-axis-grid" style="pointer-events: none;"><line transform="translate(0,200)" x2="200" y2="0" style="fill: none; stroke: #ddd; stroke-width: 1; stroke-dasharray: ; opacity: 1;"></line><line transform="translate(0,156)" x2="200" y2="0" style="fill: none; stroke: #ddd; stroke-width: 1; stroke-dasharray: ; opacity: 1;"></line><line transform="translate(0,111)" x2="200" y2="0" style="fill: none; stroke: #ddd; stroke-width: 1; stroke-dasharray: ; opacity: 1;"></line><line transform="translate(0,67)" x2="200" y2="0" style="fill: none; stroke: #ddd; stroke-width: 1; stroke-dasharray: ; opacity: 1;"></line><line transform="translate(0,22)" x2="200" y2="0" style="fill: none; stroke: #ddd; stroke-width: 1; stroke-dasharray: ; opacity: 1;"></line></g></g></g></g><g class="mark-symbol role-mark marks"><path transform="translate(84,86.75555555555556)" d="M2.7386127875258306,0A2.7386127875258306,2.7386127875258306,0,1,1,-2.7386127875258306,0A2.7386127875258306,2.7386127875258306,0,1,1,2.7386127875258306,0" style="fill-opacity: 0; stroke: #4c78a8; stroke-width: 2; opacity: 0.7;"></path><path transform="translate(84,86.75555555555556)" d="M2.7386127875258306,0A2.7386127875258306,2.7386127875258306,0,1,1,-2.7386127875258306,0A2.7386127875258306,2.7386127875258306,0,1,1,2.7386127875258306,0" style="fill-opacity: 0; stroke: #4c78a8; stroke-width: 2; opacity: 0.7;"></path><path transform="translate(76,74.53333333333335)" d="M2.7386127875258306,0A2.7386127875258306,2.7386127875258306,0,1,1,-2.7386127875258306,0A2.7386127875258306,2.7386127875258306,0,1,1,2.7386127875258306,0" style="fill-opacity: 0; stroke: #e45756; stroke-width: 2; opacity: 0.7;"></path><path transform="translate(96,96.13333333333334)" d="M2.7386127875258306,0A2.7386127875258306,2.7386127875258306,0,1,1,-2.7386127875258306,0A2.7386127875258306,2.7386127875258306,0,1,1,2.7386127875258306,0" style="fill-opacity: 0; stroke: #72b7b2; stroke-width: 2; opacity: 0.7;"></path><path transform="translate(72,74.4888888888889)" d="M2.7386127875258306,0A2.7386127875258306,2.7386127875258306,0,1,1,-2.7386127875258306,0A2.7386127875258306,2.7386127875258306,0,1,1,2.7386127875258306,0" style="fill-opacity: 0; stroke: #72b7b2; stroke-width: 2; opacity: 0.7;"></path><path transform="translate(76,88.57777777777778)" d="M2.7386127875258306,0A2.7386127875258306,2.7386127875258306,0,1,1,-2.7386127875258306,0A2.7386127875258306,2.7386127875258306,0,1,1,2.7386127875258306,0" style="fill-opacity: 0; stroke: #72b7b2; stroke-width: 2; opacity: 0.7;"></path><path transform="translate(76,73.6)" d="M2.7386127875258306,0A2.7386127875258306,2.7386127875258306,0,1,1,-2.7386127875258306,0A2.7386127875258306,2.7386127875258306,0,1,1,2.7386127875258306,0" style="fill-opacity: 0; stroke: #72b7b2; stroke-width: 2; opacity: 0.7;"></path><path transform="translate(76,68.71111111111111)" d="M2.7386127875258306,0A2.7386127875258306,2.7386127875258306,0,1,1,-2.7386127875258306,0A2.7386127875258306,2.7386127875258306,0,1,1,2.7386127875258306,0" style="fill-opacity: 0; stroke: #54a24b; stroke-width: 2; opacity: 0.7;"></path><path transform="translate(68,62.844444444444434)" d="M2.7386127875258306,0A2.7386127875258306,2.7386127875258306,0,1,1,-2.7386127875258306,0A2.7386127875258306,2.7386127875258306,0,1,1,2.7386127875258306,0" style="fill-opacity: 0; stroke: #72b7b2; stroke-width: 2; opacity: 0.7;"></path><path transform="translate(64,64.31111111111113)" d="M2.7386127875258306,0A2.7386127875258306,2.7386127875258306,0,1,1,-2.7386127875258306,0A2.7386127875258306,2.7386127875258306,0,1,1,2.7386127875258306,0" style="fill-opacity: 0; stroke: #e45756; stroke-width: 2; opacity: 0.7;"></path><path transform="translate(92,93.55555555555554)" d="M2.7386127875258306,0A2.7386127875258306,2.7386127875258306,0,1,1,-2.7386127875258306,0A2.7386127875258306,2.7386127875258306,0,1,1,2.7386127875258306,0" style="fill-opacity: 0; stroke: #72b7b2; stroke-width: 2; opacity: 0.7;"></path><path transform="translate(92,93.55555555555554)" d="M2.7386127875258306,0A2.7386127875258306,2.7386127875258306,0,1,1,-2.7386127875258306,0A2.7386127875258306,2.7386127875258306,0,1,1,2.7386127875258306,0" style="fill-opacity: 0; stroke: #72b7b2; stroke-width: 2; opacity: 0.7;"></path><path transform="translate(84,79.55555555555556)" d="M2.7386127875258306,0A2.7386127875258306,2.7386127875258306,0,1,1,-2.7386127875258306,0A2.7386127875258306,2.7386127875258306,0,1,1,2.7386127875258306,0" style="fill-opacity: 0; stroke: #72b7b2; stroke-width: 2; opacity: 0.7;"></path><path transform="translate(84,77.11111111111111)" d="M2.7386127875258306,0A2.7386127875258306,2.7386127875258306,0,1,1,-2.7386127875258306,0A2.7386127875258306,2.7386127875258306,0,1,1,2.7386127875258306,0" style="fill-opacity: 0; stroke: #72b7b2; stroke-width: 2; opacity: 0.7;"></path><path transform="translate(80,64.22222222222223)" d="M2.7386127875258306,0A2.7386127875258306,2.7386127875258306,0,1,1,-2.7386127875258306,0A2.7386127875258306,2.7386127875258306,0,1,1,2.7386127875258306,0" style="fill-opacity: 0; stroke: #72b7b2; stroke-width: 2; opacity: 0.7;"></path><path transform="translate(64,56.44444444444446)" d="M2.7386127875258306,0A2.7386127875258306,2.7386127875258306,0,1,1,-2.7386127875258306,0A2.7386127875258306,2.7386127875258306,0,1,1,2.7386127875258306,0" style="fill-opacity: 0; stroke: #72b7b2; stroke-width: 2; opacity: 0.7;"></path><path transform="translate(64,49.7777777777778)" d="M2.7386127875258306,0A2.7386127875258306,2.7386127875258306,0,1,1,-2.7386127875258306,0A2.7386127875258306,2.7386127875258306,0,1,1,2.7386127875258306,0" style="fill-opacity: 0; stroke: #72b7b2; stroke-width: 2; opacity: 0.7;"></path><path transform="translate(60,44.22222222222223)" d="M2.7386127875258306,0A2.7386127875258306,2.7386127875258306,0,1,1,-2.7386127875258306,0A2.7386127875258306,2.7386127875258306,0,1,1,2.7386127875258306,0" style="fill-opacity: 0; stroke: #72b7b2; stroke-width: 2; opacity: 0.7;"></path><path transform="translate(188,133.86666666666667)" d="M2.7386127875258306,0A2.7386127875258306,2.7386127875258306,0,1,1,-2.7386127875258306,0A2.7386127875258306,2.7386127875258306,0,1,1,2.7386127875258306,0" style="fill-opacity: 0; stroke: #e45756; stroke-width: 2; opacity: 0.7;"></path><path transform="translate(152,116.71111111111111)" d="M2.7386127875258306,0A2.7386127875258306,2.7386127875258306,0,1,1,-2.7386127875258306,0A2.7386127875258306,2.7386127875258306,0,1,1,2.7386127875258306,0" style="fill-opacity: 0; stroke: #e45756; stroke-width: 2; opacity: 0.7;"></path><path transform="translate(152,115.15555555555555)" d="M2.7386127875258306,0A2.7386127875258306,2.7386127875258306,0,1,1,-2.7386127875258306,0A2.7386127875258306,2.7386127875258306,0,1,1,2.7386127875258306,0" style="fill-opacity: 0; stroke: #72b7b2; stroke-width: 2; opacity: 0.7;"></path><path transform="translate(148,116.62222222222223)" d="M2.7386127875258306,0A2.7386127875258306,2.7386127875258306,0,1,1,-2.7386127875258306,0A2.7386127875258306,2.7386127875258306,0,1,1,2.7386127875258306,0" style="fill-opacity: 0; stroke: #e45756; stroke-width: 2; opacity: 0.7;"></path><path transform="translate(124,116.62222222222223)" d="M2.7386127875258306,0A2.7386127875258306,2.7386127875258306,0,1,1,-2.7386127875258306,0A2.7386127875258306,2.7386127875258306,0,1,1,2.7386127875258306,0" style="fill-opacity: 0; stroke: #e45756; stroke-width: 2; opacity: 0.7;"></path><path transform="translate(96,105.42222222222222)" d="M2.7386127875258306,0A2.7386127875258306,2.7386127875258306,0,1,1,-2.7386127875258306,0A2.7386127875258306,2.7386127875258306,0,1,1,2.7386127875258306,0" style="fill-opacity: 0; stroke: #e45756; stroke-width: 2; opacity: 0.7;"></path><path transform="translate(124,112.57777777777778)" d="M2.7386127875258306,0A2.7386127875258306,2.7386127875258306,0,1,1,-2.7386127875258306,0A2.7386127875258306,2.7386127875258306,0,1,1,2.7386127875258306,0" style="fill-opacity: 0; stroke: #e45756; stroke-width: 2; opacity: 0.7;"></path><path transform="translate(124,111.6)" d="M2.7386127875258306,0A2.7386127875258306,2.7386127875258306,0,1,1,-2.7386127875258306,0A2.7386127875258306,2.7386127875258306,0,1,1,2.7386127875258306,0" style="fill-opacity: 0; stroke: #72b7b2; stroke-width: 2; opacity: 0.7;"></path><path transform="translate(124,111.6)" d="M2.7386127875258306,0A2.7386127875258306,2.7386127875258306,0,1,1,-2.7386127875258306,0A2.7386127875258306,2.7386127875258306,0,1,1,2.7386127875258306,0" style="fill-opacity: 0; stroke: #72b7b2; stroke-width: 2; opacity: 0.7;"></path><path transform="translate(96,102.62222222222222)" d="M2.7386127875258306,0A2.7386127875258306,2.7386127875258306,0,1,1,-2.7386127875258306,0A2.7386127875258306,2.7386127875258306,0,1,1,2.7386127875258306,0" style="fill-opacity: 0; stroke: #72b7b2; stroke-width: 2; opacity: 0.7;"></path><path transform="translate(96,87.33333333333333)" d="M2.7386127875258306,0A2.7386127875258306,2.7386127875258306,0,1,1,-2.7386127875258306,0A2.7386127875258306,2.7386127875258306,0,1,1,2.7386127875258306,0" style="fill-opacity: 0; stroke: #54a24b; stroke-width: 2; opacity: 0.7;"></path><path transform="translate(76,75.06666666666666)" d="M2.7386127875258306,0A2.7386127875258306,2.7386127875258306,0,1,1,-2.7386127875258306,0A2.7386127875258306,2.7386127875258306,0,1,1,2.7386127875258306,0" style="fill-opacity: 0; stroke: #e45756; stroke-width: 2; opacity: 0.7;"></path><path transform="translate(196,123.86666666666667)" d="M2.7386127875258306,0A2.7386127875258306,2.7386127875258306,0,1,1,-2.7386127875258306,0A2.7386127875258306,2.7386127875258306,0,1,1,2.7386127875258306,0" style="fill-opacity: 0; stroke: #e45756; stroke-width: 2; opacity: 0.7;"></path><path transform="translate(124,119.15555555555557)" d="M2.7386127875258306,0A2.7386127875258306,2.7386127875258306,0,1,1,-2.7386127875258306,0A2.7386127875258306,2.7386127875258306,0,1,1,2.7386127875258306,0" style="fill-opacity: 0; stroke: #e45756; stroke-width: 2; opacity: 0.7;"></path><path transform="translate(152,118.35555555555555)" d="M2.7386127875258306,0A2.7386127875258306,2.7386127875258306,0,1,1,-2.7386127875258306,0A2.7386127875258306,2.7386127875258306,0,1,1,2.7386127875258306,0" style="fill-opacity: 0; stroke: #e45756; stroke-width: 2; opacity: 0.7;"></path><path transform="translate(120,113.77777777777777)" d="M2.7386127875258306,0A2.7386127875258306,2.7386127875258306,0,1,1,-2.7386127875258306,0A2.7386127875258306,2.7386127875258306,0,1,1,2.7386127875258306,0" style="fill-opacity: 0; stroke: #e45756; stroke-width: 2; opacity: 0.7;"></path><path transform="translate(120,113.06666666666668)" d="M2.7386127875258306,0A2.7386127875258306,2.7386127875258306,0,1,1,-2.7386127875258306,0A2.7386127875258306,2.7386127875258306,0,1,1,2.7386127875258306,0" style="fill-opacity: 0; stroke: #e45756; stroke-width: 2; opacity: 0.7;"></path><path transform="translate(120,110.66666666666667)" d="M2.7386127875258306,0A2.7386127875258306,2.7386127875258306,0,1,1,-2.7386127875258306,0A2.7386127875258306,2.7386127875258306,0,1,1,2.7386127875258306,0" style="fill-opacity: 0; stroke: #72b7b2; stroke-width: 2; opacity: 0.7;"></path><path transform="translate(120,110.04444444444445)" d="M2.7386127875258306,0A2.7386127875258306,2.7386127875258306,0,1,1,-2.7386127875258306,0A2.7386127875258306,2.7386127875258306,0,1,1,2.7386127875258306,0" style="fill-opacity: 0; stroke: #54a24b; stroke-width: 2; opacity: 0.7;"></path><path transform="translate(108,100.62222222222222)" d="M2.7386127875258306,0A2.7386127875258306,2.7386127875258306,0,1,1,-2.7386127875258306,0A2.7386127875258306,2.7386127875258306,0,1,1,2.7386127875258306,0" style="fill-opacity: 0; stroke: #e45756; stroke-width: 2; opacity: 0.7;"></path><path transform="translate(108,98.26666666666665)" d="M2.7386127875258306,0A2.7386127875258306,2.7386127875258306,0,1,1,-2.7386127875258306,0A2.7386127875258306,2.7386127875258306,0,1,1,2.7386127875258306,0" style="fill-opacity: 0; stroke: #e45756; stroke-width: 2; opacity: 0.7;"></path><path transform="translate(108,97.6)" d="M2.7386127875258306,0A2.7386127875258306,2.7386127875258306,0,1,1,-2.7386127875258306,0A2.7386127875258306,2.7386127875258306,0,1,1,2.7386127875258306,0" style="fill-opacity: 0; stroke: #72b7b2; stroke-width: 2; opacity: 0.7;"></path><path transform="translate(108,94.57777777777778)" d="M2.7386127875258306,0A2.7386127875258306,2.7386127875258306,0,1,1,-2.7386127875258306,0A2.7386127875258306,2.7386127875258306,0,1,1,2.7386127875258306,0" style="fill-opacity: 0; stroke: #72b7b2; stroke-width: 2; opacity: 0.7;"></path><path transform="translate(96,90.44444444444444)" d="M2.7386127875258306,0A2.7386127875258306,2.7386127875258306,0,1,1,-2.7386127875258306,0A2.7386127875258306,2.7386127875258306,0,1,1,2.7386127875258306,0" style="fill-opacity: 0; stroke: #72b7b2; stroke-width: 2; opacity: 0.7;"></path><path transform="translate(100,98.08888888888889)" d="M2.7386127875258306,0A2.7386127875258306,2.7386127875258306,0,1,1,-2.7386127875258306,0A2.7386127875258306,2.7386127875258306,0,1,1,2.7386127875258306,0" style="fill-opacity: 0; stroke: #72b7b2; stroke-width: 2; opacity: 0.7;"></path><path transform="translate(96,96.13333333333334)" d="M2.7386127875258306,0A2.7386127875258306,2.7386127875258306,0,1,1,-2.7386127875258306,0A2.7386127875258306,2.7386127875258306,0,1,1,2.7386127875258306,0" style="fill-opacity: 0; stroke: #72b7b2; stroke-width: 2; opacity: 0.7;"></path><path transform="translate(152,116.71111111111111)" d="M2.7386127875258306,0A2.7386127875258306,2.7386127875258306,0,1,1,-2.7386127875258306,0A2.7386127875258306,2.7386127875258306,0,1,1,2.7386127875258306,0" style="fill-opacity: 0; stroke: #72b7b2; stroke-width: 2; opacity: 0.7;"></path><path transform="translate(152,115.15555555555555)" d="M2.7386127875258306,0A2.7386127875258306,2.7386127875258306,0,1,1,-2.7386127875258306,0A2.7386127875258306,2.7386127875258306,0,1,1,2.7386127875258306,0" style="fill-opacity: 0; stroke: #72b7b2; stroke-width: 2; opacity: 0.7;"></path><path transform="translate(96,78.4888888888889)" d="M2.7386127875258306,0A2.7386127875258306,2.7386127875258306,0,1,1,-2.7386127875258306,0A2.7386127875258306,2.7386127875258306,0,1,1,2.7386127875258306,0" style="fill-opacity: 0; stroke: #e45756; stroke-width: 2; opacity: 0.7;"></path><path transform="translate(60,19.28888888888889)" d="M2.7386127875258306,0A2.7386127875258306,2.7386127875258306,0,1,1,-2.7386127875258306,0A2.7386127875258306,2.7386127875258306,0,1,1,2.7386127875258306,0" style="fill-opacity: 0; stroke: #72b7b2; stroke-width: 2; opacity: 0.7;"></path><path transform="translate(60,19.28888888888889)" d="M2.7386127875258306,0A2.7386127875258306,2.7386127875258306,0,1,1,-2.7386127875258306,0A2.7386127875258306,2.7386127875258306,0,1,1,2.7386127875258306,0" style="fill-opacity: 0; stroke: #72b7b2; stroke-width: 2; opacity: 0.7;"></path><path transform="translate(52,24.444444444444457)" d="M2.7386127875258306,0A2.7386127875258306,2.7386127875258306,0,1,1,-2.7386127875258306,0A2.7386127875258306,2.7386127875258306,0,1,1,2.7386127875258306,0" style="fill-opacity: 0; stroke: #72b7b2; stroke-width: 2; opacity: 0.7;"></path><path transform="translate(120,116)" d="M2.7386127875258306,0A2.7386127875258306,2.7386127875258306,0,1,1,-2.7386127875258306,0A2.7386127875258306,2.7386127875258306,0,1,1,2.7386127875258306,0" style="fill-opacity: 0; stroke: #e45756; stroke-width: 2; opacity: 0.7;"></path><path transform="translate(124,115.55555555555556)" d="M2.7386127875258306,0A2.7386127875258306,2.7386127875258306,0,1,1,-2.7386127875258306,0A2.7386127875258306,2.7386127875258306,0,1,1,2.7386127875258306,0" style="fill-opacity: 0; stroke: #e45756; stroke-width: 2; opacity: 0.7;"></path><path transform="translate(124,115.33333333333333)" d="M2.7386127875258306,0A2.7386127875258306,2.7386127875258306,0,1,1,-2.7386127875258306,0A2.7386127875258306,2.7386127875258306,0,1,1,2.7386127875258306,0" style="fill-opacity: 0; stroke: #e45756; stroke-width: 2; opacity: 0.7;"></path><path transform="translate(124,113.55555555555556)" d="M2.7386127875258306,0A2.7386127875258306,2.7386127875258306,0,1,1,-2.7386127875258306,0A2.7386127875258306,2.7386127875258306,0,1,1,2.7386127875258306,0" style="fill-opacity: 0; stroke: #72b7b2; stroke-width: 2; opacity: 0.7;"></path><path transform="translate(124,113.33333333333333)" d="M2.7386127875258306,0A2.7386127875258306,2.7386127875258306,0,1,1,-2.7386127875258306,0A2.7386127875258306,2.7386127875258306,0,1,1,2.7386127875258306,0" style="fill-opacity: 0; stroke: #72b7b2; stroke-width: 2; opacity: 0.7;"></path><path transform="translate(68,94.22222222222223)" d="M2.7386127875258306,0A2.7386127875258306,2.7386127875258306,0,1,1,-2.7386127875258306,0A2.7386127875258306,2.7386127875258306,0,1,1,2.7386127875258306,0" style="fill-opacity: 0; stroke: #e45756; stroke-width: 2; opacity: 0.7;"></path><path transform="translate(68,94.22222222222223)" d="M2.7386127875258306,0A2.7386127875258306,2.7386127875258306,0,1,1,-2.7386127875258306,0A2.7386127875258306,2.7386127875258306,0,1,1,2.7386127875258306,0" style="fill-opacity: 0; stroke: #e45756; stroke-width: 2; opacity: 0.7;"></path><path transform="translate(68,94)" d="M2.7386127875258306,0A2.7386127875258306,2.7386127875258306,0,1,1,-2.7386127875258306,0A2.7386127875258306,2.7386127875258306,0,1,1,2.7386127875258306,0" style="fill-opacity: 0; stroke: #e45756; stroke-width: 2; opacity: 0.7;"></path><path transform="translate(64,88.88888888888889)" d="M2.7386127875258306,0A2.7386127875258306,2.7386127875258306,0,1,1,-2.7386127875258306,0A2.7386127875258306,2.7386127875258306,0,1,1,2.7386127875258306,0" style="fill-opacity: 0; stroke: #e45756; stroke-width: 2; opacity: 0.7;"></path><path transform="translate(104,94)" d="M2.7386127875258306,0A2.7386127875258306,2.7386127875258306,0,1,1,-2.7386127875258306,0A2.7386127875258306,2.7386127875258306,0,1,1,2.7386127875258306,0" style="fill-opacity: 0; stroke: #e45756; stroke-width: 2; opacity: 0.7;"></path><path transform="translate(104,92.88888888888889)" d="M2.7386127875258306,0A2.7386127875258306,2.7386127875258306,0,1,1,-2.7386127875258306,0A2.7386127875258306,2.7386127875258306,0,1,1,2.7386127875258306,0" style="fill-opacity: 0; stroke: #72b7b2; stroke-width: 2; opacity: 0.7;"></path><path transform="translate(104,94)" d="M2.7386127875258306,0A2.7386127875258306,2.7386127875258306,0,1,1,-2.7386127875258306,0A2.7386127875258306,2.7386127875258306,0,1,1,2.7386127875258306,0" style="fill-opacity: 0; stroke: #e45756; stroke-width: 2; opacity: 0.7;"></path><path transform="translate(104,92.88888888888889)" d="M2.7386127875258306,0A2.7386127875258306,2.7386127875258306,0,1,1,-2.7386127875258306,0A2.7386127875258306,2.7386127875258306,0,1,1,2.7386127875258306,0" style="fill-opacity: 0; stroke: #72b7b2; stroke-width: 2; opacity: 0.7;"></path><path transform="translate(144,91.42222222222223)" d="M2.7386127875258306,0A2.7386127875258306,2.7386127875258306,0,1,1,-2.7386127875258306,0A2.7386127875258306,2.7386127875258306,0,1,1,2.7386127875258306,0" style="fill-opacity: 0; stroke: #72b7b2; stroke-width: 2; opacity: 0.7;"></path><path transform="translate(104,92.22222222222223)" d="M2.7386127875258306,0A2.7386127875258306,2.7386127875258306,0,1,1,-2.7386127875258306,0A2.7386127875258306,2.7386127875258306,0,1,1,2.7386127875258306,0" style="fill-opacity: 0; stroke: #e45756; stroke-width: 2; opacity: 0.7;"></path><path transform="translate(76,81.33333333333333)" d="M2.7386127875258306,0A2.7386127875258306,2.7386127875258306,0,1,1,-2.7386127875258306,0A2.7386127875258306,2.7386127875258306,0,1,1,2.7386127875258306,0" style="fill-opacity: 0; stroke: #72b7b2; stroke-width: 2; opacity: 0.7;"></path><path transform="translate(124,80)" d="M2.7386127875258306,0A2.7386127875258306,2.7386127875258306,0,1,1,-2.7386127875258306,0A2.7386127875258306,2.7386127875258306,0,1,1,2.7386127875258306,0" style="fill-opacity: 0; stroke: #72b7b2; stroke-width: 2; opacity: 0.7;"></path><path transform="translate(88,43.77777777777777)" d="M2.7386127875258306,0A2.7386127875258306,2.7386127875258306,0,1,1,-2.7386127875258306,0A2.7386127875258306,2.7386127875258306,0,1,1,2.7386127875258306,0" style="fill-opacity: 0; stroke: #72b7b2; stroke-width: 2; opacity: 0.7;"></path><path transform="translate(88,33.333333333333314)" d="M2.7386127875258306,0A2.7386127875258306,2.7386127875258306,0,1,1,-2.7386127875258306,0A2.7386127875258306,2.7386127875258306,0,1,1,2.7386127875258306,0" style="fill-opacity: 0; stroke: #54a24b; stroke-width: 2; opacity: 0.7;"></path><path transform="translate(88,44.666666666666686)" d="M2.7386127875258306,0A2.7386127875258306,2.7386127875258306,0,1,1,-2.7386127875258306,0A2.7386127875258306,2.7386127875258306,0,1,1,2.7386127875258306,0" style="fill-opacity: 0; stroke: #f58518; stroke-width: 2; opacity: 0.7;"></path><path transform="translate(88,32.44444444444446)" d="M2.7386127875258306,0A2.7386127875258306,2.7386127875258306,0,1,1,-2.7386127875258306,0A2.7386127875258306,2.7386127875258306,0,1,1,2.7386127875258306,0" style="fill-opacity: 0; stroke: #72b7b2; stroke-width: 2; opacity: 0.7;"></path><path transform="translate(64,33.77777777777777)" d="M2.7386127875258306,0A2.7386127875258306,2.7386127875258306,0,1,1,-2.7386127875258306,0A2.7386127875258306,2.7386127875258306,0,1,1,2.7386127875258306,0" style="fill-opacity: 0; stroke: #72b7b2; stroke-width: 2; opacity: 0.7;"></path><path transform="translate(64,36.22222222222223)" d="M2.7386127875258306,0A2.7386127875258306,2.7386127875258306,0,1,1,-2.7386127875258306,0A2.7386127875258306,2.7386127875258306,0,1,1,2.7386127875258306,0" style="fill-opacity: 0; stroke: #4c78a8; stroke-width: 2; opacity: 0.7;"></path><path transform="translate(56.00000000000001,26.666666666666657)" d="M2.7386127875258306,0A2.7386127875258306,2.7386127875258306,0,1,1,-2.7386127875258306,0A2.7386127875258306,2.7386127875258306,0,1,1,2.7386127875258306,0" style="fill-opacity: 0; stroke: #72b7b2; stroke-width: 2; opacity: 0.7;"></path><path transform="translate(56.00000000000001,34.888888888888886)" d="M2.7386127875258306,0A2.7386127875258306,2.7386127875258306,0,1,1,-2.7386127875258306,0A2.7386127875258306,2.7386127875258306,0,1,1,2.7386127875258306,0" style="fill-opacity: 0; stroke: #f58518; stroke-width: 2; opacity: 0.7;"></path><path transform="translate(76,70.66666666666669)" d="M2.7386127875258306,0A2.7386127875258306,2.7386127875258306,0,1,1,-2.7386127875258306,0A2.7386127875258306,2.7386127875258306,0,1,1,2.7386127875258306,0" style="fill-opacity: 0; stroke: #e45756; stroke-width: 2; opacity: 0.7;"></path><path transform="translate(148,114.75555555555556)" d="M2.7386127875258306,0A2.7386127875258306,2.7386127875258306,0,1,1,-2.7386127875258306,0A2.7386127875258306,2.7386127875258306,0,1,1,2.7386127875258306,0" style="fill-opacity: 0; stroke: #e45756; stroke-width: 2; opacity: 0.7;"></path><path transform="translate(124,113.6)" d="M2.7386127875258306,0A2.7386127875258306,2.7386127875258306,0,1,1,-2.7386127875258306,0A2.7386127875258306,2.7386127875258306,0,1,1,2.7386127875258306,0" style="fill-opacity: 0; stroke: #e45756; stroke-width: 2; opacity: 0.7;"></path><path transform="translate(124,110.93333333333332)" d="M2.7386127875258306,0A2.7386127875258306,2.7386127875258306,0,1,1,-2.7386127875258306,0A2.7386127875258306,2.7386127875258306,0,1,1,2.7386127875258306,0" style="fill-opacity: 0; stroke: #e45756; stroke-width: 2; opacity: 0.7;"></path><path transform="translate(96,104.66666666666666)" d="M2.7386127875258306,0A2.7386127875258306,2.7386127875258306,0,1,1,-2.7386127875258306,0A2.7386127875258306,2.7386127875258306,0,1,1,2.7386127875258306,0" style="fill-opacity: 0; stroke: #e45756; stroke-width: 2; opacity: 0.7;"></path><path transform="translate(92,94.66666666666667)" d="M2.7386127875258306,0A2.7386127875258306,2.7386127875258306,0,1,1,-2.7386127875258306,0A2.7386127875258306,2.7386127875258306,0,1,1,2.7386127875258306,0" style="fill-opacity: 0; stroke: #e45756; stroke-width: 2; opacity: 0.7;"></path><path transform="translate(100,96.53333333333333)" d="M2.7386127875258306,0A2.7386127875258306,2.7386127875258306,0,1,1,-2.7386127875258306,0A2.7386127875258306,2.7386127875258306,0,1,1,2.7386127875258306,0" style="fill-opacity: 0; stroke: #e45756; stroke-width: 2; opacity: 0.7;"></path><path transform="translate(76,74.08888888888889)" d="M2.7386127875258306,0A2.7386127875258306,2.7386127875258306,0,1,1,-2.7386127875258306,0A2.7386127875258306,2.7386127875258306,0,1,1,2.7386127875258306,0" style="fill-opacity: 0; stroke: #e45756; stroke-width: 2; opacity: 0.7;"></path><path transform="translate(76,70.17777777777778)" d="M2.7386127875258306,0A2.7386127875258306,2.7386127875258306,0,1,1,-2.7386127875258306,0A2.7386127875258306,2.7386127875258306,0,1,1,2.7386127875258306,0" style="fill-opacity: 0; stroke: #e45756; stroke-width: 2; opacity: 0.7;"></path><path transform="translate(76,69.95555555555555)" d="M2.7386127875258306,0A2.7386127875258306,2.7386127875258306,0,1,1,-2.7386127875258306,0A2.7386127875258306,2.7386127875258306,0,1,1,2.7386127875258306,0" style="fill-opacity: 0; stroke: #e45756; stroke-width: 2; opacity: 0.7;"></path><path transform="translate(100,94.88888888888889)" d="M2.7386127875258306,0A2.7386127875258306,2.7386127875258306,0,1,1,-2.7386127875258306,0A2.7386127875258306,2.7386127875258306,0,1,1,2.7386127875258306,0" style="fill-opacity: 0; stroke: #72b7b2; stroke-width: 2; opacity: 0.7;"></path><path transform="translate(100,93.1111111111111)" d="M2.7386127875258306,0A2.7386127875258306,2.7386127875258306,0,1,1,-2.7386127875258306,0A2.7386127875258306,2.7386127875258306,0,1,1,2.7386127875258306,0" style="fill-opacity: 0; stroke: #72b7b2; stroke-width: 2; opacity: 0.7;"></path><path transform="translate(92,93.19999999999999)" d="M2.7386127875258306,0A2.7386127875258306,2.7386127875258306,0,1,1,-2.7386127875258306,0A2.7386127875258306,2.7386127875258306,0,1,1,2.7386127875258306,0" style="fill-opacity: 0; stroke: #72b7b2; stroke-width: 2; opacity: 0.7;"></path><path transform="translate(92,93.19999999999999)" d="M2.7386127875258306,0A2.7386127875258306,2.7386127875258306,0,1,1,-2.7386127875258306,0A2.7386127875258306,2.7386127875258306,0,1,1,2.7386127875258306,0" style="fill-opacity: 0; stroke: #72b7b2; stroke-width: 2; opacity: 0.7;"></path><path transform="translate(124,116.04444444444444)" d="M2.7386127875258306,0A2.7386127875258306,2.7386127875258306,0,1,1,-2.7386127875258306,0A2.7386127875258306,2.7386127875258306,0,1,1,2.7386127875258306,0" style="fill-opacity: 0; stroke: #72b7b2; stroke-width: 2; opacity: 0.7;"></path><path transform="translate(180,110.35555555555555)" d="M2.7386127875258306,0A2.7386127875258306,2.7386127875258306,0,1,1,-2.7386127875258306,0A2.7386127875258306,2.7386127875258306,0,1,1,2.7386127875258306,0" style="fill-opacity: 0; stroke: #72b7b2; stroke-width: 2; opacity: 0.7;"></path><path transform="translate(124,114.75555555555556)" d="M2.7386127875258306,0A2.7386127875258306,2.7386127875258306,0,1,1,-2.7386127875258306,0A2.7386127875258306,2.7386127875258306,0,1,1,2.7386127875258306,0" style="fill-opacity: 0; stroke: #72b7b2; stroke-width: 2; opacity: 0.7;"></path><path transform="translate(124,113.86666666666667)" d="M2.7386127875258306,0A2.7386127875258306,2.7386127875258306,0,1,1,-2.7386127875258306,0A2.7386127875258306,2.7386127875258306,0,1,1,2.7386127875258306,0" style="fill-opacity: 0; stroke: #72b7b2; stroke-width: 2; opacity: 0.7;"></path><path transform="translate(124,110.04444444444445)" d="M2.7386127875258306,0A2.7386127875258306,2.7386127875258306,0,1,1,-2.7386127875258306,0A2.7386127875258306,2.7386127875258306,0,1,1,2.7386127875258306,0" style="fill-opacity: 0; stroke: #54a24b; stroke-width: 2; opacity: 0.7;"></path><path transform="translate(124,113.28888888888888)" d="M2.7386127875258306,0A2.7386127875258306,2.7386127875258306,0,1,1,-2.7386127875258306,0A2.7386127875258306,2.7386127875258306,0,1,1,2.7386127875258306,0" style="fill-opacity: 0; stroke: #72b7b2; stroke-width: 2; opacity: 0.7;"></path><path transform="translate(124,109.86666666666667)" d="M2.7386127875258306,0A2.7386127875258306,2.7386127875258306,0,1,1,-2.7386127875258306,0A2.7386127875258306,2.7386127875258306,0,1,1,2.7386127875258306,0" style="fill-opacity: 0; stroke: #e45756; stroke-width: 2; opacity: 0.7;"></path><path transform="translate(124,112.4)" d="M2.7386127875258306,0A2.7386127875258306,2.7386127875258306,0,1,1,-2.7386127875258306,0A2.7386127875258306,2.7386127875258306,0,1,1,2.7386127875258306,0" style="fill-opacity: 0; stroke: #72b7b2; stroke-width: 2; opacity: 0.7;"></path><path transform="translate(124,109.46666666666667)" d="M2.7386127875258306,0A2.7386127875258306,2.7386127875258306,0,1,1,-2.7386127875258306,0A2.7386127875258306,2.7386127875258306,0,1,1,2.7386127875258306,0" style="fill-opacity: 0; stroke: #54a24b; stroke-width: 2; opacity: 0.7;"></path><path transform="translate(124,110.75555555555555)" d="M2.7386127875258306,0A2.7386127875258306,2.7386127875258306,0,1,1,-2.7386127875258306,0A2.7386127875258306,2.7386127875258306,0,1,1,2.7386127875258306,0" style="fill-opacity: 0; stroke: #f58518; stroke-width: 2; opacity: 0.7;"></path><path transform="translate(108,96.71111111111111)" d="M2.7386127875258306,0A2.7386127875258306,2.7386127875258306,0,1,1,-2.7386127875258306,0A2.7386127875258306,2.7386127875258306,0,1,1,2.7386127875258306,0" style="fill-opacity: 0; stroke: #e45756; stroke-width: 2; opacity: 0.7;"></path><path transform="translate(108,97.6888888888889)" d="M2.7386127875258306,0A2.7386127875258306,2.7386127875258306,0,1,1,-2.7386127875258306,0A2.7386127875258306,2.7386127875258306,0,1,1,2.7386127875258306,0" style="fill-opacity: 0; stroke: #72b7b2; stroke-width: 2; opacity: 0.7;"></path><path transform="translate(68,62.44444444444443)" d="M2.7386127875258306,0A2.7386127875258306,2.7386127875258306,0,1,1,-2.7386127875258306,0A2.7386127875258306,2.7386127875258306,0,1,1,2.7386127875258306,0" style="fill-opacity: 0; stroke: #72b7b2; stroke-width: 2; opacity: 0.7;"></path><path transform="translate(68,53.51111111111112)" d="M2.7386127875258306,0A2.7386127875258306,2.7386127875258306,0,1,1,-2.7386127875258306,0A2.7386127875258306,2.7386127875258306,0,1,1,2.7386127875258306,0" style="fill-opacity: 0; stroke: #54a24b; stroke-width: 2; opacity: 0.7;"></path><path transform="translate(76,64)" d="M2.7386127875258306,0A2.7386127875258306,2.7386127875258306,0,1,1,-2.7386127875258306,0A2.7386127875258306,2.7386127875258306,0,1,1,2.7386127875258306,0" style="fill-opacity: 0; stroke: #72b7b2; stroke-width: 2; opacity: 0.7;"></path><path transform="translate(76,63.51111111111112)" d="M2.7386127875258306,0A2.7386127875258306,2.7386127875258306,0,1,1,-2.7386127875258306,0A2.7386127875258306,2.7386127875258306,0,1,1,2.7386127875258306,0" style="fill-opacity: 0; stroke: #e45756; stroke-width: 2; opacity: 0.7;"></path><path transform="translate(68,60.48888888888888)" d="M2.7386127875258306,0A2.7386127875258306,2.7386127875258306,0,1,1,-2.7386127875258306,0A2.7386127875258306,2.7386127875258306,0,1,1,2.7386127875258306,0" style="fill-opacity: 0; stroke: #e45756; stroke-width: 2; opacity: 0.7;"></path><path transform="translate(76,60.48888888888888)" d="M2.7386127875258306,0A2.7386127875258306,2.7386127875258306,0,1,1,-2.7386127875258306,0A2.7386127875258306,2.7386127875258306,0,1,1,2.7386127875258306,0" style="fill-opacity: 0; stroke: #e45756; stroke-width: 2; opacity: 0.7;"></path><path transform="translate(76,65.77777777777777)" d="M2.7386127875258306,0A2.7386127875258306,2.7386127875258306,0,1,1,-2.7386127875258306,0A2.7386127875258306,2.7386127875258306,0,1,1,2.7386127875258306,0" style="fill-opacity: 0; stroke: #72b7b2; stroke-width: 2; opacity: 0.7;"></path><path transform="translate(112.00000000000001,57.911111111111126)" d="M2.7386127875258306,0A2.7386127875258306,2.7386127875258306,0,1,1,-2.7386127875258306,0A2.7386127875258306,2.7386127875258306,0,1,1,2.7386127875258306,0" style="fill-opacity: 0; stroke: #72b7b2; stroke-width: 2; opacity: 0.7;"></path><path transform="translate(76,56.44444444444446)" d="M2.7386127875258306,0A2.7386127875258306,2.7386127875258306,0,1,1,-2.7386127875258306,0A2.7386127875258306,2.7386127875258306,0,1,1,2.7386127875258306,0" style="fill-opacity: 0; stroke: #54a24b; stroke-width: 2; opacity: 0.7;"></path><path transform="translate(100,47.55555555555554)" d="M2.7386127875258306,0A2.7386127875258306,2.7386127875258306,0,1,1,-2.7386127875258306,0A2.7386127875258306,2.7386127875258306,0,1,1,2.7386127875258306,0" style="fill-opacity: 0; stroke: #54a24b; stroke-width: 2; opacity: 0.7;"></path><path transform="translate(76,63.33333333333334)" d="M2.7386127875258306,0A2.7386127875258306,2.7386127875258306,0,1,1,-2.7386127875258306,0A2.7386127875258306,2.7386127875258306,0,1,1,2.7386127875258306,0" style="fill-opacity: 0; stroke: #72b7b2; stroke-width: 2; opacity: 0.7;"></path><path transform="translate(112.00000000000001,55.46666666666667)" d="M2.7386127875258306,0A2.7386127875258306,2.7386127875258306,0,1,1,-2.7386127875258306,0A2.7386127875258306,2.7386127875258306,0,1,1,2.7386127875258306,0" style="fill-opacity: 0; stroke: #72b7b2; stroke-width: 2; opacity: 0.7;"></path><path transform="translate(76,54)" d="M2.7386127875258306,0A2.7386127875258306,2.7386127875258306,0,1,1,-2.7386127875258306,0A2.7386127875258306,2.7386127875258306,0,1,1,2.7386127875258306,0" style="fill-opacity: 0; stroke: #54a24b; stroke-width: 2; opacity: 0.7;"></path><path transform="translate(100,45.111111111111114)" d="M2.7386127875258306,0A2.7386127875258306,2.7386127875258306,0,1,1,-2.7386127875258306,0A2.7386127875258306,2.7386127875258306,0,1,1,2.7386127875258306,0" style="fill-opacity: 0; stroke: #54a24b; stroke-width: 2; opacity: 0.7;"></path><path transform="translate(76,63.33333333333334)" d="M2.7386127875258306,0A2.7386127875258306,2.7386127875258306,0,1,1,-2.7386127875258306,0A2.7386127875258306,2.7386127875258306,0,1,1,2.7386127875258306,0" style="fill-opacity: 0; stroke: #72b7b2; stroke-width: 2; opacity: 0.7;"></path><path transform="translate(112.00000000000001,55.46666666666667)" d="M2.7386127875258306,0A2.7386127875258306,2.7386127875258306,0,1,1,-2.7386127875258306,0A2.7386127875258306,2.7386127875258306,0,1,1,2.7386127875258306,0" style="fill-opacity: 0; stroke: #72b7b2; stroke-width: 2; opacity: 0.7;"></path><path transform="translate(72,60.888888888888886)" d="M2.7386127875258306,0A2.7386127875258306,2.7386127875258306,0,1,1,-2.7386127875258306,0A2.7386127875258306,2.7386127875258306,0,1,1,2.7386127875258306,0" style="fill-opacity: 0; stroke: #72b7b2; stroke-width: 2; opacity: 0.7;"></path><path transform="translate(148,114.75555555555556)" d="M2.7386127875258306,0A2.7386127875258306,2.7386127875258306,0,1,1,-2.7386127875258306,0A2.7386127875258306,2.7386127875258306,0,1,1,2.7386127875258306,0" style="fill-opacity: 0; stroke: #e45756; stroke-width: 2; opacity: 0.7;"></path><path transform="translate(96,105.42222222222222)" d="M2.7386127875258306,0A2.7386127875258306,2.7386127875258306,0,1,1,-2.7386127875258306,0A2.7386127875258306,2.7386127875258306,0,1,1,2.7386127875258306,0" style="fill-opacity: 0; stroke: #e45756; stroke-width: 2; opacity: 0.7;"></path><path transform="translate(124,112.57777777777778)" d="M2.7386127875258306,0A2.7386127875258306,2.7386127875258306,0,1,1,-2.7386127875258306,0A2.7386127875258306,2.7386127875258306,0,1,1,2.7386127875258306,0" style="fill-opacity: 0; stroke: #e45756; stroke-width: 2; opacity: 0.7;"></path><path transform="translate(124,111.6)" d="M2.7386127875258306,0A2.7386127875258306,2.7386127875258306,0,1,1,-2.7386127875258306,0A2.7386127875258306,2.7386127875258306,0,1,1,2.7386127875258306,0" style="fill-opacity: 0; stroke: #72b7b2; stroke-width: 2; opacity: 0.7;"></path><path transform="translate(124,102.62222222222222)" d="M2.7386127875258306,0A2.7386127875258306,2.7386127875258306,0,1,1,-2.7386127875258306,0A2.7386127875258306,2.7386127875258306,0,1,1,2.7386127875258306,0" style="fill-opacity: 0; stroke: #72b7b2; stroke-width: 2; opacity: 0.7;"></path><path transform="translate(96,87.33333333333333)" d="M2.7386127875258306,0A2.7386127875258306,2.7386127875258306,0,1,1,-2.7386127875258306,0A2.7386127875258306,2.7386127875258306,0,1,1,2.7386127875258306,0" style="fill-opacity: 0; stroke: #54a24b; stroke-width: 2; opacity: 0.7;"></path><path transform="translate(76,74.75555555555556)" d="M2.7386127875258306,0A2.7386127875258306,2.7386127875258306,0,1,1,-2.7386127875258306,0A2.7386127875258306,2.7386127875258306,0,1,1,2.7386127875258306,0" style="fill-opacity: 0; stroke: #e45756; stroke-width: 2; opacity: 0.7;"></path><path transform="translate(76,76.53333333333335)" d="M2.7386127875258306,0A2.7386127875258306,2.7386127875258306,0,1,1,-2.7386127875258306,0A2.7386127875258306,2.7386127875258306,0,1,1,2.7386127875258306,0" style="fill-opacity: 0; stroke: #e45756; stroke-width: 2; opacity: 0.7;"></path><path transform="translate(68,77.5111111111111)" d="M2.7386127875258306,0A2.7386127875258306,2.7386127875258306,0,1,1,-2.7386127875258306,0A2.7386127875258306,2.7386127875258306,0,1,1,2.7386127875258306,0" style="fill-opacity: 0; stroke: #f58518; stroke-width: 2; opacity: 0.7;"></path><path transform="translate(68,77.5111111111111)" d="M2.7386127875258306,0A2.7386127875258306,2.7386127875258306,0,1,1,-2.7386127875258306,0A2.7386127875258306,2.7386127875258306,0,1,1,2.7386127875258306,0" style="fill-opacity: 0; stroke: #f58518; stroke-width: 2; opacity: 0.7;"></path><path transform="translate(68,75.55555555555556)" d="M2.7386127875258306,0A2.7386127875258306,2.7386127875258306,0,1,1,-2.7386127875258306,0A2.7386127875258306,2.7386127875258306,0,1,1,2.7386127875258306,0" style="fill-opacity: 0; stroke: #4c78a8; stroke-width: 2; opacity: 0.7;"></path><path transform="translate(68,50.400000000000006)" d="M2.7386127875258306,0A2.7386127875258306,2.7386127875258306,0,1,1,-2.7386127875258306,0A2.7386127875258306,2.7386127875258306,0,1,1,2.7386127875258306,0" style="fill-opacity: 0; stroke: #e45756; stroke-width: 2; opacity: 0.7;"></path><path transform="translate(92,85.37777777777778)" d="M2.7386127875258306,0A2.7386127875258306,2.7386127875258306,0,1,1,-2.7386127875258306,0A2.7386127875258306,2.7386127875258306,0,1,1,2.7386127875258306,0" style="fill-opacity: 0; stroke: #54a24b; stroke-width: 2; opacity: 0.7;"></path><path transform="translate(92,90.66666666666667)" d="M2.7386127875258306,0A2.7386127875258306,2.7386127875258306,0,1,1,-2.7386127875258306,0A2.7386127875258306,2.7386127875258306,0,1,1,2.7386127875258306,0" style="fill-opacity: 0; stroke: #e45756; stroke-width: 2; opacity: 0.7;"></path><path transform="translate(84,81.86666666666666)" d="M2.7386127875258306,0A2.7386127875258306,2.7386127875258306,0,1,1,-2.7386127875258306,0A2.7386127875258306,2.7386127875258306,0,1,1,2.7386127875258306,0" style="fill-opacity: 0; stroke: #e45756; stroke-width: 2; opacity: 0.7;"></path><path transform="translate(84,80.22222222222221)" d="M2.7386127875258306,0A2.7386127875258306,2.7386127875258306,0,1,1,-2.7386127875258306,0A2.7386127875258306,2.7386127875258306,0,1,1,2.7386127875258306,0" style="fill-opacity: 0; stroke: #72b7b2; stroke-width: 2; opacity: 0.7;"></path><path transform="translate(84,79.6888888888889)" d="M2.7386127875258306,0A2.7386127875258306,2.7386127875258306,0,1,1,-2.7386127875258306,0A2.7386127875258306,2.7386127875258306,0,1,1,2.7386127875258306,0" style="fill-opacity: 0; stroke: #e45756; stroke-width: 2; opacity: 0.7;"></path><path transform="translate(84,77.42222222222222)" d="M2.7386127875258306,0A2.7386127875258306,2.7386127875258306,0,1,1,-2.7386127875258306,0A2.7386127875258306,2.7386127875258306,0,1,1,2.7386127875258306,0" style="fill-opacity: 0; stroke: #72b7b2; stroke-width: 2; opacity: 0.7;"></path><path transform="translate(76,75.2)" d="M2.7386127875258306,0A2.7386127875258306,2.7386127875258306,0,1,1,-2.7386127875258306,0A2.7386127875258306,2.7386127875258306,0,1,1,2.7386127875258306,0" style="fill-opacity: 0; stroke: #e45756; stroke-width: 2; opacity: 0.7;"></path><path transform="translate(76,73.46666666666665)" d="M2.7386127875258306,0A2.7386127875258306,2.7386127875258306,0,1,1,-2.7386127875258306,0A2.7386127875258306,2.7386127875258306,0,1,1,2.7386127875258306,0" style="fill-opacity: 0; stroke: #72b7b2; stroke-width: 2; opacity: 0.7;"></path><path transform="translate(124,108.88888888888889)" d="M2.7386127875258306,0A2.7386127875258306,2.7386127875258306,0,1,1,-2.7386127875258306,0A2.7386127875258306,2.7386127875258306,0,1,1,2.7386127875258306,0" style="fill-opacity: 0; stroke: #e45756; stroke-width: 2; opacity: 0.7;"></path><path transform="translate(104,105.77777777777779)" d="M2.7386127875258306,0A2.7386127875258306,2.7386127875258306,0,1,1,-2.7386127875258306,0A2.7386127875258306,2.7386127875258306,0,1,1,2.7386127875258306,0" style="fill-opacity: 0; stroke: #e45756; stroke-width: 2; opacity: 0.7;"></path><path transform="translate(104,100.44444444444444)" d="M2.7386127875258306,0A2.7386127875258306,2.7386127875258306,0,1,1,-2.7386127875258306,0A2.7386127875258306,2.7386127875258306,0,1,1,2.7386127875258306,0" style="fill-opacity: 0; stroke: #e45756; stroke-width: 2; opacity: 0.7;"></path><path transform="translate(128,104.66666666666666)" d="M2.7386127875258306,0A2.7386127875258306,2.7386127875258306,0,1,1,-2.7386127875258306,0A2.7386127875258306,2.7386127875258306,0,1,1,2.7386127875258306,0" style="fill-opacity: 0; stroke: #72b7b2; stroke-width: 2; opacity: 0.7;"></path><path transform="translate(112.00000000000001,102.66666666666666)" d="M2.7386127875258306,0A2.7386127875258306,2.7386127875258306,0,1,1,-2.7386127875258306,0A2.7386127875258306,2.7386127875258306,0,1,1,2.7386127875258306,0" style="fill-opacity: 0; stroke: #72b7b2; stroke-width: 2; opacity: 0.7;"></path><path transform="translate(104,96)" d="M2.7386127875258306,0A2.7386127875258306,2.7386127875258306,0,1,1,-2.7386127875258306,0A2.7386127875258306,2.7386127875258306,0,1,1,2.7386127875258306,0" style="fill-opacity: 0; stroke: #72b7b2; stroke-width: 2; opacity: 0.7;"></path><path transform="translate(96,94)" d="M2.7386127875258306,0A2.7386127875258306,2.7386127875258306,0,1,1,-2.7386127875258306,0A2.7386127875258306,2.7386127875258306,0,1,1,2.7386127875258306,0" style="fill-opacity: 0; stroke: #72b7b2; stroke-width: 2; opacity: 0.7;"></path><path transform="translate(96,88.44444444444444)" d="M2.7386127875258306,0A2.7386127875258306,2.7386127875258306,0,1,1,-2.7386127875258306,0A2.7386127875258306,2.7386127875258306,0,1,1,2.7386127875258306,0" style="fill-opacity: 0; stroke: #72b7b2; stroke-width: 2; opacity: 0.7;"></path><path transform="translate(112.00000000000001,98.22222222222223)" d="M2.7386127875258306,0A2.7386127875258306,2.7386127875258306,0,1,1,-2.7386127875258306,0A2.7386127875258306,2.7386127875258306,0,1,1,2.7386127875258306,0" style="fill-opacity: 0; stroke: #54a24b; stroke-width: 2; opacity: 0.7;"></path><path transform="translate(100,90.88888888888889)" d="M2.7386127875258306,0A2.7386127875258306,2.7386127875258306,0,1,1,-2.7386127875258306,0A2.7386127875258306,2.7386127875258306,0,1,1,2.7386127875258306,0" style="fill-opacity: 0; stroke: #54a24b; stroke-width: 2; opacity: 0.7;"></path><path transform="translate(92,92.44444444444444)" d="M2.7386127875258306,0A2.7386127875258306,2.7386127875258306,0,1,1,-2.7386127875258306,0A2.7386127875258306,2.7386127875258306,0,1,1,2.7386127875258306,0" style="fill-opacity: 0; stroke: #54a24b; stroke-width: 2; opacity: 0.7;"></path><path transform="translate(92,82.22222222222221)" d="M2.7386127875258306,0A2.7386127875258306,2.7386127875258306,0,1,1,-2.7386127875258306,0A2.7386127875258306,2.7386127875258306,0,1,1,2.7386127875258306,0" style="fill-opacity: 0; stroke: #54a24b; stroke-width: 2; opacity: 0.7;"></path><path transform="translate(140,111.77777777777777)" d="M2.7386127875258306,0A2.7386127875258306,2.7386127875258306,0,1,1,-2.7386127875258306,0A2.7386127875258306,2.7386127875258306,0,1,1,2.7386127875258306,0" style="fill-opacity: 0; stroke: #e45756; stroke-width: 2; opacity: 0.7;"></path><path transform="translate(124,109.33333333333334)" d="M2.7386127875258306,0A2.7386127875258306,2.7386127875258306,0,1,1,-2.7386127875258306,0A2.7386127875258306,2.7386127875258306,0,1,1,2.7386127875258306,0" style="fill-opacity: 0; stroke: #e45756; stroke-width: 2; opacity: 0.7;"></path><path transform="translate(124,110.44444444444444)" d="M2.7386127875258306,0A2.7386127875258306,2.7386127875258306,0,1,1,-2.7386127875258306,0A2.7386127875258306,2.7386127875258306,0,1,1,2.7386127875258306,0" style="fill-opacity: 0; stroke: #e45756; stroke-width: 2; opacity: 0.7;"></path><path transform="translate(124,98.66666666666666)" d="M2.7386127875258306,0A2.7386127875258306,2.7386127875258306,0,1,1,-2.7386127875258306,0A2.7386127875258306,2.7386127875258306,0,1,1,2.7386127875258306,0" style="fill-opacity: 0; stroke: #54a24b; stroke-width: 2; opacity: 0.7;"></path><path transform="translate(108,98.22222222222223)" d="M2.7386127875258306,0A2.7386127875258306,2.7386127875258306,0,1,1,-2.7386127875258306,0A2.7386127875258306,2.7386127875258306,0,1,1,2.7386127875258306,0" style="fill-opacity: 0; stroke: #54a24b; stroke-width: 2; opacity: 0.7;"></path><path transform="translate(108,61.77777777777777)" d="M2.7386127875258306,0A2.7386127875258306,2.7386127875258306,0,1,1,-2.7386127875258306,0A2.7386127875258306,2.7386127875258306,0,1,1,2.7386127875258306,0" style="fill-opacity: 0; stroke: #54a24b; stroke-width: 2; opacity: 0.7;"></path><path transform="translate(120,107.51111111111112)" d="M2.7386127875258306,0A2.7386127875258306,2.7386127875258306,0,1,1,-2.7386127875258306,0A2.7386127875258306,2.7386127875258306,0,1,1,2.7386127875258306,0" style="fill-opacity: 0; stroke: #72b7b2; stroke-width: 2; opacity: 0.7;"></path><path transform="translate(120,106.26666666666667)" d="M2.7386127875258306,0A2.7386127875258306,2.7386127875258306,0,1,1,-2.7386127875258306,0A2.7386127875258306,2.7386127875258306,0,1,1,2.7386127875258306,0" style="fill-opacity: 0; stroke: #e45756; stroke-width: 2; opacity: 0.7;"></path><path transform="translate(136,98.88888888888889)" d="M2.7386127875258306,0A2.7386127875258306,2.7386127875258306,0,1,1,-2.7386127875258306,0A2.7386127875258306,2.7386127875258306,0,1,1,2.7386127875258306,0" style="fill-opacity: 0; stroke: #72b7b2; stroke-width: 2; opacity: 0.7;"></path><path transform="translate(152,98.88888888888889)" d="M2.7386127875258306,0A2.7386127875258306,2.7386127875258306,0,1,1,-2.7386127875258306,0A2.7386127875258306,2.7386127875258306,0,1,1,2.7386127875258306,0" style="fill-opacity: 0; stroke: #e45756; stroke-width: 2; opacity: 0.7;"></path><path transform="translate(152,106.93333333333334)" d="M2.7386127875258306,0A2.7386127875258306,2.7386127875258306,0,1,1,-2.7386127875258306,0A2.7386127875258306,2.7386127875258306,0,1,1,2.7386127875258306,0" style="fill-opacity: 0; stroke: #72b7b2; stroke-width: 2; opacity: 0.7;"></path><path transform="translate(112.00000000000001,105.68888888888888)" d="M2.7386127875258306,0A2.7386127875258306,2.7386127875258306,0,1,1,-2.7386127875258306,0A2.7386127875258306,2.7386127875258306,0,1,1,2.7386127875258306,0" style="fill-opacity: 0; stroke: #e45756; stroke-width: 2; opacity: 0.7;"></path><path transform="translate(112.00000000000001,104.88888888888889)" d="M2.7386127875258306,0A2.7386127875258306,2.7386127875258306,0,1,1,-2.7386127875258306,0A2.7386127875258306,2.7386127875258306,0,1,1,2.7386127875258306,0" style="fill-opacity: 0; stroke: #72b7b2; stroke-width: 2; opacity: 0.7;"></path><path transform="translate(115.99999999999999,103.60000000000001)" d="M2.7386127875258306,0A2.7386127875258306,2.7386127875258306,0,1,1,-2.7386127875258306,0A2.7386127875258306,2.7386127875258306,0,1,1,2.7386127875258306,0" style="fill-opacity: 0; stroke: #72b7b2; stroke-width: 2; opacity: 0.7;"></path><path transform="translate(115.99999999999999,102.04444444444445)" d="M2.7386127875258306,0A2.7386127875258306,2.7386127875258306,0,1,1,-2.7386127875258306,0A2.7386127875258306,2.7386127875258306,0,1,1,2.7386127875258306,0" style="fill-opacity: 0; stroke: #e45756; stroke-width: 2; opacity: 0.7;"></path><path transform="translate(104,99.33333333333334)" d="M2.7386127875258306,0A2.7386127875258306,2.7386127875258306,0,1,1,-2.7386127875258306,0A2.7386127875258306,2.7386127875258306,0,1,1,2.7386127875258306,0" style="fill-opacity: 0; stroke: #72b7b2; stroke-width: 2; opacity: 0.7;"></path><path transform="translate(104,97.77777777777779)" d="M2.7386127875258306,0A2.7386127875258306,2.7386127875258306,0,1,1,-2.7386127875258306,0A2.7386127875258306,2.7386127875258306,0,1,1,2.7386127875258306,0" style="fill-opacity: 0; stroke: #e45756; stroke-width: 2; opacity: 0.7;"></path><path transform="translate(96,87.11111111111111)" d="M2.7386127875258306,0A2.7386127875258306,2.7386127875258306,0,1,1,-2.7386127875258306,0A2.7386127875258306,2.7386127875258306,0,1,1,2.7386127875258306,0" style="fill-opacity: 0; stroke: #f58518; stroke-width: 2; opacity: 0.7;"></path><path transform="translate(96,87.28888888888888)" d="M2.7386127875258306,0A2.7386127875258306,2.7386127875258306,0,1,1,-2.7386127875258306,0A2.7386127875258306,2.7386127875258306,0,1,1,2.7386127875258306,0" style="fill-opacity: 0; stroke: #f58518; stroke-width: 2; opacity: 0.7;"></path><path transform="translate(96,86.62222222222222)" d="M2.7386127875258306,0A2.7386127875258306,2.7386127875258306,0,1,1,-2.7386127875258306,0A2.7386127875258306,2.7386127875258306,0,1,1,2.7386127875258306,0" style="fill-opacity: 0; stroke: #e45756; stroke-width: 2; opacity: 0.7;"></path><path transform="translate(96,80.93333333333332)" d="M2.7386127875258306,0A2.7386127875258306,2.7386127875258306,0,1,1,-2.7386127875258306,0A2.7386127875258306,2.7386127875258306,0,1,1,2.7386127875258306,0" style="fill-opacity: 0; stroke: #f58518; stroke-width: 2; opacity: 0.7;"></path><path transform="translate(96,79.37777777777777)" d="M2.7386127875258306,0A2.7386127875258306,2.7386127875258306,0,1,1,-2.7386127875258306,0A2.7386127875258306,2.7386127875258306,0,1,1,2.7386127875258306,0" style="fill-opacity: 0; stroke: #e45756; stroke-width: 2; opacity: 0.7;"></path><path transform="translate(96,67.77777777777777)" d="M2.7386127875258306,0A2.7386127875258306,2.7386127875258306,0,1,1,-2.7386127875258306,0A2.7386127875258306,2.7386127875258306,0,1,1,2.7386127875258306,0" style="fill-opacity: 0; stroke: #4c78a8; stroke-width: 2; opacity: 0.7;"></path><path transform="translate(115.99999999999999,96.62222222222223)" d="M2.7386127875258306,0A2.7386127875258306,2.7386127875258306,0,1,1,-2.7386127875258306,0A2.7386127875258306,2.7386127875258306,0,1,1,2.7386127875258306,0" style="fill-opacity: 0; stroke: #72b7b2; stroke-width: 2; opacity: 0.7;"></path><path transform="translate(120,89.77777777777777)" d="M2.7386127875258306,0A2.7386127875258306,2.7386127875258306,0,1,1,-2.7386127875258306,0A2.7386127875258306,2.7386127875258306,0,1,1,2.7386127875258306,0" style="fill-opacity: 0; stroke: #72b7b2; stroke-width: 2; opacity: 0.7;"></path><path transform="translate(108,92.71111111111112)" d="M2.7386127875258306,0A2.7386127875258306,2.7386127875258306,0,1,1,-2.7386127875258306,0A2.7386127875258306,2.7386127875258306,0,1,1,2.7386127875258306,0" style="fill-opacity: 0; stroke: #e45756; stroke-width: 2; opacity: 0.7;"></path><path transform="translate(108,92.71111111111112)" d="M2.7386127875258306,0A2.7386127875258306,2.7386127875258306,0,1,1,-2.7386127875258306,0A2.7386127875258306,2.7386127875258306,0,1,1,2.7386127875258306,0" style="fill-opacity: 0; stroke: #72b7b2; stroke-width: 2; opacity: 0.7;"></path><path transform="translate(108,90.75555555555555)" d="M2.7386127875258306,0A2.7386127875258306,2.7386127875258306,0,1,1,-2.7386127875258306,0A2.7386127875258306,2.7386127875258306,0,1,1,2.7386127875258306,0" style="fill-opacity: 0; stroke: #e45756; stroke-width: 2; opacity: 0.7;"></path><path transform="translate(80,67.73333333333335)" d="M2.7386127875258306,0A2.7386127875258306,2.7386127875258306,0,1,1,-2.7386127875258306,0A2.7386127875258306,2.7386127875258306,0,1,1,2.7386127875258306,0" style="fill-opacity: 0; stroke: #e45756; stroke-width: 2; opacity: 0.7;"></path><path transform="translate(76,65.95555555555555)" d="M2.7386127875258306,0A2.7386127875258306,2.7386127875258306,0,1,1,-2.7386127875258306,0A2.7386127875258306,2.7386127875258306,0,1,1,2.7386127875258306,0" style="fill-opacity: 0; stroke: #e45756; stroke-width: 2; opacity: 0.7;"></path><path transform="translate(80,60.844444444444434)" d="M2.7386127875258306,0A2.7386127875258306,2.7386127875258306,0,1,1,-2.7386127875258306,0A2.7386127875258306,2.7386127875258306,0,1,1,2.7386127875258306,0" style="fill-opacity: 0; stroke: #72b7b2; stroke-width: 2; opacity: 0.7;"></path><path transform="translate(76,59.95555555555555)" d="M2.7386127875258306,0A2.7386127875258306,2.7386127875258306,0,1,1,-2.7386127875258306,0A2.7386127875258306,2.7386127875258306,0,1,1,2.7386127875258306,0" style="fill-opacity: 0; stroke: #54a24b; stroke-width: 2; opacity: 0.7;"></path><path transform="translate(148,99.5111111111111)" d="M2.7386127875258306,0A2.7386127875258306,2.7386127875258306,0,1,1,-2.7386127875258306,0A2.7386127875258306,2.7386127875258306,0,1,1,2.7386127875258306,0" style="fill-opacity: 0; stroke: #72b7b2; stroke-width: 2; opacity: 0.7;"></path><path transform="translate(108,101.82222222222222)" d="M2.7386127875258306,0A2.7386127875258306,2.7386127875258306,0,1,1,-2.7386127875258306,0A2.7386127875258306,2.7386127875258306,0,1,1,2.7386127875258306,0" style="fill-opacity: 0; stroke: #72b7b2; stroke-width: 2; opacity: 0.7;"></path><path transform="translate(148,99.3777777777778)" d="M2.7386127875258306,0A2.7386127875258306,2.7386127875258306,0,1,1,-2.7386127875258306,0A2.7386127875258306,2.7386127875258306,0,1,1,2.7386127875258306,0" style="fill-opacity: 0; stroke: #72b7b2; stroke-width: 2; opacity: 0.7;"></path><path transform="translate(108,101.68888888888888)" d="M2.7386127875258306,0A2.7386127875258306,2.7386127875258306,0,1,1,-2.7386127875258306,0A2.7386127875258306,2.7386127875258306,0,1,1,2.7386127875258306,0" style="fill-opacity: 0; stroke: #72b7b2; stroke-width: 2; opacity: 0.7;"></path><path transform="translate(108,98.88888888888889)" d="M2.7386127875258306,0A2.7386127875258306,2.7386127875258306,0,1,1,-2.7386127875258306,0A2.7386127875258306,2.7386127875258306,0,1,1,2.7386127875258306,0" style="fill-opacity: 0; stroke: #72b7b2; stroke-width: 2; opacity: 0.7;"></path><path transform="translate(148,96.93333333333334)" d="M2.7386127875258306,0A2.7386127875258306,2.7386127875258306,0,1,1,-2.7386127875258306,0A2.7386127875258306,2.7386127875258306,0,1,1,2.7386127875258306,0" style="fill-opacity: 0; stroke: #72b7b2; stroke-width: 2; opacity: 0.7;"></path><path transform="translate(104,97.77777777777779)" d="M2.7386127875258306,0A2.7386127875258306,2.7386127875258306,0,1,1,-2.7386127875258306,0A2.7386127875258306,2.7386127875258306,0,1,1,2.7386127875258306,0" style="fill-opacity: 0; stroke: #72b7b2; stroke-width: 2; opacity: 0.7;"></path><path transform="translate(96,99.82222222222221)" d="M2.7386127875258306,0A2.7386127875258306,2.7386127875258306,0,1,1,-2.7386127875258306,0A2.7386127875258306,2.7386127875258306,0,1,1,2.7386127875258306,0" style="fill-opacity: 0; stroke: #4c78a8; stroke-width: 2; opacity: 0.7;"></path><path transform="translate(96,101.28888888888888)" d="M2.7386127875258306,0A2.7386127875258306,2.7386127875258306,0,1,1,-2.7386127875258306,0A2.7386127875258306,2.7386127875258306,0,1,1,2.7386127875258306,0" style="fill-opacity: 0; stroke: #e45756; stroke-width: 2; opacity: 0.7;"></path><path transform="translate(76,81.73333333333332)" d="M2.7386127875258306,0A2.7386127875258306,2.7386127875258306,0,1,1,-2.7386127875258306,0A2.7386127875258306,2.7386127875258306,0,1,1,2.7386127875258306,0" style="fill-opacity: 0; stroke: #72b7b2; stroke-width: 2; opacity: 0.7;"></path><path transform="translate(132,85.37777777777778)" d="M2.7386127875258306,0A2.7386127875258306,2.7386127875258306,0,1,1,-2.7386127875258306,0A2.7386127875258306,2.7386127875258306,0,1,1,2.7386127875258306,0" style="fill-opacity: 0; stroke: #72b7b2; stroke-width: 2; opacity: 0.7;"></path><path transform="translate(100,86.08888888888887)" d="M2.7386127875258306,0A2.7386127875258306,2.7386127875258306,0,1,1,-2.7386127875258306,0A2.7386127875258306,2.7386127875258306,0,1,1,2.7386127875258306,0" style="fill-opacity: 0; stroke: #54a24b; stroke-width: 2; opacity: 0.7;"></path><path transform="translate(92,70.57777777777778)" d="M2.7386127875258306,0A2.7386127875258306,2.7386127875258306,0,1,1,-2.7386127875258306,0A2.7386127875258306,2.7386127875258306,0,1,1,2.7386127875258306,0" style="fill-opacity: 0; stroke: #72b7b2; stroke-width: 2; opacity: 0.7;"></path><path transform="translate(92,65.15555555555557)" d="M2.7386127875258306,0A2.7386127875258306,2.7386127875258306,0,1,1,-2.7386127875258306,0A2.7386127875258306,2.7386127875258306,0,1,1,2.7386127875258306,0" style="fill-opacity: 0; stroke: #54a24b; stroke-width: 2; opacity: 0.7;"></path><path transform="translate(96,69.55555555555554)" d="M2.7386127875258306,0A2.7386127875258306,2.7386127875258306,0,1,1,-2.7386127875258306,0A2.7386127875258306,2.7386127875258306,0,1,1,2.7386127875258306,0" style="fill-opacity: 0; stroke: #72b7b2; stroke-width: 2; opacity: 0.7;"></path><path transform="translate(96,64.79999999999998)" d="M2.7386127875258306,0A2.7386127875258306,2.7386127875258306,0,1,1,-2.7386127875258306,0A2.7386127875258306,2.7386127875258306,0,1,1,2.7386127875258306,0" style="fill-opacity: 0; stroke: #54a24b; stroke-width: 2; opacity: 0.7;"></path><path transform="translate(68,64.66666666666669)" d="M2.7386127875258306,0A2.7386127875258306,2.7386127875258306,0,1,1,-2.7386127875258306,0A2.7386127875258306,2.7386127875258306,0,1,1,2.7386127875258306,0" style="fill-opacity: 0; stroke: #72b7b2; stroke-width: 2; opacity: 0.7;"></path><path transform="translate(68,59.68888888888887)" d="M2.7386127875258306,0A2.7386127875258306,2.7386127875258306,0,1,1,-2.7386127875258306,0A2.7386127875258306,2.7386127875258306,0,1,1,2.7386127875258306,0" style="fill-opacity: 0; stroke: #54a24b; stroke-width: 2; opacity: 0.7;"></path><path transform="translate(92,68.79999999999998)" d="M2.7386127875258306,0A2.7386127875258306,2.7386127875258306,0,1,1,-2.7386127875258306,0A2.7386127875258306,2.7386127875258306,0,1,1,2.7386127875258306,0" style="fill-opacity: 0; stroke: #72b7b2; stroke-width: 2; opacity: 0.7;"></path><path transform="translate(76,64.48888888888888)" d="M2.7386127875258306,0A2.7386127875258306,2.7386127875258306,0,1,1,-2.7386127875258306,0A2.7386127875258306,2.7386127875258306,0,1,1,2.7386127875258306,0" style="fill-opacity: 0; stroke: #72b7b2; stroke-width: 2; opacity: 0.7;"></path><path transform="translate(72,66.13333333333333)" d="M2.7386127875258306,0A2.7386127875258306,2.7386127875258306,0,1,1,-2.7386127875258306,0A2.7386127875258306,2.7386127875258306,0,1,1,2.7386127875258306,0" style="fill-opacity: 0; stroke: #72b7b2; stroke-width: 2; opacity: 0.7;"></path><path transform="translate(104,57.02222222222221)" d="M2.7386127875258306,0A2.7386127875258306,2.7386127875258306,0,1,1,-2.7386127875258306,0A2.7386127875258306,2.7386127875258306,0,1,1,2.7386127875258306,0" style="fill-opacity: 0; stroke: #72b7b2; stroke-width: 2; opacity: 0.7;"></path><path transform="translate(76,63.911111111111126)" d="M2.7386127875258306,0A2.7386127875258306,2.7386127875258306,0,1,1,-2.7386127875258306,0A2.7386127875258306,2.7386127875258306,0,1,1,2.7386127875258306,0" style="fill-opacity: 0; stroke: #72b7b2; stroke-width: 2; opacity: 0.7;"></path></g><g class="mark-group role-legend"><g transform="translate(218,0)"><path class="background" d="M0,0h76v88h-76Z" style="pointer-events: none; fill: none;"></path><g><g class="mark-group role-legend-entry"><g transform="translate(0,16)"><path class="background" d="M0,0h0v0h0Z" style="pointer-events: none; fill: none;"></path><g><g class="mark-symbol role-legend-symbol" style="pointer-events: none;"><path transform="translate(5,5)" d="M5,0A5,5,0,1,1,-5,0A5,5,0,1,1,5,0" style="fill-opacity: 0; stroke: #4c78a8; stroke-width: 1.5; opacity: 0.7;"></path><path transform="translate(5,20)" d="M5,0A5,5,0,1,1,-5,0A5,5,0,1,1,5,0" style="fill-opacity: 0; stroke: #f58518; stroke-width: 1.5; opacity: 0.7;"></path><path transform="translate(5,35)" d="M5,0A5,5,0,1,1,-5,0A5,5,0,1,1,5,0" style="fill-opacity: 0; stroke: #e45756; stroke-width: 1.5; opacity: 0.7;"></path><path transform="translate(5,50)" d="M5,0A5,5,0,1,1,-5,0A5,5,0,1,1,5,0" style="fill-opacity: 0; stroke: #72b7b2; stroke-width: 1.5; opacity: 0.7;"></path><path transform="translate(5,65)" d="M5,0A5,5,0,1,1,-5,0A5,5,0,1,1,5,0" style="fill-opacity: 0; stroke: #54a24b; stroke-width: 1.5; opacity: 0.7;"></path></g><g class="mark-text role-legend-label" style="pointer-events: none;"><text text-anchor="start" transform="translate(18,8)" style="font: 10px sans-serif; fill: #000; opacity: 1;">convertible</text><text text-anchor="start" transform="translate(18,23)" style="font: 10px sans-serif; fill: #000; opacity: 1;">hardtop</text><text text-anchor="start" transform="translate(18,38)" style="font: 10px sans-serif; fill: #000; opacity: 1;">hatchback</text><text text-anchor="start" transform="translate(18,53)" style="font: 10px sans-serif; fill: #000; opacity: 1;">sedan</text><text text-anchor="start" transform="translate(18,68)" style="font: 10px sans-serif; fill: #000; opacity: 1;">wagon</text></g></g></g></g><g class="mark-text role-legend-title" style="pointer-events: none;"><text text-anchor="start" transform="translate(0,9)" style="font: bold 11px sans-serif; fill: #000; opacity: 1;">Body Style</text></g></g></g></g><g class="mark-group role-axis"><g transform="translate(0.5,200.5)"><path class="background" d="M0,0h0v0h0Z" style="pointer-events: none; fill: none;"></path><g><g class="mark-rule role-axis-tick" style="pointer-events: none;"><line transform="translate(0,0)" x2="0" y2="5" style="fill: none; stroke: #888; stroke-width: 1; opacity: 1;"></line><line transform="translate(40,0)" x2="0" y2="5" style="fill: none; stroke: #888; stroke-width: 1; opacity: 1;"></line><line transform="translate(80,0)" x2="0" y2="5" style="fill: none; stroke: #888; stroke-width: 1; opacity: 1;"></line><line transform="translate(120,0)" x2="0" y2="5" style="fill: none; stroke: #888; stroke-width: 1; opacity: 1;"></line><line transform="translate(160,0)" x2="0" y2="5" style="fill: none; stroke: #888; stroke-width: 1; opacity: 1;"></line><line transform="translate(200,0)" x2="0" y2="5" style="fill: none; stroke: #888; stroke-width: 1; opacity: 1;"></line></g><g class="mark-text role-axis-label" style="pointer-events: none;"><text text-anchor="start" transform="translate(0,15)" style="font: 10px sans-serif; fill: #000; opacity: 1;">0</text><text text-anchor="middle" transform="translate(40,15)" style="font: 10px sans-serif; fill: #000; opacity: 1;">10</text><text text-anchor="middle" transform="translate(80,15)" style="font: 10px sans-serif; fill: #000; opacity: 1;">20</text><text text-anchor="middle" transform="translate(120,15)" style="font: 10px sans-serif; fill: #000; opacity: 1;">30</text><text text-anchor="middle" transform="translate(160,15)" style="font: 10px sans-serif; fill: #000; opacity: 1;">40</text><text text-anchor="end" transform="translate(200,15)" style="font: 10px sans-serif; fill: #000; opacity: 1;">50</text></g><g class="mark-rule role-axis-domain" style="pointer-events: none;"><line transform="translate(0,0)" x2="200" y2="0" style="fill: none; stroke: #888; stroke-width: 1; opacity: 1;"></line></g><g class="mark-text role-axis-title" style="pointer-events: none;"><text text-anchor="middle" transform="translate(100,31)" style="font: bold 11px sans-serif; fill: #000; opacity: 1;">City MPG</text></g></g></g></g><g class="mark-group role-axis"><g transform="translate(0.5,0.5)"><path class="background" d="M0,0h0v0h0Z" style="pointer-events: none; fill: none;"></path><g><g class="mark-rule role-axis-tick" style="pointer-events: none;"><line transform="translate(0,200)" x2="-5" y2="0" style="fill: none; stroke: #888; stroke-width: 1; opacity: 1;"></line><line transform="translate(0,156)" x2="-5" y2="0" style="fill: none; stroke: #888; stroke-width: 1; opacity: 1;"></line><line transform="translate(0,111)" x2="-5" y2="0" style="fill: none; stroke: #888; stroke-width: 1; opacity: 1;"></line><line transform="translate(0,67)" x2="-5" y2="0" style="fill: none; stroke: #888; stroke-width: 1; opacity: 1;"></line><line transform="translate(0,22)" x2="-5" y2="0" style="fill: none; stroke: #888; stroke-width: 1; opacity: 1;"></line></g><g class="mark-text role-axis-label" style="pointer-events: none;"><text text-anchor="end" transform="translate(-7,203)" style="font: 10px sans-serif; fill: #000; opacity: 1;">0</text><text text-anchor="end" transform="translate(-7,158.55555555555554)" style="font: 10px sans-serif; fill: #000; opacity: 1;">1,000</text><text text-anchor="end" transform="translate(-7,114.11111111111111)" style="font: 10px sans-serif; fill: #000; opacity: 1;">2,000</text><text text-anchor="end" transform="translate(-7,69.66666666666669)" style="font: 10px sans-serif; fill: #000; opacity: 1;">3,000</text><text text-anchor="end" transform="translate(-7,25.22222222222223)" style="font: 10px sans-serif; fill: #000; opacity: 1;">4,000</text></g><g class="mark-rule role-axis-domain" style="pointer-events: none;"><line transform="translate(0,200)" x2="0" y2="-200" style="fill: none; stroke: #888; stroke-width: 1; opacity: 1;"></line></g><g class="mark-text role-axis-title" style="pointer-events: none;"><text text-anchor="middle" transform="translate(-39,100) rotate(-90) translate(0,-2)" style="font: bold 11px sans-serif; fill: #000; opacity: 1;">Curb Weight</text></g></g></g></g></g></g></g></g></svg>