<svg class="marks" width="661" height="247" viewBox="0 0 661 247" version="1.1" xmlns="http://www.w3.org/2000/svg" xmlns:xlink="http://www.w3.org/1999/xlink"><rect width="661" height="247" style="fill: #ffffff;"></rect><g transform="translate(52,7)"><g class="mark-group role-frame root"><g transform="translate(0,0)"><path class="background" d="M0.5,0.5h600v200h-600Z" style="fill-opacity: 0; stroke: #ddd;"></path><g><g class="mark-group role-axis"><g transform="translate(0.5,200.5)"><path class="background" d="M0,0h0v0h0Z" style="pointer-events: none; fill: none;"></path><g><g class="mark-rule role-axis-grid" style="pointer-events: none;"><line transform="translate(0,-200)" x2="0" y2="200" style="fill: none; stroke: #ddd; stroke-width: 1; stroke-dasharray: ; opacity: 1;"></line><line transform="translate(30,-200)" x2="0" y2="200" style="fill: none; stroke: #ddd; stroke-width: 1; stroke-dasharray: ; opacity: 1;"></line><line transform="translate(61,-200)" x2="0" y2="200" style="fill: none; stroke: #ddd; stroke-width: 1; stroke-dasharray: ; opacity: 1;"></line><line transform="translate(92,-200)" x2="0" y2="200" style="fill: none; stroke: #ddd; stroke-width: 1; stroke-dasharray: ; opacity: 1;"></line><line transform="translate(122,-200)" x2="0" y2="200" style="fill: none; stroke: #ddd; stroke-width: 1; stroke-dasharray: ; opacity: 1;"></line><line transform="translate(152,-200)" x2="0" y2="200" style="fill: none; stroke: #ddd; stroke-width: 1; stroke-dasharray: ; opacity: 1;"></line><line transform="translate(183,-200)" x2="0" y2="200" style="fill: none; stroke: #ddd; stroke-width: 1; stroke-dasharray: ; opacity: 1;"></line><line transform="translate(213,-200)" x2="0" y2="200" style="fill: none; stroke: #ddd; stroke-width: 1; stroke-dasharray: ; opacity: 1;"></line><line transform="translate(244,-200)" x2="0" y2="200" style="fill: none; stroke: #ddd; stroke-width: 1; stroke-dasharray: ; opacity: 1;"></line><line transform="translate(274,-200)" x2="0" y2="200" style="fill: none; stroke: #ddd; stroke-width: 1; stroke-dasharray: ; opacity: 1;"></line><line transform="translate(305,-200)" x2="0" y2="200" style="fill: none; stroke: #ddd; stroke-width: 1; stroke-dasharray: ; opacity: 1;"></line><line transform="translate(335,-200)" x2="0" y2="200" style="fill: none; stroke: #ddd; stroke-width: 1; stroke-dasharray: ; opacity: 1;"></line><line transform="translate(366,-200)" x2="0" y2="200" style="fill: none; stroke: #ddd; stroke-width: 1; stroke-dasharray: ; opacity: 1;"></line><line transform="translate(396,-200)" x2="0" y2="200" style="fill: none; stroke: #ddd; stroke-width: 1; stroke-dasharray: ; opacity: 1;"></line><line transform="translate(427,-200)" x2="0" y2="200" style="fill: none; stroke: #ddd; stroke-width: 1; stroke-dasharray: ; opacity: 1;"></line><line transform="translate(457,-200)" x2="0" y2="200" style="fill: none; stroke: #ddd; stroke-width: 1; stroke-dasharray: ; opacity: 1;"></line><line transform="translate(488,-200)" x2="0" y2="200" style="fill: none; stroke: #ddd; stroke-width: 1; stroke-dasharray: ; opacity: 1;"></line><line transform="translate(518,-200)" x2="0" y2="200" style="fill: none; stroke: #ddd; stroke-width: 1; stroke-dasharray: ; opacity: 1;"></line><line transform="translate(549,-200)" x2="0" y2="200" style="fill: none; stroke: #ddd; stroke-width: 1; stroke-dasharray: ; opacity: 1;"></line><line transform="translate(580,-200)" x2="0" y2="200" style="fill: none; stroke: #ddd; stroke-width: 1; stroke-dasharray: ; opacity: 1;"></line></g></g></g></g><g class="mark-group role-axis"><g transform="translate(0.5,0.5)"><path class="background" d="M0,0h0v0h0Z" style="pointer-events: none; fill: none;"></path><g><g class="mark-rule role-axis-grid" style="pointer-events: none;"><line transform="translate(0,200)" x2="600" y2="0" style="fill: none; stroke: #ddd; stroke-width: 1; stroke-dasharray: ; opacity: 1;"></line><line transform="translate(0,164)" x2="600" y2="0" style="fill: none; stroke: #ddd; stroke-width: 1; stroke-dasharray: ; opacity: 1;"></line><line transform="translate(0,127)" x2="600" y2="0" style="fill: none; stroke: #ddd; stroke-width: 1; stroke-dasharray: ; opacity: 1;"></line><line transform="translate(0,91)" x2="600" y2="0" style="fill: none; stroke: #ddd; stroke-width: 1; stroke-dasharray: ; opacity: 1;"></line><line transform="translate(0,55)" x2="600" y2="0" style="fill: none; stroke: #ddd; stroke-width: 1; stroke-dasharray: ; opacity: 1;"></line><line transform="translate(0,18)" x2="600" y2="0" style="fill: none; stroke: #ddd; stroke-width: 1; stroke-dasharray: ; opacity: 1;"></line></g></g></g></g><g class="mark-line role-mark marks"><path d="M600,61.09090909090909L589.9638084632517,40.363636363636346L579.6074610244989,0.36363636363637397L569.5851893095769,26.181818181818187L559.2288418708241,19.636363636363626L548.8724944320712,46.18181818181819L538.8502227171492,34.18181818181819L528.4938752783964,33.81818181818181L518.4716035634744,58.18181818181819L508.1291759465479,27.636363636363626L498.44097995545656,43.27272727272725L488.0846325167038,46.90909090909091L477.728285077951,74.18181818181817L467.69209354120267,63.27272727272728L457.3357461024499,56.363636363636374L447.31347438752783,58.54545454545453L436.95712694877506,30.545454545454533L426.6007795100222,37.09090909090909L416.5785077951002,49.45454545454547L406.22216035634744,65.81818181818181L396.1998886414254,66.18181818181819L385.8574610244989,49.45454545454547L376.5033407572383,55.27272727272728L366.14699331848556,66.18181818181819L355.7906458797327,91.27272727272728L345.75445434298445,75.63636363636364L335.3981069042316,69.0909090909091L325.37583518930956,53.45454545454544L315.01948775055683,84.00000000000001L304.663140311804,59.27272727272728L294.64086859688194,52.363636363636374L284.28452115812917,81.45454545454544L274.26224944320717,52.72727272727275L263.9198218262806,45.45454545454547L254.56570155902006,63.636363636363654L244.20935412026725,59.636363636363654L233.85300668151447,89.81818181818181L223.81681514476617,102.9090909090909L213.46046770601336,98.18181818181819L203.43819599109133,92L193.08184855233853,105.45454545454545L182.72550111358575,93.81818181818183L172.7032293986637,112.72727272727273L162.34688195991092,124.72727272727273L152.3246102449889,108L141.98218262806236,103.63636363636364L132.62806236080178,109.0909090909091L122.27171492204899,81.81818181818181L111.91536748329621,126.54545454545455L101.87917594654787,138.9090909090909L91.5228285077951,120.36363636363636L81.50055679287306,137.8181818181818L71.14420935412026,133.0909090909091L60.787861915367486,123.27272727272728L50.76559020044544,125.45454545454545L40.40924276169265,110.54545454545455L30.3869710467706,140.36363636363637L20.0445434298441,137.8181818181818L10.356347438752783,155.63636363636363L0,157.0909090909091" style="fill: none; stroke: #4c78a8; stroke-width: 2;"></path></g><g class="mark-group role-axis"><g transform="translate(0.5,200.5)"><path class="background" d="M0,0h0v0h0Z" style="pointer-events: none; fill: none;"></path><g><g class="mark-rule role-axis-tick" style="pointer-events: none;"><line transform="translate(0,0)" x2="0" y2="5" style="fill: none; stroke: #888; stroke-width: 1; opacity: 1;"></line><line transform="translate(30,0)" x2="0" y2="5" style="fill: none; stroke: #888; stroke-width: 1; opacity: 1;"></line><line transform="translate(61,0)" x2="0" y2="5" style="fill: none; stroke: #888; stroke-width: 1; opacity: 1;"></line><line transform="translate(92,0)" x2="0" y2="5" style="fill: none; stroke: #888; stroke-width: 1; opacity: 1;"></line><line transform="translate(122,0)" x2="0" y2="5" style="fill: none; stroke: #888; stroke-width: 1; opacity: 1;"></line><line transform="translate(152,0)" x2="0" y2="5" style="fill: none; stroke: #888; stroke-width: 1; opacity: 1;"></line><line transform="translate(183,0)" x2="0" y2="5" style="fill: none; stroke: #888; stroke-width: 1; opacity: 1;"></line><line transform="translate(213,0)" x2="0" y2="5" style="fill: none; stroke: #888; stroke-width: 1; opacity: 1;"></line><line transform="translate(244,0)" x2="0" y2="5" style="fill: none; stroke: #888; stroke-width: 1; opacity: 1;"></line><line transform="translate(274,0)" x2="0" y2="5" style="fill: none; stroke: #888; stroke-width: 1; opacity: 1;"></line><line transform="translate(305,0)" x2="0" y2="5" style="fill: none; stroke: #888; stroke-width: 1; opacity: 1;"></line><line transform="translate(335,0)" x2="0" y2="5" style="fill: none; stroke: #888; stroke-width: 1; opacity: 1;"></line><line transform="translate(366,0)" x2="0" y2="5" style="fill: none; stroke: #888; stroke-width: 1; opacity: 1;"></line><line transform="translate(396,0)" x2="0" y2="5" style="fill: none; stroke: #888; stroke-width: 1; opacity: 1;"></line><line transform="translate(427,0)" x2="0" y2="5" style="fill: none; stroke: #888; stroke-width: 1; opacity: 1;"></line><line transform="translate(457,0)" x2="0" y2="5" style="fill: none; stroke: #888; stroke-width: 1; opacity: 1;"></line><line transform="translate(488,0)" x2="0" y2="5" style="fill: none; stroke: #888; stroke-width: 1; opacity: 1;"></line><line transform="translate(518,0)" x2="0" y2="5" style="fill: none; stroke: #888; stroke-width: 1; opacity: 1;"></line><line transform="translate(549,0)" x2="0" y2="5" style="fill: none; stroke: #888; stroke-width: 1; opacity: 1;"></line><line transform="translate(580,0)" x2="0" y2="5" style="fill: none; stroke: #888; stroke-width: 1; opacity: 1;"></line></g><g class="mark-text role-axis-label" style="pointer-events: none;"><text text-anchor="start" transform="translate(0,15)" style="font: 10px sans-serif; fill: #000; opacity: 1;">Jan 2012</text><text text-anchor="middle" transform="translate(30.3869710467706,15)" style="font: 10px sans-serif; fill: #000; opacity: 0;">Apr 2012</text><text text-anchor="middle" transform="translate(60.787861915367486,15)" style="font: 10px sans-serif; fill: #000; opacity: 0;">Jul 2012</text><text text-anchor="middle" transform="translate(91.5228285077951,15)" style="font: 10px sans-serif; fill: #000; opacity: 0;">Oct 2012</text><text text-anchor="middle" transform="translate(122.27171492204899,15)" style="font: 10px sans-serif; fill: #000; opacity: 1;">Jan 2013</text><text text-anchor="middle" transform="translate(152.3246102449889,15)" style="font: 10px sans-serif; fill: #000; opacity: 0;">Apr 2013</text><text text-anchor="middle" transform="translate(182.72550111358575,15)" style="font: 10px sans-serif; fill: #000; opacity: 0;">Jul 2013</text><text text-anchor="middle" transform="translate(213.46046770601336,15)" style="font: 10px sans-serif; fill: #000; opacity: 0;">Oct 2013</text><text text-anchor="middle" transform="translate(244.20935412026725,15)" style="font: 10px sans-serif; fill: #000; opacity: 1;">Jan 2014</text><text text-anchor="middle" transform="translate(274.26224944320717,15)" style="font: 10px sans-serif; fill: #000; opacity: 0;">Apr 2014</text><text text-anchor="middle" transform="translate(304.663140311804,15)" style="font: 10px sans-serif; fill: #000; opacity: 0;">Jul 2014</text><text text-anchor="middle" transform="translate(335.3981069042316,15)" style="font: 10px sans-serif; fill: #000; opacity: 0;">Oct 2014</text><text text-anchor="middle" transform="translate(366.14699331848556,15)" style="font: 10px sans-serif; fill: #000; opacity: 1;">Jan 2015</text><text text-anchor="middle" transform="translate(396.1998886414254,15)" style="font: 10px sans-serif; fill: #000; opacity: 0;">Apr 2015</text><text text-anchor="middle" transform="translate(426.6007795100222,15)" style="font: 10px sans-serif; fill: #000; opacity: 0;">Jul 2015</text><text text-anchor="middle" transform="translate(457.3357461024499,15)" style="font: 10px sans-serif; fill: #000; opacity: 0;">Oct 2015</text><text text-anchor="middle" transform="translate(488.0846325167038,15)" style="font: 10px sans-serif; fill: #000; opacity: 1;">Jan 2016</text><text text-anchor="middle" transform="translate(518.4716035634744,15)" style="font: 10px sans-serif; fill: #000; opacity: 0;">Apr 2016</text><text text-anchor="middle" transform="translate(548.8724944320712,15)" style="font: 10px sans-serif; fill: #000; opacity: 0;">Jul 2016</text><text text-anchor="middle" transform="translate(579.6074610244989,15)" style="font: 10px sans-serif; fill: #000; opacity: 0;">Oct 2016</text></g><g class="mark-rule role-axis-domain" style="pointer-events: none;"><line transform="translate(0,0)" x2="600" y2="0" style="fill: none; stroke: #888; stroke-width: 1; opacity: 1;"></line></g><g class="mark-text role-axis-title" style="pointer-events: none;"><text text-anchor="middle" transform="translate(300,31)" style="font: bold 11px sans-serif; fill: #000; opacity: 1;">Date Received</text></g></g></g></g><g class="mark-group role-axis"><g transform="translate(0.5,0.5)"><path class="background" d="M0,0h0v0h0Z" style="pointer-events: none; fill: none;"></path><g><g class="mark-rule role-axis-tick" style="pointer-events: none;"><line transform="translate(0,200)" x2="-5" y2="0" style="fill: none; stroke: #888; stroke-width: 1; opacity: 1;"></line><line transform="translate(0,164)" x2="-5" y2="0" style="fill: none; stroke: #888; stroke-width: 1; opacity: 1;"></line><line transform="translate(0,127)" x2="-5" y2="0" style="fill: none; stroke: #888; stroke-width: 1; opacity: 1;"></line><line transform="translate(0,91)" x2="-5" y2="0" style="fill: none; stroke: #888; stroke-width: 1; opacity: 1;"></line><line transform="translate(0,55)" x2="-5" y2="0" style="fill: none; stroke: #888; stroke-width: 1; opacity: 1;"></line><line transform="translate(0,18)" x2="-5" y2="0" style="fill: none; stroke: #888; stroke-width: 1; opacity: 1;"></line></g><g class="mark-text role-axis-label" style="pointer-events: none;"><text text-anchor="end" transform="translate(-7,203)" style="font: 10px sans-serif; fill: #000; opacity: 1;">0</text><text text-anchor="end" transform="translate(-7,166.63636363636363)" style="font: 10px sans-serif; fill: #000; opacity: 1;">100</text><text text-anchor="end" transform="translate(-7,130.27272727272725)" style="font: 10px sans-serif; fill: #000; opacity: 1;">200</text><text text-anchor="end" transform="translate(-7,93.90909090909092)" style="font: 10px sans-serif; fill: #000; opacity: 1;">300</text><text text-anchor="end" transform="translate(-7,57.54545454545453)" style="font: 10px sans-serif; fill: #000; opacity: 1;">400</text><text text-anchor="end" transform="translate(-7,21.181818181818187)" style="font: 10px sans-serif; fill: #000; opacity: 1;">500</text></g><g class="mark-rule role-axis-domain" style="pointer-events: none;"><line transform="translate(0,200)" x2="0" y2="-200" style="fill: none; stroke: #888; stroke-width: 1; opacity: 1;"></line></g><g class="mark-text role-axis-title" style="pointer-events: none;"><text text-anchor="middle" transform="translate(-34,100) rotate(-90) translate(0,-2)" style="font: bold 11px sans-serif; fill: #000; opacity: 1;">Number of Records</text></g></g></g></g></g></g></g></g></svg>