<svg class="marks" width="814" height="245" viewBox="0 0 814 245" version="1.1" xmlns="http://www.w3.org/2000/svg" xmlns:xlink="http://www.w3.org/1999/xlink"><rect width="814" height="245" style="fill: #ffffff;"></rect><g transform="translate(52,5)"><g class="mark-group role-frame root"><g transform="translate(0,0)"><path class="background" d="M0.5,0.5h600v200h-600Z" style="fill-opacity: 0; stroke: #ddd;"></path><g><g class="mark-group role-axis"><g transform="translate(0.5,200.5)"><path class="background" d="M0,0h0v0h0Z" style="pointer-events: none; fill: none;"></path><g><g class="mark-rule role-axis-grid" style="pointer-events: none;"><line transform="translate(0,-200)" x2="0" y2="200" style="fill: none; stroke: #ddd; stroke-width: 1; stroke-dasharray: ; opacity: 1;"></line><line transform="translate(30,-200)" x2="0" y2="200" style="fill: none; stroke: #ddd; stroke-width: 1; stroke-dasharray: ; opacity: 1;"></line><line transform="translate(61,-200)" x2="0" y2="200" style="fill: none; stroke: #ddd; stroke-width: 1; stroke-dasharray: ; opacity: 1;"></line><line transform="translate(92,-200)" x2="0" y2="200" style="fill: none; stroke: #ddd; stroke-width: 1; stroke-dasharray: ; opacity: 1;"></line><line transform="translate(122,-200)" x2="0" y2="200" style="fill: none; stroke: #ddd; stroke-width: 1; stroke-dasharray: ; opacity: 1;"></line><line transform="translate(152,-200)" x2="0" y2="200" style="fill: none; stroke: #ddd; stroke-width: 1; stroke-dasharray: ; opacity: 1;"></line><line transform="translate(183,-200)" x2="0" y2="200" style="fill: none; stroke: #ddd; stroke-width: 1; stroke-dasharray: ; opacity: 1;"></line><line transform="translate(213,-200)" x2="0" y2="200" style="fill: none; stroke: #ddd; stroke-width: 1; stroke-dasharray: ; opacity: 1;"></line><line transform="translate(244,-200)" x2="0" y2="200" style="fill: none; stroke: #ddd; stroke-width: 1; stroke-dasharray: ; opacity: 1;"></line><line transform="translate(274,-200)" x2="0" y2="200" style="fill: none; stroke: #ddd; stroke-width: 1; stroke-dasharray: ; opacity: 1;"></line><line transform="translate(305,-200)" x2="0" y2="200" style="fill: none; stroke: #ddd; stroke-width: 1; stroke-dasharray: ; opacity: 1;"></line><line transform="translate(335,-200)" x2="0" y2="200" style="fill: none; stroke: #ddd; stroke-width: 1; stroke-dasharray: ; opacity: 1;"></line><line transform="translate(366,-200)" x2="0" y2="200" style="fill: none; stroke: #ddd; stroke-width: 1; stroke-dasharray: ; opacity: 1;"></line><line transform="translate(396,-200)" x2="0" y2="200" style="fill: none; stroke: #ddd; stroke-width: 1; stroke-dasharray: ; opacity: 1;"></line><line transform="translate(427,-200)" x2="0" y2="200" style="fill: none; stroke: #ddd; stroke-width: 1; stroke-dasharray: ; opacity: 1;"></line><line transform="translate(457,-200)" x2="0" y2="200" style="fill: none; stroke: #ddd; stroke-width: 1; stroke-dasharray: ; opacity: 1;"></line><line transform="translate(488,-200)" x2="0" y2="200" style="fill: none; stroke: #ddd; stroke-width: 1; stroke-dasharray: ; opacity: 1;"></line><line transform="translate(518,-200)" x2="0" y2="200" style="fill: none; stroke: #ddd; stroke-width: 1; stroke-dasharray: ; opacity: 1;"></line><line transform="translate(549,-200)" x2="0" y2="200" style="fill: none; stroke: #ddd; stroke-width: 1; stroke-dasharray: ; opacity: 1;"></line><line transform="translate(580,-200)" x2="0" y2="200" style="fill: none; stroke: #ddd; stroke-width: 1; stroke-dasharray: ; opacity: 1;"></line></g></g></g></g><g class="mark-group role-axis"><g transform="translate(0.5,0.5)"><path class="background" d="M0,0h0v0h0Z" style="pointer-events: none; fill: none;"></path><g><g class="mark-rule role-axis-grid" style="pointer-events: none;"><line transform="translate(0,200)" x2="600" y2="0" style="fill: none; stroke: #ddd; stroke-width: 1; stroke-dasharray: ; opacity: 1;"></line><line transform="translate(0,164)" x2="600" y2="0" style="fill: none; stroke: #ddd; stroke-width: 1; stroke-dasharray: ; opacity: 1;"></line><line transform="translate(0,127)" x2="600" y2="0" style="fill: none; stroke: #ddd; stroke-width: 1; stroke-dasharray: ; opacity: 1;"></line><line transform="translate(0,91)" x2="600" y2="0" style="fill: none; stroke: #ddd; stroke-width: 1; stroke-dasharray: ; opacity: 1;"></line><line transform="translate(0,55)" x2="600" y2="0" style="fill: none; stroke: #ddd; stroke-width: 1; stroke-dasharray: ; opacity: 1;"></line><line transform="translate(0,18)" x2="600" y2="0" style="fill: none; stroke: #ddd; stroke-width: 1; stroke-dasharray: ; opacity: 1;"></line></g></g></g></g><g class="mark-group role-scope pathgroup"><g transform="translate(0,0)"><path class="background" d="M0,0h600v200h-600Z" style="fill: none;"></path><g><g class="mark-area role-mark marks"><path d="M600,133.8181818181818L589.9638084632517,122.54545454545455L579.6074610244989,114.54545454545455L569.5851893095769,119.63636363636364L559.2288418708241,108.72727272727273L548.8724944320712,130.1818181818182L538.8502227171492,113.81818181818181L528.4938752783964,122.18181818181819L518.4716035634744,124.36363636363636L508.1291759465479,114.54545454545455L498.44097995545656,120.36363636363636L488.0846325167038,113.81818181818181L477.728285077951,140.72727272727272L467.69209354120267,129.8181818181818L457.3357461024499,118.18181818181817L447.31347438752783,124.72727272727273L436.95712694877506,108.72727272727273L426.6007795100222,115.27272727272727L416.5785077951002,113.81818181818181L406.22216035634744,122.9090909090909L396.1998886414254,125.81818181818181L385.8574610244989,119.27272727272728L376.5033407572383,112.36363636363636L366.14699331848556,123.63636363636363L355.7906458797327,138.54545454545456L345.75445434298445,129.45454545454544L335.3981069042316,123.63636363636363L325.37583518930956,109.81818181818181L315.01948775055683,139.63636363636363L304.663140311804,124L294.64086859688194,111.63636363636364L284.28452115812917,127.63636363636364L274.26224944320717,113.81818181818181L263.9198218262806,105.0909090909091L254.56570155902006,122.18181818181819L244.20935412026725,116L233.85300668151447,130.1818181818182L223.81681514476617,140.36363636363637L213.46046770601336,141.0909090909091L203.43819599109133,135.27272727272728L193.08184855233853,137.0909090909091L182.72550111358575,137.0909090909091L172.7032293986637,147.27272727272728L162.34688195991092,155.27272727272728L152.3246102449889,146.9090909090909L141.98218262806236,145.8181818181818L132.62806236080178,148.36363636363637L122.27171492204899,128L111.91536748329621,156.72727272727272L101.87917594654787,169.0909090909091L91.5228285077951,156.36363636363637L81.50055679287306,164L71.14420935412026,157.0909090909091L60.787861915367486,154.54545454545456L50.76559020044544,162.54545454545453L40.40924276169265,148.72727272727275L30.3869710467706,168.72727272727272L20.0445434298441,163.27272727272728L10.356347438752783,170.54545454545453L0,172.72727272727272L0,172.72727272727272L10.356347438752783,170.54545454545453L20.0445434298441,163.27272727272728L30.3869710467706,168.72727272727272L40.40924276169265,148.72727272727275L50.76559020044544,162.54545454545453L60.787861915367486,154.54545454545456L71.14420935412026,157.0909090909091L81.50055679287306,164L91.5228285077951,156.36363636363637L101.87917594654787,169.0909090909091L111.91536748329621,156.72727272727272L122.27171492204899,128L132.62806236080178,148.36363636363637L141.98218262806236,145.8181818181818L152.3246102449889,146.9090909090909L162.34688195991092,155.27272727272728L172.7032293986637,147.27272727272728L182.72550111358575,150.54545454545456L193.08184855233853,153.0909090909091L203.43819599109133,160L213.46046770601336,161.8181818181818L223.81681514476617,169.45454545454544L233.85300668151447,162.54545454545453L244.20935412026725,160.72727272727272L254.56570155902006,158.54545454545456L263.9198218262806,148L274.26224944320717,151.63636363636363L284.28452115812917,162.1818181818182L294.64086859688194,157.45454545454544L304.663140311804,160L315.01948775055683,169.8181818181818L325.37583518930956,147.63636363636363L335.3981069042316,157.45454545454544L345.75445434298445,165.45454545454544L355.7906458797327,170.9090909090909L366.14699331848556,162.54545454545453L376.5033407572383,159.63636363636363L385.8574610244989,164.72727272727272L396.1998886414254,160.36363636363637L406.22216035634744,160L416.5785077951002,151.63636363636363L426.6007795100222,161.0909090909091L436.95712694877506,150.54545454545456L447.31347438752783,157.8181818181818L457.3357461024499,153.45454545454544L467.69209354120267,162.9090909090909L477.728285077951,173.0909090909091L488.0846325167038,157.0909090909091L498.44097995545656,153.0909090909091L508.1291759465479,155.63636363636363L518.4716035634744,161.45454545454544L528.4938752783964,161.0909090909091L538.8502227171492,157.8181818181818L548.8724944320712,163.63636363636363L559.2288418708241,161.45454545454544L569.5851893095769,156L579.6074610244989,154.54545454545456L589.9638084632517,160.72727272727272L600,166.1818181818182Z" style="fill: #72b7b2;"></path></g></g></g><g transform="translate(0,0)"><path class="background" d="M0,0h600v200h-600Z" style="fill: none;"></path><g><g class="mark-area role-mark marks"><path d="M600,166.1818181818182L589.9638084632517,160.72727272727272L579.6074610244989,154.54545454545456L569.5851893095769,156L559.2288418708241,161.45454545454544L548.8724944320712,163.63636363636363L538.8502227171492,157.8181818181818L528.4938752783964,161.0909090909091L518.4716035634744,161.45454545454544L508.1291759465479,155.63636363636363L498.44097995545656,153.0909090909091L488.0846325167038,157.0909090909091L477.728285077951,173.0909090909091L467.69209354120267,162.9090909090909L457.3357461024499,153.45454545454544L447.31347438752783,157.8181818181818L436.95712694877506,150.54545454545456L426.6007795100222,161.0909090909091L416.5785077951002,151.63636363636363L406.22216035634744,160L396.1998886414254,160.36363636363637L385.8574610244989,164.72727272727272L376.5033407572383,159.63636363636363L366.14699331848556,162.54545454545453L355.7906458797327,170.9090909090909L345.75445434298445,165.45454545454544L335.3981069042316,157.45454545454544L325.37583518930956,147.63636363636363L315.01948775055683,169.8181818181818L304.663140311804,160L294.64086859688194,157.45454545454544L284.28452115812917,162.1818181818182L274.26224944320717,151.63636363636363L263.9198218262806,148L254.56570155902006,158.54545454545456L244.20935412026725,160.72727272727272L233.85300668151447,162.54545454545453L223.81681514476617,169.45454545454544L213.46046770601336,161.8181818181818L203.43819599109133,160L193.08184855233853,153.0909090909091L182.72550111358575,150.54545454545456L172.7032293986637,147.27272727272728L162.34688195991092,155.27272727272728L152.3246102449889,146.9090909090909L141.98218262806236,145.8181818181818L132.62806236080178,148.36363636363637L122.27171492204899,128L111.91536748329621,156.72727272727272L101.87917594654787,169.0909090909091L91.5228285077951,156.36363636363637L81.50055679287306,164L71.14420935412026,157.0909090909091L60.787861915367486,154.54545454545456L50.76559020044544,162.54545454545453L40.40924276169265,148.72727272727275L30.3869710467706,168.72727272727272L20.0445434298441,163.27272727272728L10.356347438752783,170.54545454545453L0,172.72727272727272L0,200L10.356347438752783,200L20.0445434298441,200L30.3869710467706,200L40.40924276169265,200L50.76559020044544,200L60.787861915367486,200L71.14420935412026,200L81.50055679287306,200L91.5228285077951,200L101.87917594654787,200L111.91536748329621,200L122.27171492204899,200L132.62806236080178,200L141.98218262806236,200L152.3246102449889,200L162.34688195991092,200L172.7032293986637,200L182.72550111358575,200L193.08184855233853,200L203.43819599109133,200L213.46046770601336,200L223.81681514476617,200L233.85300668151447,200L244.20935412026725,200L254.56570155902006,200L263.9198218262806,200L274.26224944320717,200L284.28452115812917,200L294.64086859688194,200L304.663140311804,200L315.01948775055683,200L325.37583518930956,200L335.3981069042316,200L345.75445434298445,200L355.7906458797327,200L366.14699331848556,200L376.5033407572383,200L385.8574610244989,200L396.1998886414254,200L406.22216035634744,200L416.5785077951002,200L426.6007795100222,200L436.95712694877506,200L447.31347438752783,200L457.3357461024499,200L467.69209354120267,200L477.728285077951,200L488.0846325167038,200L498.44097995545656,200L508.1291759465479,200L518.4716035634744,200L528.4938752783964,200L538.8502227171492,200L548.8724944320712,200L559.2288418708241,200L569.5851893095769,200L579.6074610244989,200L589.9638084632517,200L600,200Z" style="fill: #54a24b;"></path></g></g></g><g transform="translate(0,0)"><path class="background" d="M0,0h600v200h-600Z" style="fill: none;"></path><g><g class="mark-area role-mark marks"><path d="M600,61.09090909090909L589.9638084632517,40.363636363636346L579.6074610244989,0.36363636363637397L569.5851893095769,26.181818181818187L559.2288418708241,19.636363636363626L548.8724944320712,46.18181818181819L538.8502227171492,34.18181818181819L528.4938752783964,33.81818181818181L518.4716035634744,58.18181818181819L508.1291759465479,27.636363636363626L498.44097995545656,43.27272727272725L488.0846325167038,46.90909090909091L477.728285077951,74.18181818181817L467.69209354120267,63.27272727272728L457.3357461024499,56.363636363636374L447.31347438752783,58.54545454545453L436.95712694877506,30.545454545454533L426.6007795100222,37.09090909090909L416.5785077951002,49.45454545454547L406.22216035634744,65.81818181818181L396.1998886414254,66.18181818181819L385.8574610244989,49.45454545454547L376.5033407572383,55.27272727272728L366.14699331848556,66.18181818181819L355.7906458797327,91.27272727272728L345.75445434298445,75.63636363636364L335.3981069042316,69.0909090909091L325.37583518930956,53.45454545454544L315.01948775055683,84.00000000000001L304.663140311804,59.27272727272728L294.64086859688194,52.363636363636374L284.28452115812917,81.45454545454544L274.26224944320717,52.72727272727275L263.9198218262806,45.45454545454547L254.56570155902006,63.636363636363654L244.20935412026725,59.636363636363654L233.85300668151447,89.81818181818181L223.81681514476617,102.9090909090909L213.46046770601336,98.18181818181819L203.43819599109133,92L193.08184855233853,105.45454545454545L182.72550111358575,93.81818181818183L172.7032293986637,112.72727272727273L162.34688195991092,124.72727272727273L152.3246102449889,108L141.98218262806236,103.63636363636364L132.62806236080178,109.0909090909091L122.27171492204899,81.81818181818181L111.91536748329621,126.54545454545455L101.87917594654787,138.9090909090909L91.5228285077951,120.36363636363636L81.50055679287306,137.8181818181818L71.14420935412026,133.0909090909091L60.787861915367486,123.27272727272728L50.76559020044544,125.45454545454545L40.40924276169265,110.54545454545455L30.3869710467706,140.36363636363637L20.0445434298441,137.8181818181818L10.356347438752783,155.63636363636363L0,157.0909090909091L0,157.0909090909091L10.356347438752783,157.0909090909091L20.0445434298441,150.9090909090909L30.3869710467706,156L40.40924276169265,130.9090909090909L50.76559020044544,145.0909090909091L60.787861915367486,137.45454545454544L71.14420935412026,144L81.50055679287306,152L91.5228285077951,136.36363636363637L101.87917594654787,148.72727272727275L111.91536748329621,140.36363636363637L122.27171492204899,94.90909090909089L132.62806236080178,122.18181818181819L141.98218262806236,118.54545454545455L152.3246102449889,120.36363636363636L162.34688195991092,132L172.7032293986637,123.27272727272728L182.72550111358575,111.27272727272727L193.08184855233853,114.18181818181819L203.43819599109133,102.9090909090909L213.46046770601336,111.27272727272727L223.81681514476617,114.18181818181819L233.85300668151447,101.81818181818181L244.20935412026725,77.45454545454547L254.56570155902006,78.9090909090909L263.9198218262806,59.636363636363654L274.26224944320717,64.36363636363635L284.28452115812917,95.27272727272727L294.64086859688194,67.27272727272725L304.663140311804,73.0909090909091L315.01948775055683,98.18181818181819L325.37583518930956,70.9090909090909L335.3981069042316,85.81818181818181L345.75445434298445,88.72727272727272L355.7906458797327,102.54545454545455L366.14699331848556,80.36363636363637L376.5033407572383,66.54545454545456L385.8574610244989,64L396.1998886414254,81.09090909090908L406.22216035634744,79.63636363636364L416.5785077951002,67.27272727272725L426.6007795100222,51.27272727272728L436.95712694877506,50.18181818181816L447.31347438752783,73.0909090909091L457.3357461024499,74.9090909090909L467.69209354120267,82.54545454545455L477.728285077951,94.18181818181819L488.0846325167038,64L498.44097995545656,58.90909090909091L508.1291759465479,46.18181818181819L518.4716035634744,69.81818181818181L528.4938752783964,56.363636363636374L538.8502227171492,52L548.8724944320712,68L559.2288418708241,40L569.5851893095769,53.09090909090909L579.6074610244989,33.09090909090909L589.9638084632517,58.18181818181819L600,80Z" style="fill: #4c78a8;"></path></g></g></g><g transform="translate(0,0)"><path class="background" d="M0,0h600v200h-600Z" style="fill: none;"></path><g><g class="mark-area role-mark marks"><path d="M600,80L589.9638084632517,58.18181818181819L579.6074610244989,33.09090909090909L569.5851893095769,53.09090909090909L559.2288418708241,40L548.8724944320712,68L538.8502227171492,52L528.4938752783964,56.363636363636374L518.4716035634744,69.81818181818181L508.1291759465479,46.18181818181819L498.44097995545656,58.90909090909091L488.0846325167038,64L477.728285077951,94.18181818181819L467.69209354120267,82.54545454545455L457.3357461024499,74.9090909090909L447.31347438752783,73.0909090909091L436.95712694877506,50.18181818181816L426.6007795100222,51.27272727272728L416.5785077951002,67.27272727272725L406.22216035634744,79.63636363636364L396.1998886414254,81.09090909090908L385.8574610244989,64L376.5033407572383,66.54545454545456L366.14699331848556,80.36363636363637L355.7906458797327,102.54545454545455L345.75445434298445,88.72727272727272L335.3981069042316,85.81818181818181L325.37583518930956,70.9090909090909L315.01948775055683,98.18181818181819L304.663140311804,73.0909090909091L294.64086859688194,67.27272727272725L284.28452115812917,95.27272727272727L274.26224944320717,64.36363636363635L263.9198218262806,59.636363636363654L254.56570155902006,78.9090909090909L244.20935412026725,77.45454545454547L233.85300668151447,101.81818181818181L223.81681514476617,114.18181818181819L213.46046770601336,111.27272727272727L203.43819599109133,102.9090909090909L193.08184855233853,114.18181818181819L182.72550111358575,111.27272727272727L172.7032293986637,123.27272727272728L162.34688195991092,132L152.3246102449889,120.36363636363636L141.98218262806236,118.54545454545455L132.62806236080178,122.18181818181819L122.27171492204899,94.90909090909089L111.91536748329621,140.36363636363637L101.87917594654787,148.72727272727275L91.5228285077951,136.36363636363637L81.50055679287306,152L71.14420935412026,144L60.787861915367486,137.45454545454544L50.76559020044544,145.0909090909091L40.40924276169265,130.9090909090909L30.3869710467706,156L20.0445434298441,150.9090909090909L10.356347438752783,157.0909090909091L0,157.0909090909091L0,172.72727272727272L10.356347438752783,170.54545454545453L20.0445434298441,163.27272727272728L30.3869710467706,168.72727272727272L40.40924276169265,148.72727272727275L50.76559020044544,162.54545454545453L60.787861915367486,154.54545454545456L71.14420935412026,157.0909090909091L81.50055679287306,164L91.5228285077951,152L101.87917594654787,161.45454545454544L111.91536748329621,148.36363636363637L122.27171492204899,112.36363636363636L132.62806236080178,134.54545454545456L141.98218262806236,131.63636363636363L152.3246102449889,134.9090909090909L162.34688195991092,143.63636363636363L172.7032293986637,136L182.72550111358575,124.36363636363636L193.08184855233853,125.45454545454545L203.43819599109133,113.81818181818181L213.46046770601336,124.36363636363636L223.81681514476617,126.18181818181819L233.85300668151447,113.45454545454545L244.20935412026725,93.45454545454545L254.56570155902006,94.18181818181819L263.9198218262806,70.54545454545456L274.26224944320717,80L284.28452115812917,104L294.64086859688194,78.18181818181817L304.663140311804,90.90909090909092L315.01948775055683,110.54545454545455L325.37583518930956,84.36363636363637L335.3981069042316,96.72727272727273L345.75445434298445,101.45454545454545L355.7906458797327,116.36363636363637L366.14699331848556,93.0909090909091L376.5033407572383,86.54545454545455L385.8574610244989,80L396.1998886414254,97.81818181818183L406.22216035634744,95.27272727272727L416.5785077951002,82.9090909090909L426.6007795100222,69.0909090909091L436.95712694877506,67.63636363636363L447.31347438752783,94.54545454545456L457.3357461024499,88.72727272727272L467.69209354120267,96.72727272727273L477.728285077951,109.0909090909091L488.0846325167038,82.54545454545455L498.44097995545656,77.45454545454547L508.1291759465479,66.18181818181819L518.4716035634744,88.72727272727272L528.4938752783964,77.45454545454547L538.8502227171492,68.36363636363637L548.8724944320712,85.81818181818181L559.2288418708241,66.54545454545456L569.5851893095769,77.45454545454547L579.6074610244989,56.363636363636374L589.9638084632517,81.09090909090908L600,98.9090909090909Z" style="fill: #f58518;"></path></g></g></g><g transform="translate(0,0)"><path class="background" d="M0,0h600v200h-600Z" style="fill: none;"></path><g><g class="mark-area role-mark marks"><path d="M600,98.9090909090909L589.9638084632517,81.09090909090908L579.6074610244989,56.363636363636374L569.5851893095769,77.45454545454547L559.2288418708241,66.54545454545456L548.8724944320712,85.81818181818181L538.8502227171492,68.36363636363637L528.4938752783964,77.45454545454547L518.4716035634744,88.72727272727272L508.1291759465479,66.18181818181819L498.44097995545656,77.45454545454547L488.0846325167038,82.54545454545455L477.728285077951,109.0909090909091L467.69209354120267,96.72727272727273L457.3357461024499,88.72727272727272L447.31347438752783,94.54545454545456L436.95712694877506,67.63636363636363L426.6007795100222,69.0909090909091L416.5785077951002,82.9090909090909L406.22216035634744,95.27272727272727L396.1998886414254,97.81818181818183L385.8574610244989,80L376.5033407572383,86.54545454545455L366.14699331848556,93.0909090909091L355.7906458797327,116.36363636363637L345.75445434298445,101.45454545454545L335.3981069042316,96.72727272727273L325.37583518930956,84.36363636363637L315.01948775055683,110.54545454545455L304.663140311804,90.90909090909092L294.64086859688194,78.18181818181817L284.28452115812917,104L274.26224944320717,80L263.9198218262806,70.54545454545456L254.56570155902006,94.18181818181819L244.20935412026725,93.45454545454545L233.85300668151447,113.45454545454545L223.81681514476617,126.18181818181819L213.46046770601336,124.36363636363636L203.43819599109133,113.81818181818181L193.08184855233853,125.45454545454545L182.72550111358575,124.36363636363636L172.7032293986637,136L162.34688195991092,143.63636363636363L152.3246102449889,134.9090909090909L141.98218262806236,131.63636363636363L132.62806236080178,134.54545454545456L122.27171492204899,112.36363636363636L111.91536748329621,148.36363636363637L101.87917594654787,161.45454545454544L91.5228285077951,152L81.50055679287306,164L71.14420935412026,157.0909090909091L60.787861915367486,154.54545454545456L50.76559020044544,162.54545454545453L40.40924276169265,148.72727272727275L30.3869710467706,168.72727272727272L20.0445434298441,163.27272727272728L10.356347438752783,170.54545454545453L0,172.72727272727272L0,172.72727272727272L10.356347438752783,170.54545454545453L20.0445434298441,163.27272727272728L30.3869710467706,168.72727272727272L40.40924276169265,148.72727272727275L50.76559020044544,162.54545454545453L60.787861915367486,154.54545454545456L71.14420935412026,157.0909090909091L81.50055679287306,164L91.5228285077951,156.36363636363637L101.87917594654787,169.0909090909091L111.91536748329621,156.72727272727272L122.27171492204899,128L132.62806236080178,148.36363636363637L141.98218262806236,145.8181818181818L152.3246102449889,146.9090909090909L162.34688195991092,155.27272727272728L172.7032293986637,147.27272727272728L182.72550111358575,137.0909090909091L193.08184855233853,137.0909090909091L203.43819599109133,135.27272727272728L213.46046770601336,141.0909090909091L223.81681514476617,140.36363636363637L233.85300668151447,130.1818181818182L244.20935412026725,116L254.56570155902006,122.18181818181819L263.9198218262806,105.0909090909091L274.26224944320717,113.81818181818181L284.28452115812917,127.63636363636364L294.64086859688194,111.63636363636364L304.663140311804,124L315.01948775055683,139.63636363636363L325.37583518930956,109.81818181818181L335.3981069042316,123.63636363636363L345.75445434298445,129.45454545454544L355.7906458797327,138.54545454545456L366.14699331848556,123.63636363636363L376.5033407572383,112.36363636363636L385.8574610244989,119.27272727272728L396.1998886414254,125.81818181818181L406.22216035634744,122.9090909090909L416.5785077951002,113.81818181818181L426.6007795100222,115.27272727272727L436.95712694877506,108.72727272727273L447.31347438752783,124.72727272727273L457.3357461024499,118.18181818181817L467.69209354120267,129.8181818181818L477.728285077951,140.72727272727272L488.0846325167038,113.81818181818181L498.44097995545656,120.36363636363636L508.1291759465479,114.54545454545455L518.4716035634744,124.36363636363636L528.4938752783964,122.18181818181819L538.8502227171492,113.81818181818181L548.8724944320712,130.1818181818182L559.2288418708241,108.72727272727273L569.5851893095769,119.63636363636364L579.6074610244989,114.54545454545455L589.9638084632517,122.54545454545455L600,133.8181818181818Z" style="fill: #e45756;"></path></g></g></g></g><g class="mark-group role-legend"><g transform="translate(618,0)"><path class="background" d="M0,0h139v87h-139Z" style="pointer-events: none; fill: none;"></path><g><g class="mark-group role-legend-entry"><g transform="translate(0,16)"><path class="background" d="M0,0h0v0h0Z" style="pointer-events: none; fill: none;"></path><g><g class="mark-symbol role-legend-symbol" style="pointer-events: none;"><path transform="translate(5,5)" d="M5,0A5,5,0,1,1,-5,0A5,5,0,1,1,5,0" style="fill: #4c78a8; stroke-width: 1.5; opacity: 1;"></path><path transform="translate(5,20)" d="M5,0A5,5,0,1,1,-5,0A5,5,0,1,1,5,0" style="fill: #f58518; stroke-width: 1.5; opacity: 1;"></path><path transform="translate(5,35)" d="M5,0A5,5,0,1,1,-5,0A5,5,0,1,1,5,0" style="fill: #e45756; stroke-width: 1.5; opacity: 1;"></path><path transform="translate(5,50)" d="M5,0A5,5,0,1,1,-5,0A5,5,0,1,1,5,0" style="fill: #72b7b2; stroke-width: 1.5; opacity: 1;"></path><path transform="translate(5,65)" d="M5,0A5,5,0,1,1,-5,0A5,5,0,1,1,5,0" style="fill: #54a24b; stroke-width: 1.5; opacity: 1;"></path></g><g class="mark-text role-legend-label" style="pointer-events: none;"><text text-anchor="start" transform="translate(18,8)" style="font: 10px sans-serif; fill: #000; opacity: 1;">Bank account or service</text><text text-anchor="start" transform="translate(18,23)" style="font: 10px sans-serif; fill: #000; opacity: 1;">Credit card</text><text text-anchor="start" transform="translate(18,38)" style="font: 10px sans-serif; fill: #000; opacity: 1;">Credit reporting</text><text text-anchor="start" transform="translate(18,53)" style="font: 10px sans-serif; fill: #000; opacity: 1;">Debt collection</text><text text-anchor="start" transform="translate(18,68)" style="font: 10px sans-serif; fill: #000; opacity: 1;">Mortgage</text></g></g></g></g><g class="mark-text role-legend-title" style="pointer-events: none;"><text text-anchor="start" transform="translate(0,9)" style="font: bold 11px sans-serif; fill: #000; opacity: 1;">Product</text></g></g></g></g><g class="mark-group role-axis"><g transform="translate(0.5,200.5)"><path class="background" d="M0,0h0v0h0Z" style="pointer-events: none; fill: none;"></path><g><g class="mark-rule role-axis-tick" style="pointer-events: none;"><line transform="translate(0,0)" x2="0" y2="5" style="fill: none; stroke: #888; stroke-width: 1; opacity: 1;"></line><line transform="translate(30,0)" x2="0" y2="5" style="fill: none; stroke: #888; stroke-width: 1; opacity: 1;"></line><line transform="translate(61,0)" x2="0" y2="5" style="fill: none; stroke: #888; stroke-width: 1; opacity: 1;"></line><line transform="translate(92,0)" x2="0" y2="5" style="fill: none; stroke: #888; stroke-width: 1; opacity: 1;"></line><line transform="translate(122,0)" x2="0" y2="5" style="fill: none; stroke: #888; stroke-width: 1; opacity: 1;"></line><line transform="translate(152,0)" x2="0" y2="5" style="fill: none; stroke: #888; stroke-width: 1; opacity: 1;"></line><line transform="translate(183,0)" x2="0" y2="5" style="fill: none; stroke: #888; stroke-width: 1; opacity: 1;"></line><line transform="translate(213,0)" x2="0" y2="5" style="fill: none; stroke: #888; stroke-width: 1; opacity: 1;"></line><line transform="translate(244,0)" x2="0" y2="5" style="fill: none; stroke: #888; stroke-width: 1; opacity: 1;"></line><line transform="translate(274,0)" x2="0" y2="5" style="fill: none; stroke: #888; stroke-width: 1; opacity: 1;"></line><line transform="translate(305,0)" x2="0" y2="5" style="fill: none; stroke: #888; stroke-width: 1; opacity: 1;"></line><line transform="translate(335,0)" x2="0" y2="5" style="fill: none; stroke: #888; stroke-width: 1; opacity: 1;"></line><line transform="translate(366,0)" x2="0" y2="5" style="fill: none; stroke: #888; stroke-width: 1; opacity: 1;"></line><line transform="translate(396,0)" x2="0" y2="5" style="fill: none; stroke: #888; stroke-width: 1; opacity: 1;"></line><line transform="translate(427,0)" x2="0" y2="5" style="fill: none; stroke: #888; stroke-width: 1; opacity: 1;"></line><line transform="translate(457,0)" x2="0" y2="5" style="fill: none; stroke: #888; stroke-width: 1; opacity: 1;"></line><line transform="translate(488,0)" x2="0" y2="5" style="fill: none; stroke: #888; stroke-width: 1; opacity: 1;"></line><line transform="translate(518,0)" x2="0" y2="5" style="fill: none; stroke: #888; stroke-width: 1; opacity: 1;"></line><line transform="translate(549,0)" x2="0" y2="5" style="fill: none; stroke: #888; stroke-width: 1; opacity: 1;"></line><line transform="translate(580,0)" x2="0" y2="5" style="fill: none; stroke: #888; stroke-width: 1; opacity: 1;"></line></g><g class="mark-text role-axis-label" style="pointer-events: none;"><text text-anchor="start" transform="translate(0,15)" style="font: 10px sans-serif; fill: #000; opacity: 1;">Jan 2012</text><text text-anchor="middle" transform="translate(30.3869710467706,15)" style="font: 10px sans-serif; fill: #000; opacity: 0;">Apr 2012</text><text text-anchor="middle" transform="translate(60.787861915367486,15)" style="font: 10px sans-serif; fill: #000; opacity: 0;">Jul 2012</text><text text-anchor="middle" transform="translate(91.5228285077951,15)" style="font: 10px sans-serif; fill: #000; opacity: 0;">Oct 2012</text><text text-anchor="middle" transform="translate(122.27171492204899,15)" style="font: 10px sans-serif; fill: #000; opacity: 1;">Jan 2013</text><text text-anchor="middle" transform="translate(152.3246102449889,15)" style="font: 10px sans-serif; fill: #000; opacity: 0;">Apr 2013</text><text text-anchor="middle" transform="translate(182.72550111358575,15)" style="font: 10px sans-serif; fill: #000; opacity: 0;">Jul 2013</text><text text-anchor="middle" transform="translate(213.46046770601336,15)" style="font: 10px sans-serif; fill: #000; opacity: 0;">Oct 2013</text><text text-anchor="middle" transform="translate(244.20935412026725,15)" style="font: 10px sans-serif; fill: #000; opacity: 1;">Jan 2014</text><text text-anchor="middle" transform="translate(274.26224944320717,15)" style="font: 10px sans-serif; fill: #000; opacity: 0;">Apr 2014</text><text text-anchor="middle" transform="translate(304.663140311804,15)" style="font: 10px sans-serif; fill: #000; opacity: 0;">Jul 2014</text><text text-anchor="middle" transform="translate(335.3981069042316,15)" style="font: 10px sans-serif; fill: #000; opacity: 0;">Oct 2014</text><text text-anchor="middle" transform="translate(366.14699331848556,15)" style="font: 10px sans-serif; fill: #000; opacity: 1;">Jan 2015</text><text text-anchor="middle" transform="translate(396.1998886414254,15)" style="font: 10px sans-serif; fill: #000; opacity: 0;">Apr 2015</text><text text-anchor="middle" transform="translate(426.6007795100222,15)" style="font: 10px sans-serif; fill: #000; opacity: 0;">Jul 2015</text><text text-anchor="middle" transform="translate(457.3357461024499,15)" style="font: 10px sans-serif; fill: #000; opacity: 0;">Oct 2015</text><text text-anchor="middle" transform="translate(488.0846325167038,15)" style="font: 10px sans-serif; fill: #000; opacity: 1;">Jan 2016</text><text text-anchor="middle" transform="translate(518.4716035634744,15)" style="font: 10px sans-serif; fill: #000; opacity: 0;">Apr 2016</text><text text-anchor="middle" transform="translate(548.8724944320712,15)" style="font: 10px sans-serif; fill: #000; opacity: 0;">Jul 2016</text><text text-anchor="middle" transform="translate(579.6074610244989,15)" style="font: 10px sans-serif; fill: #000; opacity: 0;">Oct 2016</text></g><g class="mark-rule role-axis-domain" style="pointer-events: none;"><line transform="translate(0,0)" x2="600" y2="0" style="fill: none; stroke: #888; stroke-width: 1; opacity: 1;"></line></g><g class="mark-text role-axis-title" style="pointer-events: none;"><text text-anchor="middle" transform="translate(300,31)" style="font: bold 11px sans-serif; fill: #000; opacity: 1;">Date Received</text></g></g></g></g><g class="mark-group role-axis"><g transform="translate(0.5,0.5)"><path class="background" d="M0,0h0v0h0Z" style="pointer-events: none; fill: none;"></path><g><g class="mark-rule role-axis-tick" style="pointer-events: none;"><line transform="translate(0,200)" x2="-5" y2="0" style="fill: none; stroke: #888; stroke-width: 1; opacity: 1;"></line><line transform="translate(0,164)" x2="-5" y2="0" style="fill: none; stroke: #888; stroke-width: 1; opacity: 1;"></line><line transform="translate(0,127)" x2="-5" y2="0" style="fill: none; stroke: #888; stroke-width: 1; opacity: 1;"></line><line transform="translate(0,91)" x2="-5" y2="0" style="fill: none; stroke: #888; stroke-width: 1; opacity: 1;"></line><line transform="translate(0,55)" x2="-5" y2="0" style="fill: none; stroke: #888; stroke-width: 1; opacity: 1;"></line><line transform="translate(0,18)" x2="-5" y2="0" style="fill: none; stroke: #888; stroke-width: 1; opacity: 1;"></line></g><g class="mark-text role-axis-label" style="pointer-events: none;"><text text-anchor="end" transform="translate(-7,203)" style="font: 10px sans-serif; fill: #000; opacity: 1;">0</text><text text-anchor="end" transform="translate(-7,166.63636363636363)" style="font: 10px sans-serif; fill: #000; opacity: 1;">100</text><text text-anchor="end" transform="translate(-7,130.27272727272725)" style="font: 10px sans-serif; fill: #000; opacity: 1;">200</text><text text-anchor="end" transform="translate(-7,93.90909090909092)" style="font: 10px sans-serif; fill: #000; opacity: 1;">300</text><text text-anchor="end" transform="translate(-7,57.54545454545453)" style="font: 10px sans-serif; fill: #000; opacity: 1;">400</text><text text-anchor="end" transform="translate(-7,21.181818181818187)" style="font: 10px sans-serif; fill: #000; opacity: 1;">500</text></g><g class="mark-rule role-axis-domain" style="pointer-events: none;"><line transform="translate(0,200)" x2="0" y2="-200" style="fill: none; stroke: #888; stroke-width: 1; opacity: 1;"></line></g><g class="mark-text role-axis-title" style="pointer-events: none;"><text text-anchor="middle" transform="translate(-34,100) rotate(-90) translate(0,-2)" style="font: bold 11px sans-serif; fill: #000; opacity: 1;">Number of Records</text></g></g></g></g></g></g></g></g></svg>