<svg class="marks" width="500" height="500" viewBox="0 0 500 500" version="1.1" xmlns="http://www.w3.org/2000/svg" xmlns:xlink="http://www.w3.org/1999/xlink"><rect width="500" height="500" style="fill: #ffffff;"></rect><g transform="translate(0,0)"><g class="mark-group role-frame root"><g transform="translate(0,0)"><path class="background" d="M0,0h500v500h-500Z" style="fill: none;"></path><g><g class="mark-path role-mark" style="pointer-events: none;"><path transform="translate(0,0)" d="M338.55194909685594,155.01041422499233L350.76025721941807,190.5880165041645" style="fill: none; stroke: #ccc; stroke-width: 0.5;"></path><path transform="translate(0,0)" d="M308.3112104108102,217.46207853970955L350.76025721941807,190.5880165041645" style="fill: none; stroke: #ccc; stroke-width: 0.5;"></path><path transform="translate(0,0)" d="M326.79388741829155,234.36184019974306L350.76025721941807,190.5880165041645" style="fill: none; stroke: #ccc; stroke-width: 0.5;"></path><path transform="translate(0,0)" d="M326.79388741829155,234.36184019974306L308.3112104108102,217.46207853970955" style="fill: none; stroke: #ccc; stroke-width: 0.5;"></path><path transform="translate(0,0)" d="M364.7526862692558,158.8180029539811L350.76025721941807,190.5880165041645" style="fill: none; stroke: #ccc; stroke-width: 0.5;"></path><path transform="translate(0,0)" d="M380.26160186994156,168.96969387343714L350.76025721941807,190.5880165041645" style="fill: none; stroke: #ccc; stroke-width: 0.5;"></path><path transform="translate(0,0)" d="M388.3038771448987,195.66343675310802L350.76025721941807,190.5880165041645" style="fill: none; stroke: #ccc; stroke-width: 0.5;"></path><path transform="translate(0,0)" d="M379.6469319969528,152.98768178244512L350.76025721941807,190.5880165041645" style="fill: none; stroke: #ccc; stroke-width: 0.5;"></path><path transform="translate(0,0)" d="M391.7977530894721,180.05007355580986L350.76025721941807,190.5880165041645" style="fill: none; stroke: #ccc; stroke-width: 0.5;"></path><path transform="translate(0,0)" d="M352.9453528597497,148.02577847963298L350.76025721941807,190.5880165041645" style="fill: none; stroke: #ccc; stroke-width: 0.5;"></path><path transform="translate(0,0)" d="M268.78843072426326,271.65450687433497L297.3859087566256,250.77281436793078" style="fill: none; stroke: #ccc; stroke-width: 0.5;"></path><path transform="translate(0,0)" d="M268.78843072426326,271.65450687433497L326.79388741829155,234.36184019974306" style="fill: none; stroke: #ccc; stroke-width: 0.5;"></path><path transform="translate(0,0)" d="M268.78843072426326,271.65450687433497L308.3112104108102,217.46207853970955" style="fill: none; stroke: #ccc; stroke-width: 0.5;"></path><path transform="translate(0,0)" d="M268.78843072426326,271.65450687433497L350.76025721941807,190.5880165041645" style="fill: none; stroke: #ccc; stroke-width: 0.5;"></path><path transform="translate(0,0)" d="M221.18707295504512,245.0332915258379L268.78843072426326,271.65450687433497" style="fill: none; stroke: #ccc; stroke-width: 0.5;"></path><path transform="translate(0,0)" d="M305.4108420705127,266.2459746270635L268.78843072426326,271.65450687433497" style="fill: none; stroke: #ccc; stroke-width: 0.5;"></path><path transform="translate(0,0)" d="M291.6080980152737,296.75173493153864L268.78843072426326,271.65450687433497" style="fill: none; stroke: #ccc; stroke-width: 0.5;"></path><path transform="translate(0,0)" d="M277.53628241211186,237.34965792067254L268.78843072426326,271.65450687433497" style="fill: none; stroke: #ccc; stroke-width: 0.5;"></path><path transform="translate(0,0)" d="M101.9049358392803,203.86311197044913L126.16557241734252,216.38373560198409" style="fill: none; stroke: #ccc; stroke-width: 0.5;"></path><path transform="translate(0,0)" d="M114.33436746630954,171.3361594897548L126.16557241734252,216.38373560198409" style="fill: none; stroke: #ccc; stroke-width: 0.5;"></path><path transform="translate(0,0)" d="M114.33436746630954,171.3361594897548L101.9049358392803,203.86311197044913" style="fill: none; stroke: #ccc; stroke-width: 0.5;"></path><path transform="translate(0,0)" d="M94.7399528531784,225.27504729694684L126.16557241734252,216.38373560198409" style="fill: none; stroke: #ccc; stroke-width: 0.5;"></path><path transform="translate(0,0)" d="M94.7399528531784,225.27504729694684L101.9049358392803,203.86311197044913" style="fill: none; stroke: #ccc; stroke-width: 0.5;"></path><path transform="translate(0,0)" d="M94.7399528531784,225.27504729694684L114.33436746630954,171.3361594897548" style="fill: none; stroke: #ccc; stroke-width: 0.5;"></path><path transform="translate(0,0)" d="M92.01036038308358,179.55455093610155L126.16557241734252,216.38373560198409" style="fill: none; stroke: #ccc; stroke-width: 0.5;"></path><path transform="translate(0,0)" d="M92.01036038308358,179.55455093610155L101.9049358392803,203.86311197044913" style="fill: none; stroke: #ccc; stroke-width: 0.5;"></path><path transform="translate(0,0)" d="M92.01036038308358,179.55455093610155L114.33436746630954,171.3361594897548" style="fill: none; stroke: #ccc; stroke-width: 0.5;"></path><path transform="translate(0,0)" d="M92.01036038308358,179.55455093610155L94.7399528531784,225.27504729694684" style="fill: none; stroke: #ccc; stroke-width: 0.5;"></path><path transform="translate(0,0)" d="M122.69425107245235,189.11281590736758L126.16557241734252,216.38373560198409" style="fill: none; stroke: #ccc; stroke-width: 0.5;"></path><path transform="translate(0,0)" d="M122.69425107245235,189.11281590736758L101.9049358392803,203.86311197044913" style="fill: none; stroke: #ccc; stroke-width: 0.5;"></path><path transform="translate(0,0)" d="M122.69425107245235,189.11281590736758L114.33436746630954,171.3361594897548" style="fill: none; stroke: #ccc; stroke-width: 0.5;"></path><path transform="translate(0,0)" d="M122.69425107245235,189.11281590736758L94.7399528531784,225.27504729694684" style="fill: none; stroke: #ccc; stroke-width: 0.5;"></path><path transform="translate(0,0)" d="M122.69425107245235,189.11281590736758L92.01036038308358,179.55455093610155" style="fill: none; stroke: #ccc; stroke-width: 0.5;"></path><path transform="translate(0,0)" d="M80.45903586704279,202.79581577974633L126.16557241734252,216.38373560198409" style="fill: none; stroke: #ccc; stroke-width: 0.5;"></path><path transform="translate(0,0)" d="M80.45903586704279,202.79581577974633L101.9049358392803,203.86311197044913" style="fill: none; stroke: #ccc; stroke-width: 0.5;"></path><path transform="translate(0,0)" d="M80.45903586704279,202.79581577974633L114.33436746630954,171.3361594897548" style="fill: none; stroke: #ccc; stroke-width: 0.5;"></path><path transform="translate(0,0)" d="M80.45903586704279,202.79581577974633L94.7399528531784,225.27504729694684" style="fill: none; stroke: #ccc; stroke-width: 0.5;"></path><path transform="translate(0,0)" d="M80.45903586704279,202.79581577974633L92.01036038308358,179.55455093610155" style="fill: none; stroke: #ccc; stroke-width: 0.5;"></path><path transform="translate(0,0)" d="M80.45903586704279,202.79581577974633L122.69425107245235,189.11281590736758" style="fill: none; stroke: #ccc; stroke-width: 0.5;"></path><path transform="translate(0,0)" d="M160.91467934747948,232.50043305514174L126.16557241734252,216.38373560198409" style="fill: none; stroke: #ccc; stroke-width: 0.5;"></path><path transform="translate(0,0)" d="M160.91467934747948,232.50043305514174L101.9049358392803,203.86311197044913" style="fill: none; stroke: #ccc; stroke-width: 0.5;"></path><path transform="translate(0,0)" d="M160.91467934747948,232.50043305514174L114.33436746630954,171.3361594897548" style="fill: none; stroke: #ccc; stroke-width: 0.5;"></path><path transform="translate(0,0)" d="M160.91467934747948,232.50043305514174L94.7399528531784,225.27504729694684" style="fill: none; stroke: #ccc; stroke-width: 0.5;"></path><path transform="translate(0,0)" d="M160.91467934747948,232.50043305514174L92.01036038308358,179.55455093610155" style="fill: none; stroke: #ccc; stroke-width: 0.5;"></path><path transform="translate(0,0)" d="M160.91467934747948,232.50043305514174L122.69425107245235,189.11281590736758" style="fill: none; stroke: #ccc; stroke-width: 0.5;"></path><path transform="translate(0,0)" d="M160.91467934747948,232.50043305514174L80.45903586704279,202.79581577974633" style="fill: none; stroke: #ccc; stroke-width: 0.5;"></path><path transform="translate(0,0)" d="M160.91467934747948,232.50043305514174L221.18707295504512,245.0332915258379" style="fill: none; stroke: #ccc; stroke-width: 0.5;"></path><path transform="translate(0,0)" d="M160.91467934747948,232.50043305514174L268.78843072426326,271.65450687433497" style="fill: none; stroke: #ccc; stroke-width: 0.5;"></path><path transform="translate(0,0)" d="M212.57663813638106,262.3464856139416L160.91467934747948,232.50043305514174" style="fill: none; stroke: #ccc; stroke-width: 0.5;"></path><path transform="translate(0,0)" d="M212.57663813638106,262.3464856139416L268.78843072426326,271.65450687433497" style="fill: none; stroke: #ccc; stroke-width: 0.5;"></path><path transform="translate(0,0)" d="M187.20908782177216,278.0572862860803L212.57663813638106,262.3464856139416" style="fill: none; stroke: #ccc; stroke-width: 0.5;"></path><path transform="translate(0,0)" d="M187.20908782177216,278.0572862860803L160.91467934747948,232.50043305514174" style="fill: none; stroke: #ccc; stroke-width: 0.5;"></path><path transform="translate(0,0)" d="M187.20908782177216,278.0572862860803L268.78843072426326,271.65450687433497" style="fill: none; stroke: #ccc; stroke-width: 0.5;"></path><path transform="translate(0,0)" d="M194.32079091955114,247.2802081223205L212.57663813638106,262.3464856139416" style="fill: none; stroke: #ccc; stroke-width: 0.5;"></path><path transform="translate(0,0)" d="M194.32079091955114,247.2802081223205L268.78843072426326,271.65450687433497" style="fill: none; stroke: #ccc; stroke-width: 0.5;"></path><path transform="translate(0,0)" d="M194.32079091955114,247.2802081223205L126.16557241734252,216.38373560198409" style="fill: none; stroke: #ccc; stroke-width: 0.5;"></path><path transform="translate(0,0)" d="M194.32079091955114,247.2802081223205L187.20908782177216,278.0572862860803" style="fill: none; stroke: #ccc; stroke-width: 0.5;"></path><path transform="translate(0,0)" d="M210.6417858671533,289.26732550582926L268.78843072426326,271.65450687433497" style="fill: none; stroke: #ccc; stroke-width: 0.5;"></path><path transform="translate(0,0)" d="M210.6417858671533,289.26732550582926L160.91467934747948,232.50043305514174" style="fill: none; stroke: #ccc; stroke-width: 0.5;"></path><path transform="translate(0,0)" d="M210.6417858671533,289.26732550582926L187.20908782177216,278.0572862860803" style="fill: none; stroke: #ccc; stroke-width: 0.5;"></path><path transform="translate(0,0)" d="M210.6417858671533,289.26732550582926L212.57663813638106,262.3464856139416" style="fill: none; stroke: #ccc; stroke-width: 0.5;"></path><path transform="translate(0,0)" d="M210.6417858671533,289.26732550582926L194.32079091955114,247.2802081223205" style="fill: none; stroke: #ccc; stroke-width: 0.5;"></path><path transform="translate(0,0)" d="M243.51185749416945,305.7085526217686L268.78843072426326,271.65450687433497" style="fill: none; stroke: #ccc; stroke-width: 0.5;"></path><path transform="translate(0,0)" d="M243.51185749416945,305.7085526217686L210.6417858671533,289.26732550582926" style="fill: none; stroke: #ccc; stroke-width: 0.5;"></path><path transform="translate(0,0)" d="M263.34328455849163,317.27055188687984L160.91467934747948,232.50043305514174" style="fill: none; stroke: #ccc; stroke-width: 0.5;"></path><path transform="translate(0,0)" d="M263.34328455849163,317.27055188687984L210.6417858671533,289.26732550582926" style="fill: none; stroke: #ccc; stroke-width: 0.5;"></path><path transform="translate(0,0)" d="M263.34328455849163,317.27055188687984L268.78843072426326,271.65450687433497" style="fill: none; stroke: #ccc; stroke-width: 0.5;"></path><path transform="translate(0,0)" d="M182.02979797955976,201.44973953674855L160.91467934747948,232.50043305514174" style="fill: none; stroke: #ccc; stroke-width: 0.5;"></path><path transform="translate(0,0)" d="M209.50988473436865,234.1000914607829L182.02979797955976,201.44973953674855" style="fill: none; stroke: #ccc; stroke-width: 0.5;"></path><path transform="translate(0,0)" d="M209.50988473436865,234.1000914607829L268.78843072426326,271.65450687433497" style="fill: none; stroke: #ccc; stroke-width: 0.5;"></path><path transform="translate(0,0)" d="M209.50988473436865,234.1000914607829L160.91467934747948,232.50043305514174" style="fill: none; stroke: #ccc; stroke-width: 0.5;"></path><path transform="translate(0,0)" d="M209.50988473436865,234.1000914607829L210.6417858671533,289.26732550582926" style="fill: none; stroke: #ccc; stroke-width: 0.5;"></path><path transform="translate(0,0)" d="M303.23827154853166,282.0971858117L268.78843072426326,271.65450687433497" style="fill: none; stroke: #ccc; stroke-width: 0.5;"></path><path transform="translate(0,0)" d="M241.7502972144722,289.8065913648062L268.78843072426326,271.65450687433497" style="fill: none; stroke: #ccc; stroke-width: 0.5;"></path><path transform="translate(0,0)" d="M241.7502972144722,289.8065913648062L210.6417858671533,289.26732550582926" style="fill: none; stroke: #ccc; stroke-width: 0.5;"></path><path transform="translate(0,0)" d="M312.55017350042203,314.90497016939094L268.78843072426326,271.65450687433497" style="fill: none; stroke: #ccc; stroke-width: 0.5;"></path><path transform="translate(0,0)" d="M312.55017350042203,314.90497016939094L263.34328455849163,317.27055188687984" style="fill: none; stroke: #ccc; stroke-width: 0.5;"></path><path transform="translate(0,0)" d="M295.54558347657485,331.13617222629085L268.78843072426326,271.65450687433497" style="fill: none; stroke: #ccc; stroke-width: 0.5;"></path><path transform="translate(0,0)" d="M295.54558347657485,331.13617222629085L312.55017350042203,314.90497016939094" style="fill: none; stroke: #ccc; stroke-width: 0.5;"></path><path transform="translate(0,0)" d="M295.54558347657485,331.13617222629085L263.34328455849163,317.27055188687984" style="fill: none; stroke: #ccc; stroke-width: 0.5;"></path><path transform="translate(0,0)" d="M330.89293954496657,320.3025368011658L312.55017350042203,314.90497016939094" style="fill: none; stroke: #ccc; stroke-width: 0.5;"></path><path transform="translate(0,0)" d="M330.89293954496657,320.3025368011658L295.54558347657485,331.13617222629085" style="fill: none; stroke: #ccc; stroke-width: 0.5;"></path><path transform="translate(0,0)" d="M330.89293954496657,320.3025368011658L268.78843072426326,271.65450687433497" style="fill: none; stroke: #ccc; stroke-width: 0.5;"></path><path transform="translate(0,0)" d="M330.89293954496657,320.3025368011658L263.34328455849163,317.27055188687984" style="fill: none; stroke: #ccc; stroke-width: 0.5;"></path><path transform="translate(0,0)" d="M319.2481401257245,342.93396906665413L312.55017350042203,314.90497016939094" style="fill: none; stroke: #ccc; stroke-width: 0.5;"></path><path transform="translate(0,0)" d="M319.2481401257245,342.93396906665413L295.54558347657485,331.13617222629085" style="fill: none; stroke: #ccc; stroke-width: 0.5;"></path><path transform="translate(0,0)" d="M319.2481401257245,342.93396906665413L330.89293954496657,320.3025368011658" style="fill: none; stroke: #ccc; stroke-width: 0.5;"></path><path transform="translate(0,0)" d="M319.2481401257245,342.93396906665413L268.78843072426326,271.65450687433497" style="fill: none; stroke: #ccc; stroke-width: 0.5;"></path><path transform="translate(0,0)" d="M319.2481401257245,342.93396906665413L263.34328455849163,317.27055188687984" style="fill: none; stroke: #ccc; stroke-width: 0.5;"></path><path transform="translate(0,0)" d="M293.34775840760796,350.23350288053865L312.55017350042203,314.90497016939094" style="fill: none; stroke: #ccc; stroke-width: 0.5;"></path><path transform="translate(0,0)" d="M293.34775840760796,350.23350288053865L295.54558347657485,331.13617222629085" style="fill: none; stroke: #ccc; stroke-width: 0.5;"></path><path transform="translate(0,0)" d="M293.34775840760796,350.23350288053865L330.89293954496657,320.3025368011658" style="fill: none; stroke: #ccc; stroke-width: 0.5;"></path><path transform="translate(0,0)" d="M293.34775840760796,350.23350288053865L319.2481401257245,342.93396906665413" style="fill: none; stroke: #ccc; stroke-width: 0.5;"></path><path transform="translate(0,0)" d="M293.34775840760796,350.23350288053865L268.78843072426326,271.65450687433497" style="fill: none; stroke: #ccc; stroke-width: 0.5;"></path><path transform="translate(0,0)" d="M293.34775840760796,350.23350288053865L263.34328455849163,317.27055188687984" style="fill: none; stroke: #ccc; stroke-width: 0.5;"></path><path transform="translate(0,0)" d="M156.0062151079704,297.1236176611102L187.20908782177216,278.0572862860803" style="fill: none; stroke: #ccc; stroke-width: 0.5;"></path></g><g class="mark-symbol role-mark nodes"><path transform="translate(350.76025721941807,190.5880165041645)" d="M5.656854249492381,0A5.656854249492381,5.656854249492381,0,1,1,-5.656854249492381,0A5.656854249492381,5.656854249492381,0,1,1,5.656854249492381,0" style="fill: #1f77b4; stroke: white;"></path><path transform="translate(338.55194909685594,155.01041422499233)" d="M5.656854249492381,0A5.656854249492381,5.656854249492381,0,1,1,-5.656854249492381,0A5.656854249492381,5.656854249492381,0,1,1,5.656854249492381,0" style="fill: #1f77b4; stroke: white;"></path><path transform="translate(308.3112104108102,217.46207853970955)" d="M5.656854249492381,0A5.656854249492381,5.656854249492381,0,1,1,-5.656854249492381,0A5.656854249492381,5.656854249492381,0,1,1,5.656854249492381,0" style="fill: #1f77b4; stroke: white;"></path><path transform="translate(326.79388741829155,234.36184019974306)" d="M5.656854249492381,0A5.656854249492381,5.656854249492381,0,1,1,-5.656854249492381,0A5.656854249492381,5.656854249492381,0,1,1,5.656854249492381,0" style="fill: #1f77b4; stroke: white;"></path><path transform="translate(364.7526862692558,158.8180029539811)" d="M5.656854249492381,0A5.656854249492381,5.656854249492381,0,1,1,-5.656854249492381,0A5.656854249492381,5.656854249492381,0,1,1,5.656854249492381,0" style="fill: #1f77b4; stroke: white;"></path><path transform="translate(380.26160186994156,168.96969387343714)" d="M5.656854249492381,0A5.656854249492381,5.656854249492381,0,1,1,-5.656854249492381,0A5.656854249492381,5.656854249492381,0,1,1,5.656854249492381,0" style="fill: #1f77b4; stroke: white;"></path><path transform="translate(388.3038771448987,195.66343675310802)" d="M5.656854249492381,0A5.656854249492381,5.656854249492381,0,1,1,-5.656854249492381,0A5.656854249492381,5.656854249492381,0,1,1,5.656854249492381,0" style="fill: #1f77b4; stroke: white;"></path><path transform="translate(379.6469319969528,152.98768178244512)" d="M5.656854249492381,0A5.656854249492381,5.656854249492381,0,1,1,-5.656854249492381,0A5.656854249492381,5.656854249492381,0,1,1,5.656854249492381,0" style="fill: #1f77b4; stroke: white;"></path><path transform="translate(391.7977530894721,180.05007355580986)" d="M5.656854249492381,0A5.656854249492381,5.656854249492381,0,1,1,-5.656854249492381,0A5.656854249492381,5.656854249492381,0,1,1,5.656854249492381,0" style="fill: #1f77b4; stroke: white;"></path><path transform="translate(352.9453528597497,148.02577847963298)" d="M5.656854249492381,0A5.656854249492381,5.656854249492381,0,1,1,-5.656854249492381,0A5.656854249492381,5.656854249492381,0,1,1,5.656854249492381,0" style="fill: #1f77b4; stroke: white;"></path><path transform="translate(297.3859087566256,250.77281436793078)" d="M5.656854249492381,0A5.656854249492381,5.656854249492381,0,1,1,-5.656854249492381,0A5.656854249492381,5.656854249492381,0,1,1,5.656854249492381,0" style="fill: #aec7e8; stroke: white;"></path><path transform="translate(268.78843072426326,271.65450687433497)" d="M5.656854249492381,0A5.656854249492381,5.656854249492381,0,1,1,-5.656854249492381,0A5.656854249492381,5.656854249492381,0,1,1,5.656854249492381,0" style="fill: #aec7e8; stroke: white;"></path><path transform="translate(221.18707295504512,245.0332915258379)" d="M5.656854249492381,0A5.656854249492381,5.656854249492381,0,1,1,-5.656854249492381,0A5.656854249492381,5.656854249492381,0,1,1,5.656854249492381,0" style="fill: #ff7f0e; stroke: white;"></path><path transform="translate(305.4108420705127,266.2459746270635)" d="M5.656854249492381,0A5.656854249492381,5.656854249492381,0,1,1,-5.656854249492381,0A5.656854249492381,5.656854249492381,0,1,1,5.656854249492381,0" style="fill: #aec7e8; stroke: white;"></path><path transform="translate(291.6080980152737,296.75173493153864)" d="M5.656854249492381,0A5.656854249492381,5.656854249492381,0,1,1,-5.656854249492381,0A5.656854249492381,5.656854249492381,0,1,1,5.656854249492381,0" style="fill: #aec7e8; stroke: white;"></path><path transform="translate(277.53628241211186,237.34965792067254)" d="M5.656854249492381,0A5.656854249492381,5.656854249492381,0,1,1,-5.656854249492381,0A5.656854249492381,5.656854249492381,0,1,1,5.656854249492381,0" style="fill: #aec7e8; stroke: white;"></path><path transform="translate(126.16557241734252,216.38373560198409)" d="M5.656854249492381,0A5.656854249492381,5.656854249492381,0,1,1,-5.656854249492381,0A5.656854249492381,5.656854249492381,0,1,1,5.656854249492381,0" style="fill: #ff7f0e; stroke: white;"></path><path transform="translate(101.9049358392803,203.86311197044913)" d="M5.656854249492381,0A5.656854249492381,5.656854249492381,0,1,1,-5.656854249492381,0A5.656854249492381,5.656854249492381,0,1,1,5.656854249492381,0" style="fill: #ff7f0e; stroke: white;"></path><path transform="translate(114.33436746630954,171.3361594897548)" d="M5.656854249492381,0A5.656854249492381,5.656854249492381,0,1,1,-5.656854249492381,0A5.656854249492381,5.656854249492381,0,1,1,5.656854249492381,0" style="fill: #ff7f0e; stroke: white;"></path><path transform="translate(94.7399528531784,225.27504729694684)" d="M5.656854249492381,0A5.656854249492381,5.656854249492381,0,1,1,-5.656854249492381,0A5.656854249492381,5.656854249492381,0,1,1,5.656854249492381,0" style="fill: #ff7f0e; stroke: white;"></path><path transform="translate(92.01036038308358,179.55455093610155)" d="M5.656854249492381,0A5.656854249492381,5.656854249492381,0,1,1,-5.656854249492381,0A5.656854249492381,5.656854249492381,0,1,1,5.656854249492381,0" style="fill: #ff7f0e; stroke: white;"></path><path transform="translate(122.69425107245235,189.11281590736758)" d="M5.656854249492381,0A5.656854249492381,5.656854249492381,0,1,1,-5.656854249492381,0A5.656854249492381,5.656854249492381,0,1,1,5.656854249492381,0" style="fill: #ff7f0e; stroke: white;"></path><path transform="translate(80.45903586704279,202.79581577974633)" d="M5.656854249492381,0A5.656854249492381,5.656854249492381,0,1,1,-5.656854249492381,0A5.656854249492381,5.656854249492381,0,1,1,5.656854249492381,0" style="fill: #ff7f0e; stroke: white;"></path><path transform="translate(160.91467934747948,232.50043305514174)" d="M5.656854249492381,0A5.656854249492381,5.656854249492381,0,1,1,-5.656854249492381,0A5.656854249492381,5.656854249492381,0,1,1,5.656854249492381,0" style="fill: #ff7f0e; stroke: white;"></path><path transform="translate(212.57663813638106,262.3464856139416)" d="M5.656854249492381,0A5.656854249492381,5.656854249492381,0,1,1,-5.656854249492381,0A5.656854249492381,5.656854249492381,0,1,1,5.656854249492381,0" style="fill: #ffbb78; stroke: white;"></path><path transform="translate(187.20908782177216,278.0572862860803)" d="M5.656854249492381,0A5.656854249492381,5.656854249492381,0,1,1,-5.656854249492381,0A5.656854249492381,5.656854249492381,0,1,1,5.656854249492381,0" style="fill: #ffbb78; stroke: white;"></path><path transform="translate(194.32079091955114,247.2802081223205)" d="M5.656854249492381,0A5.656854249492381,5.656854249492381,0,1,1,-5.656854249492381,0A5.656854249492381,5.656854249492381,0,1,1,5.656854249492381,0" style="fill: #2ca02c; stroke: white;"></path><path transform="translate(210.6417858671533,289.26732550582926)" d="M5.656854249492381,0A5.656854249492381,5.656854249492381,0,1,1,-5.656854249492381,0A5.656854249492381,5.656854249492381,0,1,1,5.656854249492381,0" style="fill: #ffbb78; stroke: white;"></path><path transform="translate(243.51185749416945,305.7085526217686)" d="M5.656854249492381,0A5.656854249492381,5.656854249492381,0,1,1,-5.656854249492381,0A5.656854249492381,5.656854249492381,0,1,1,5.656854249492381,0" style="fill: #98df8a; stroke: white;"></path><path transform="translate(263.34328455849163,317.27055188687984)" d="M5.656854249492381,0A5.656854249492381,5.656854249492381,0,1,1,-5.656854249492381,0A5.656854249492381,5.656854249492381,0,1,1,5.656854249492381,0" style="fill: #aec7e8; stroke: white;"></path><path transform="translate(182.02979797955976,201.44973953674855)" d="M5.656854249492381,0A5.656854249492381,5.656854249492381,0,1,1,-5.656854249492381,0A5.656854249492381,5.656854249492381,0,1,1,5.656854249492381,0" style="fill: #ff7f0e; stroke: white;"></path><path transform="translate(209.50988473436865,234.1000914607829)" d="M5.656854249492381,0A5.656854249492381,5.656854249492381,0,1,1,-5.656854249492381,0A5.656854249492381,5.656854249492381,0,1,1,5.656854249492381,0" style="fill: #aec7e8; stroke: white;"></path><path transform="translate(303.23827154853166,282.0971858117)" d="M5.656854249492381,0A5.656854249492381,5.656854249492381,0,1,1,-5.656854249492381,0A5.656854249492381,5.656854249492381,0,1,1,5.656854249492381,0" style="fill: #aec7e8; stroke: white;"></path><path transform="translate(241.7502972144722,289.8065913648062)" d="M5.656854249492381,0A5.656854249492381,5.656854249492381,0,1,1,-5.656854249492381,0A5.656854249492381,5.656854249492381,0,1,1,5.656854249492381,0" style="fill: #aec7e8; stroke: white;"></path><path transform="translate(312.55017350042203,314.90497016939094)" d="M5.656854249492381,0A5.656854249492381,5.656854249492381,0,1,1,-5.656854249492381,0A5.656854249492381,5.656854249492381,0,1,1,5.656854249492381,0" style="fill: #aec7e8; stroke: white;"></path><path transform="translate(295.54558347657485,331.13617222629085)" d="M5.656854249492381,0A5.656854249492381,5.656854249492381,0,1,1,-5.656854249492381,0A5.656854249492381,5.656854249492381,0,1,1,5.656854249492381,0" style="fill: #aec7e8; stroke: white;"></path><path transform="translate(330.89293954496657,320.3025368011658)" d="M5.656854249492381,0A5.656854249492381,5.656854249492381,0,1,1,-5.656854249492381,0A5.656854249492381,5.656854249492381,0,1,1,5.656854249492381,0" style="fill: #aec7e8; stroke: white;"></path><path transform="translate(319.2481401257245,342.93396906665413)" d="M5.656854249492381,0A5.656854249492381,5.656854249492381,0,1,1,-5.656854249492381,0A5.656854249492381,5.656854249492381,0,1,1,5.656854249492381,0" style="fill: #aec7e8; stroke: white;"></path><path transform="translate(293.34775840760796,350.23350288053865)" d="M5.656854249492381,0A5.656854249492381,5.656854249492381,0,1,1,-5.656854249492381,0A5.656854249492381,5.656854249492381,0,1,1,5.656854249492381,0" style="fill: #aec7e8; stroke: white;"></path><path transform="translate(156.0062151079704,297.1236176611102)" d="M5.656854249492381,0A5.656854249492381,5.656854249492381,0,1,1,-5.656854249492381,0A5.656854249492381,5.656854249492381,0,1,1,5.656854249492381,0" style="fill: #ffbb78; stroke: white;"></path><path transform="translate(156.93544352838575,595.4748388464394)" d="M5.656854249492381,0A5.656854249492381,5.656854249492381,0,1,1,-5.656854249492381,0A5.656854249492381,5.656854249492381,0,1,1,5.656854249492381,0" style="fill: #d62728; stroke: white;"></path></g></g></g></g></g></svg>