<svg class="marks" width="644" height="510" viewBox="0 0 644 510" version="1.1" xmlns="http://www.w3.org/2000/svg" xmlns:xlink="http://www.w3.org/1999/xlink"><rect width="644" height="510" style="fill: #ffffff;"></rect><defs><linearGradient id="gradient_0" x1="0" x2="1" y1="0" y2="0"><stop offset="0" stop-color="rgb(207, 225, 242)"></stop><stop offset="0.05" stop-color="rgb(198, 220, 239)"></stop><stop offset="0.1" stop-color="rgb(187, 215, 235)"></stop><stop offset="0.15" stop-color="rgb(175, 209, 231)"></stop><stop offset="0.2" stop-color="rgb(162, 203, 227)"></stop><stop offset="0.25" stop-color="rgb(147, 195, 223)"></stop><stop offset="0.3" stop-color="rgb(132, 187, 219)"></stop><stop offset="0.35" stop-color="rgb(116, 178, 215)"></stop><stop offset="0.4" stop-color="rgb(101, 170, 211)"></stop><stop offset="0.45" stop-color="rgb(88, 160, 206)"></stop><stop offset="0.5" stop-color="rgb(75, 151, 201)"></stop><stop offset="0.55" stop-color="rgb(63, 141, 196)"></stop><stop offset="0.6" stop-color="rgb(52, 131, 190)"></stop><stop offset="0.65" stop-color="rgb(42, 121, 184)"></stop><stop offset="0.7" stop-color="rgb(32, 111, 178)"></stop><stop offset="0.75" stop-color="rgb(24, 100, 170)"></stop><stop offset="0.8" stop-color="rgb(17, 90, 161)"></stop><stop offset="0.85" stop-color="rgb(12, 80, 151)"></stop><stop offset="0.9" stop-color="rgb(9, 69, 137)"></stop><stop offset="0.95" stop-color="rgb(8, 59, 123)"></stop><stop offset="1" stop-color="rgb(8, 48, 107)"></stop></linearGradient></defs><g transform="translate(124,5)"><g class="mark-group role-frame root"><g transform="translate(0,0)"><path class="background" d="M0,0h400v500h-400Z" style="fill: none;"></path><g><g class="mark-path role-mark"><path transform="translate(0,0)" d="M0,245C75,245 75,80 150,80" style="fill: none; stroke: #ccc;"></path><path transform="translate(0,0)" d="M0,245C75,245 75,100 150,100" style="fill: none; stroke: #ccc;"></path><path transform="translate(0,0)" d="M0,245C75,245 75,260 150,260" style="fill: none; stroke: #ccc;"></path><path transform="translate(0,0)" d="M0,245C75,245 75,335 150,335" style="fill: none; stroke: #ccc;"></path><path transform="translate(0,0)" d="M0,245C75,245 75,410 150,410" style="fill: none; stroke: #ccc;"></path><path transform="translate(0,0)" d="M150,100C225,100 225,20 300,20" style="fill: none; stroke: #ccc;"></path><path transform="translate(0,0)" d="M150,260C225,260 225,220 300,220" style="fill: none; stroke: #ccc;"></path><path transform="translate(0,0)" d="M150,410C225,410 225,340 300,340" style="fill: none; stroke: #ccc;"></path><path transform="translate(0,0)" d="M150,410C225,410 225,360 300,360" style="fill: none; stroke: #ccc;"></path><path transform="translate(0,0)" d="M150,100C225,100 225,40 300,40" style="fill: none; stroke: #ccc;"></path><path transform="translate(0,0)" d="M150,410C225,410 225,380 300,380" style="fill: none; stroke: #ccc;"></path><path transform="translate(0,0)" d="M150,260C225,260 225,240 300,240" style="fill: none; stroke: #ccc;"></path><path transform="translate(0,0)" d="M150,260C225,260 225,260 300,260" style="fill: none; stroke: #ccc;"></path><path transform="translate(0,0)" d="M150,100C225,100 225,60 300,60" style="fill: none; stroke: #ccc;"></path><path transform="translate(0,0)" d="M150,260C225,260 225,280 300,280" style="fill: none; stroke: #ccc;"></path><path transform="translate(0,0)" d="M150,100C225,100 225,80 300,80" style="fill: none; stroke: #ccc;"></path><path transform="translate(0,0)" d="M150,100C225,100 225,100 300,100" style="fill: none; stroke: #ccc;"></path><path transform="translate(0,0)" d="M150,100C225,100 225,120 300,120" style="fill: none; stroke: #ccc;"></path><path transform="translate(0,0)" d="M150,410C225,410 225,400 300,400" style="fill: none; stroke: #ccc;"></path><path transform="translate(0,0)" d="M150,100C225,100 225,140 300,140" style="fill: none; stroke: #ccc;"></path><path transform="translate(0,0)" d="M150,100C225,100 225,160 300,160" style="fill: none; stroke: #ccc;"></path><path transform="translate(0,0)" d="M150,260C225,260 225,300 300,300" style="fill: none; stroke: #ccc;"></path><path transform="translate(0,0)" d="M150,410C225,410 225,420 300,420" style="fill: none; stroke: #ccc;"></path><path transform="translate(0,0)" d="M150,100C225,100 225,180 300,180" style="fill: none; stroke: #ccc;"></path><path transform="translate(0,0)" d="M150,410C225,410 225,440 300,440" style="fill: none; stroke: #ccc;"></path><path transform="translate(0,0)" d="M150,410C225,410 225,460 300,460" style="fill: none; stroke: #ccc;"></path><path transform="translate(0,0)" d="M150,410C225,410 225,480 300,480" style="fill: none; stroke: #ccc;"></path></g><g class="mark-symbol role-mark"><path transform="translate(0,245)" d="M7.0710678118654755,0A7.0710678118654755,7.0710678118654755,0,1,1,-7.0710678118654755,0A7.0710678118654755,7.0710678118654755,0,1,1,7.0710678118654755,0" style="fill: rgb(153, 199, 225); stroke: #fff;"></path><path transform="translate(150,80)" d="M7.0710678118654755,0A7.0710678118654755,7.0710678118654755,0,1,1,-7.0710678118654755,0A7.0710678118654755,7.0710678118654755,0,1,1,7.0710678118654755,0" style="fill: rgb(108, 173, 213); stroke: #fff;"></path><path transform="translate(150,100)" d="M7.0710678118654755,0A7.0710678118654755,7.0710678118654755,0,1,1,-7.0710678118654755,0A7.0710678118654755,7.0710678118654755,0,1,1,7.0710678118654755,0" style="fill: rgb(173, 208, 231); stroke: #fff;"></path><path transform="translate(150,260)" d="M7.0710678118654755,0A7.0710678118654755,7.0710678118654755,0,1,1,-7.0710678118654755,0A7.0710678118654755,7.0710678118654755,0,1,1,7.0710678118654755,0" style="fill: rgb(128, 186, 218); stroke: #fff;"></path><path transform="translate(150,335)" d="M7.0710678118654755,0A7.0710678118654755,7.0710678118654755,0,1,1,-7.0710678118654755,0A7.0710678118654755,7.0710678118654755,0,1,1,7.0710678118654755,0" style="fill: rgb(129, 186, 219); stroke: #fff;"></path><path transform="translate(150,410)" d="M7.0710678118654755,0A7.0710678118654755,7.0710678118654755,0,1,1,-7.0710678118654755,0A7.0710678118654755,7.0710678118654755,0,1,1,7.0710678118654755,0" style="fill: rgb(177, 210, 232); stroke: #fff;"></path><path transform="translate(300,20)" d="M7.0710678118654755,0A7.0710678118654755,7.0710678118654755,0,1,1,-7.0710678118654755,0A7.0710678118654755,7.0710678118654755,0,1,1,7.0710678118654755,0" style="fill: rgb(192, 217, 237); stroke: #fff;"></path><path transform="translate(300,220)" d="M7.0710678118654755,0A7.0710678118654755,7.0710678118654755,0,1,1,-7.0710678118654755,0A7.0710678118654755,7.0710678118654755,0,1,1,7.0710678118654755,0" style="fill: rgb(156, 200, 226); stroke: #fff;"></path><path transform="translate(300,340)" d="M7.0710678118654755,0A7.0710678118654755,7.0710678118654755,0,1,1,-7.0710678118654755,0A7.0710678118654755,7.0710678118654755,0,1,1,7.0710678118654755,0" style="fill: rgb(170, 207, 230); stroke: #fff;"></path><path transform="translate(300,360)" d="M7.0710678118654755,0A7.0710678118654755,7.0710678118654755,0,1,1,-7.0710678118654755,0A7.0710678118654755,7.0710678118654755,0,1,1,7.0710678118654755,0" style="fill: rgb(166, 205, 228); stroke: #fff;"></path><path transform="translate(300,40)" d="M7.0710678118654755,0A7.0710678118654755,7.0710678118654755,0,1,1,-7.0710678118654755,0A7.0710678118654755,7.0710678118654755,0,1,1,7.0710678118654755,0" style="fill: rgb(190, 216, 236); stroke: #fff;"></path><path transform="translate(300,380)" d="M7.0710678118654755,0A7.0710678118654755,7.0710678118654755,0,1,1,-7.0710678118654755,0A7.0710678118654755,7.0710678118654755,0,1,1,7.0710678118654755,0" style="fill: rgb(178, 211, 232); stroke: #fff;"></path><path transform="translate(300,240)" d="M7.0710678118654755,0A7.0710678118654755,7.0710678118654755,0,1,1,-7.0710678118654755,0A7.0710678118654755,7.0710678118654755,0,1,1,7.0710678118654755,0" style="fill: rgb(198, 220, 239); stroke: #fff;"></path><path transform="translate(300,260)" d="M7.0710678118654755,0A7.0710678118654755,7.0710678118654755,0,1,1,-7.0710678118654755,0A7.0710678118654755,7.0710678118654755,0,1,1,7.0710678118654755,0" style="fill: rgb(116, 178, 215); stroke: #fff;"></path><path transform="translate(300,60)" d="M7.0710678118654755,0A7.0710678118654755,7.0710678118654755,0,1,1,-7.0710678118654755,0A7.0710678118654755,7.0710678118654755,0,1,1,7.0710678118654755,0" style="fill: rgb(191, 217, 237); stroke: #fff;"></path><path transform="translate(300,280)" d="M7.0710678118654755,0A7.0710678118654755,7.0710678118654755,0,1,1,-7.0710678118654755,0A7.0710678118654755,7.0710678118654755,0,1,1,7.0710678118654755,0" style="fill: rgb(157, 200, 226); stroke: #fff;"></path><path transform="translate(300,80)" d="M7.0710678118654755,0A7.0710678118654755,7.0710678118654755,0,1,1,-7.0710678118654755,0A7.0710678118654755,7.0710678118654755,0,1,1,7.0710678118654755,0" style="fill: rgb(190, 216, 236); stroke: #fff;"></path><path transform="translate(300,100)" d="M7.0710678118654755,0A7.0710678118654755,7.0710678118654755,0,1,1,-7.0710678118654755,0A7.0710678118654755,7.0710678118654755,0,1,1,7.0710678118654755,0" style="fill: rgb(166, 205, 228); stroke: #fff;"></path><path transform="translate(300,120)" d="M7.0710678118654755,0A7.0710678118654755,7.0710678118654755,0,1,1,-7.0710678118654755,0A7.0710678118654755,7.0710678118654755,0,1,1,7.0710678118654755,0" style="fill: rgb(154, 199, 225); stroke: #fff;"></path><path transform="translate(300,400)" d="M7.0710678118654755,0A7.0710678118654755,7.0710678118654755,0,1,1,-7.0710678118654755,0A7.0710678118654755,7.0710678118654755,0,1,1,7.0710678118654755,0" style="fill: rgb(201, 222, 240); stroke: #fff;"></path><path transform="translate(300,140)" d="M7.0710678118654755,0A7.0710678118654755,7.0710678118654755,0,1,1,-7.0710678118654755,0A7.0710678118654755,7.0710678118654755,0,1,1,7.0710678118654755,0" style="fill: rgb(176, 209, 231); stroke: #fff;"></path><path transform="translate(300,160)" d="M7.0710678118654755,0A7.0710678118654755,7.0710678118654755,0,1,1,-7.0710678118654755,0A7.0710678118654755,7.0710678118654755,0,1,1,7.0710678118654755,0" style="fill: rgb(188, 215, 235); stroke: #fff;"></path><path transform="translate(300,300)" d="M7.0710678118654755,0A7.0710678118654755,7.0710678118654755,0,1,1,-7.0710678118654755,0A7.0710678118654755,7.0710678118654755,0,1,1,7.0710678118654755,0" style="fill: rgb(144, 194, 222); stroke: #fff;"></path><path transform="translate(300,420)" d="M7.0710678118654755,0A7.0710678118654755,7.0710678118654755,0,1,1,-7.0710678118654755,0A7.0710678118654755,7.0710678118654755,0,1,1,7.0710678118654755,0" style="fill: rgb(174, 208, 231); stroke: #fff;"></path><path transform="translate(300,180)" d="M7.0710678118654755,0A7.0710678118654755,7.0710678118654755,0,1,1,-7.0710678118654755,0A7.0710678118654755,7.0710678118654755,0,1,1,7.0710678118654755,0" style="fill: rgb(171, 207, 230); stroke: #fff;"></path><path transform="translate(300,440)" d="M7.0710678118654755,0A7.0710678118654755,7.0710678118654755,0,1,1,-7.0710678118654755,0A7.0710678118654755,7.0710678118654755,0,1,1,7.0710678118654755,0" style="fill: rgb(183, 213, 234); stroke: #fff;"></path><path transform="translate(300,460)" d="M7.0710678118654755,0A7.0710678118654755,7.0710678118654755,0,1,1,-7.0710678118654755,0A7.0710678118654755,7.0710678118654755,0,1,1,7.0710678118654755,0" style="fill: rgb(181, 212, 233); stroke: #fff;"></path><path transform="translate(300,480)" d="M7.0710678118654755,0A7.0710678118654755,7.0710678118654755,0,1,1,-7.0710678118654755,0A7.0710678118654755,7.0710678118654755,0,1,1,7.0710678118654755,0" style="fill: rgb(182, 213, 234); stroke: #fff;"></path></g><g class="mark-text role-mark"><text text-anchor="end" transform="translate(-10,248)" style="font: 10px sans-serif; fill: #000; opacity: 1;">Complaints</text><text text-anchor="start" transform="translate(160,83)" style="font: 10px sans-serif; fill: #000; opacity: 1;">Credit card</text><text text-anchor="end" transform="translate(140,103)" style="font: 10px sans-serif; fill: #000; opacity: 1;">Debt collection</text><text text-anchor="end" transform="translate(140,263)" style="font: 10px sans-serif; fill: #000; opacity: 1;">Bank account or service</text><text text-anchor="start" transform="translate(160,338)" style="font: 10px sans-serif; fill: #000; opacity: 1;">Credit reporting</text><text text-anchor="end" transform="translate(140,413)" style="font: 10px sans-serif; fill: #000; opacity: 1;">Mortgage</text><text text-anchor="start" transform="translate(310,23)" style="font: 10px sans-serif; fill: #000; opacity: 1;">Mortgage</text><text text-anchor="start" transform="translate(310,223)" style="font: 10px sans-serif; fill: #000; opacity: 1;">Other bank product/service</text><text text-anchor="start" transform="translate(310,343)" style="font: 10px sans-serif; fill: #000; opacity: 1;">Home equity loan or line of credit</text><text text-anchor="start" transform="translate(310,363)" style="font: 10px sans-serif; fill: #000; opacity: 1;">Second mortgage</text><text text-anchor="start" transform="translate(310,43)" style="font: 10px sans-serif; fill: #000; opacity: 1;">Auto</text><text text-anchor="start" transform="translate(310,383)" style="font: 10px sans-serif; fill: #000; opacity: 1;">Conventional fixed mortgage</text><text text-anchor="start" transform="translate(310,243)" style="font: 10px sans-serif; fill: #000; opacity: 1;">Cashing a check without an account</text><text text-anchor="start" transform="translate(310,263)" style="font: 10px sans-serif; fill: #000; opacity: 1;">Checking account</text><text text-anchor="start" transform="translate(310,63)" style="font: 10px sans-serif; fill: #000; opacity: 1;">Payday loan</text><text text-anchor="start" transform="translate(310,283)" style="font: 10px sans-serif; fill: #000; opacity: 1;">(CD) Certificate of deposit</text><text text-anchor="start" transform="translate(310,83)" style="font: 10px sans-serif; fill: #000; opacity: 1;">Medical</text><text text-anchor="start" transform="translate(310,103)" style="font: 10px sans-serif; fill: #000; opacity: 1;">Other (i.e. phone, health club, etc.)</text><text text-anchor="start" transform="translate(310,123)" style="font: 10px sans-serif; fill: #000; opacity: 1;">Credit card</text><text text-anchor="start" transform="translate(310,403)" style="font: 10px sans-serif; fill: #000; opacity: 1;">Reverse mortgage</text><text text-anchor="start" transform="translate(310,143)" style="font: 10px sans-serif; fill: #000; opacity: 1;">I do not know</text><text text-anchor="start" transform="translate(310,163)" style="font: 10px sans-serif; fill: #000; opacity: 1;">Non-federal student loan</text><text text-anchor="start" transform="translate(310,303)" style="font: 10px sans-serif; fill: #000; opacity: 1;">Savings account</text><text text-anchor="start" transform="translate(310,423)" style="font: 10px sans-serif; fill: #000; opacity: 1;">Other mortgage</text><text text-anchor="start" transform="translate(310,183)" style="font: 10px sans-serif; fill: #000; opacity: 1;">Federal student loan</text><text text-anchor="start" transform="translate(310,443)" style="font: 10px sans-serif; fill: #000; opacity: 1;">Conventional adjustable mortgage (ARM)</text><text text-anchor="start" transform="translate(310,463)" style="font: 10px sans-serif; fill: #000; opacity: 1;">VA mortgage</text><text text-anchor="start" transform="translate(310,483)" style="font: 10px sans-serif; fill: #000; opacity: 1;">FHA mortgage</text></g><g class="mark-group role-legend"><g transform="translate(-119,0)"><path class="background" d="M0,0h101v49h-101Z" style="pointer-events: none; fill: none;"></path><g><g class="mark-group role-legend-entry"><g transform="translate(0,16)"><path class="background" d="M0,0h0v0h0Z" style="pointer-events: none; fill: none;"></path><g><g class="mark-rect role-legend-gradient" style="pointer-events: none;"><path d="M0,0h100v20h-100Z" style="fill: url(#gradient_0); stroke: #ddd; stroke-width: 0; opacity: 1;"></path></g><g class="mark-text role-legend-label" style="pointer-events: none;"><text text-anchor="start" transform="translate(0,30)" style="font: 10px sans-serif; fill: #000; opacity: 1;">0.0</text><text text-anchor="end" transform="translate(100,30)" style="font: 10px sans-serif; fill: #000; opacity: 1;">1.0</text></g></g></g></g><g class="mark-text role-legend-title" style="pointer-events: none;"><text text-anchor="start" transform="translate(0,9)" style="font: bold 11px sans-serif; fill: #000; opacity: 1;">Relief received</text></g></g></g></g></g></g></g></g></svg>