<svg class="marks" width="1096" height="505" viewBox="0 0 1096 505" version="1.1" xmlns="http://www.w3.org/2000/svg" xmlns:xlink="http://www.w3.org/1999/xlink"><rect width="1096" height="505" style="fill: #ffffff;"></rect><defs><linearGradient id="gradient_0" x1="0" x2="1" y1="0" y2="0"><stop offset="0" stop-color="rgb(207, 225, 242)"></stop><stop offset="0.05" stop-color="rgb(198, 220, 239)"></stop><stop offset="0.1" stop-color="rgb(187, 215, 235)"></stop><stop offset="0.15" stop-color="rgb(175, 209, 231)"></stop><stop offset="0.2" stop-color="rgb(162, 203, 227)"></stop><stop offset="0.25" stop-color="rgb(147, 195, 223)"></stop><stop offset="0.3" stop-color="rgb(132, 187, 219)"></stop><stop offset="0.35" stop-color="rgb(116, 178, 215)"></stop><stop offset="0.4" stop-color="rgb(101, 170, 211)"></stop><stop offset="0.45" stop-color="rgb(88, 160, 206)"></stop><stop offset="0.5" stop-color="rgb(75, 151, 201)"></stop><stop offset="0.55" stop-color="rgb(63, 141, 196)"></stop><stop offset="0.6" stop-color="rgb(52, 131, 190)"></stop><stop offset="0.65" stop-color="rgb(42, 121, 184)"></stop><stop offset="0.7" stop-color="rgb(32, 111, 178)"></stop><stop offset="0.75" stop-color="rgb(24, 100, 170)"></stop><stop offset="0.8" stop-color="rgb(17, 90, 161)"></stop><stop offset="0.85" stop-color="rgb(12, 80, 151)"></stop><stop offset="0.9" stop-color="rgb(9, 69, 137)"></stop><stop offset="0.95" stop-color="rgb(8, 59, 123)"></stop><stop offset="1" stop-color="rgb(8, 48, 107)"></stop></linearGradient></defs><g transform="translate(14.5,2.5)"><g class="mark-group role-frame root"><g transform="translate(0,0)"><path class="background" d="M0,0h960v500h-960Z" style="fill: none;"></path><g><g class="mark-rect role-mark" style="pointer-events: none;"><path d="M0,0h960v500h-960Z" style="fill: #4c78a8;"></path><path d="M2,118h309v380h-309Z" style="fill: #4c78a8;"></path><path d="M313,2h253v275h-253Z" style="fill: #4c78a8;"></path><path d="M568,2h390v496h-390Z" style="fill: #4c78a8;"></path></g><g class="mark-rect role-mark"><path d="M2,2h309v114h-309Z" style="fill: rgb(108, 173, 213);"></path><path d="M313,279h253v219h-253Z" style="fill: rgb(129, 186, 219);"></path><path d="M4,120h18v105h-18Z" style="fill: rgb(192, 217, 237);"></path><path d="M315,4h240v26h-240Z" style="fill: rgb(156, 200, 226);"></path><path d="M570,4h53v88h-53Z" style="fill: rgb(170, 207, 230);"></path><path d="M625,4h2v88h-2Z" style="fill: rgb(166, 205, 228);"></path><path d="M24,120h13v105h-13Z" style="fill: rgb(190, 216, 236);"></path><path d="M629,4h327v88h-327Z" style="fill: rgb(178, 211, 232);"></path><path d="M557,4h7v26h-7Z" style="fill: rgb(198, 220, 239);"></path><path d="M315,32h94v243h-94Z" style="fill: rgb(116, 178, 215);"></path><path d="M39,120h28v105h-28Z" style="fill: rgb(191, 217, 237);"></path><path d="M411,32h55v22h-55Z" style="fill: rgb(157, 200, 226);"></path><path d="M69,120h76v105h-76Z" style="fill: rgb(190, 216, 236);"></path><path d="M147,120h162v105h-162Z" style="fill: rgb(166, 205, 228);"></path><path d="M4,227h83v134h-83Z" style="fill: rgb(154, 199, 225);"></path><path d="M570,94h7v94h-7Z" style="fill: rgb(201, 222, 240);"></path><path d="M4,363h83v133h-83Z" style="fill: rgb(176, 209, 231);"></path><path d="M89,227h132v8h-132Z" style="fill: rgb(188, 215, 235);"></path><path d="M468,32h96v22h-96Z" style="fill: rgb(144, 194, 222);"></path><path d="M579,94h377v94h-377Z" style="fill: rgb(174, 208, 231);"></path><path d="M223,227h86v8h-86Z" style="fill: rgb(171, 207, 230);"></path><path d="M570,190h75v137h-75Z" style="fill: rgb(183, 213, 234);"></path><path d="M570,329h75v27h-75Z" style="fill: rgb(181, 212, 233);"></path><path d="M570,358h75v138h-75Z" style="fill: rgb(182, 213, 234);"></path></g><g class="mark-text role-mark" style="pointer-events: none;"><text text-anchor="middle" transform="translate(480,286)" style="font: 120px sans-serif; fill: #000; fill-opacity: 0.15;">Complaints</text><text text-anchor="middle" transform="translate(156.5,67)" style="font: 28px sans-serif; fill: #000; fill-opacity: 0.5;">Credit card</text><text text-anchor="middle" transform="translate(156.5,316)" style="font: 28px sans-serif; fill: #000; fill-opacity: 0.5;">Debt collection</text><text text-anchor="middle" transform="translate(439.5,147.5)" style="font: 28px sans-serif; fill: #000; fill-opacity: 0.5;">Bank account or service</text><text text-anchor="middle" transform="translate(439.5,396.5)" style="font: 28px sans-serif; fill: #000; fill-opacity: 0.5;">Credit reporting</text><text text-anchor="middle" transform="translate(763,258)" style="font: 28px sans-serif; fill: #000; fill-opacity: 0.5;">Mortgage</text><text text-anchor="middle" transform="translate(13,175.5)" style="font: 10px sans-serif; fill: #000; fill-opacity: 0.8;">Mortgage</text><text text-anchor="middle" transform="translate(435,20)" style="font: 10px sans-serif; fill: #000; fill-opacity: 0.8;">Other bank product/service</text><text text-anchor="middle" transform="translate(596.5,51)" style="font: 10px sans-serif; fill: #000; fill-opacity: 0.8;">Home equity loan or line of credit</text><text text-anchor="middle" transform="translate(626,51)" style="font: 10px sans-serif; fill: #000; fill-opacity: 0.8;">Second mortgage</text><text text-anchor="middle" transform="translate(30.5,175.5)" style="font: 10px sans-serif; fill: #000; fill-opacity: 0.8;">Auto</text><text text-anchor="middle" transform="translate(792.5,51)" style="font: 10px sans-serif; fill: #000; fill-opacity: 0.8;">Conventional fixed mortgage</text><text text-anchor="middle" transform="translate(560.5,20)" style="font: 10px sans-serif; fill: #000; fill-opacity: 0.8;">Cashing a check without an account</text><text text-anchor="middle" transform="translate(362,156.5)" style="font: 10px sans-serif; fill: #000; fill-opacity: 0.8;">Checking account</text><text text-anchor="middle" transform="translate(53,175.5)" style="font: 10px sans-serif; fill: #000; fill-opacity: 0.8;">Payday loan</text><text text-anchor="middle" transform="translate(438.5,46)" style="font: 10px sans-serif; fill: #000; fill-opacity: 0.8;">(CD) Certificate of deposit</text><text text-anchor="middle" transform="translate(107,175.5)" style="font: 10px sans-serif; fill: #000; fill-opacity: 0.8;">Medical</text><text text-anchor="middle" transform="translate(228,175.5)" style="font: 10px sans-serif; fill: #000; fill-opacity: 0.8;">Other (i.e. phone, health club, etc.)</text><text text-anchor="middle" transform="translate(45.5,297)" style="font: 10px sans-serif; fill: #000; fill-opacity: 0.8;">Credit card</text><text text-anchor="middle" transform="translate(573.5,144)" style="font: 10px sans-serif; fill: #000; fill-opacity: 0.8;">Reverse mortgage</text><text text-anchor="middle" transform="translate(45.5,432.5)" style="font: 10px sans-serif; fill: #000; fill-opacity: 0.8;">I do not know</text><text text-anchor="middle" transform="translate(155,234)" style="font: 10px sans-serif; fill: #000; fill-opacity: 0.8;">Non-federal student loan</text><text text-anchor="middle" transform="translate(516,46)" style="font: 10px sans-serif; fill: #000; fill-opacity: 0.8;">Savings account</text><text text-anchor="middle" transform="translate(767.5,144)" style="font: 10px sans-serif; fill: #000; fill-opacity: 0.8;">Other mortgage</text><text text-anchor="middle" transform="translate(266,234)" style="font: 10px sans-serif; fill: #000; fill-opacity: 0.8;">Federal student loan</text><text text-anchor="middle" transform="translate(607.5,261.5)" style="font: 10px sans-serif; fill: #000; fill-opacity: 0.8;">Conventional adjustable mortgage (ARM)</text><text text-anchor="middle" transform="translate(607.5,345.5)" style="font: 10px sans-serif; fill: #000; fill-opacity: 0.8;">VA mortgage</text><text text-anchor="middle" transform="translate(607.5,430)" style="font: 10px sans-serif; fill: #000; fill-opacity: 0.8;">FHA mortgage</text></g><g class="mark-group role-legend"><g transform="translate(978,0)"><path class="background" d="M0,0h101v49h-101Z" style="pointer-events: none; fill: none;"></path><g><g class="mark-group role-legend-entry"><g transform="translate(0,16)"><path class="background" d="M0,0h0v0h0Z" style="pointer-events: none; fill: none;"></path><g><g class="mark-rect role-legend-gradient" style="pointer-events: none;"><path d="M0,0h100v20h-100Z" style="fill: url(#gradient_0); stroke: #ddd; stroke-width: 0; opacity: 1;"></path></g><g class="mark-text role-legend-label" style="pointer-events: none;"><text text-anchor="start" transform="translate(0,30)" style="font: 10px sans-serif; fill: #000; opacity: 1;">0.0</text><text text-anchor="end" transform="translate(100,30)" style="font: 10px sans-serif; fill: #000; opacity: 1;">1.0</text></g></g></g></g><g class="mark-text role-legend-title" style="pointer-events: none;"><text text-anchor="start" transform="translate(0,9)" style="font: bold 11px sans-serif; fill: #000; opacity: 1;">Relief received</text></g></g></g></g></g></g></g></g></svg>