<svg class="marks" width="725" height="605" viewBox="0 0 725 605" version="1.1" xmlns="http://www.w3.org/2000/svg" xmlns:xlink="http://www.w3.org/1999/xlink"><rect width="725" height="605" style="fill: #ffffff;"></rect><defs><linearGradient id="gradient_0" x1="0" x2="1" y1="0" y2="0"><stop offset="0" stop-color="rgb(207, 225, 242)"></stop><stop offset="0.05" stop-color="rgb(198, 220, 239)"></stop><stop offset="0.1" stop-color="rgb(187, 215, 235)"></stop><stop offset="0.15" stop-color="rgb(175, 209, 231)"></stop><stop offset="0.2" stop-color="rgb(162, 203, 227)"></stop><stop offset="0.25" stop-color="rgb(147, 195, 223)"></stop><stop offset="0.3" stop-color="rgb(132, 187, 219)"></stop><stop offset="0.35" stop-color="rgb(116, 178, 215)"></stop><stop offset="0.4" stop-color="rgb(101, 170, 211)"></stop><stop offset="0.45" stop-color="rgb(88, 160, 206)"></stop><stop offset="0.5" stop-color="rgb(75, 151, 201)"></stop><stop offset="0.55" stop-color="rgb(63, 141, 196)"></stop><stop offset="0.6" stop-color="rgb(52, 131, 190)"></stop><stop offset="0.65" stop-color="rgb(42, 121, 184)"></stop><stop offset="0.7" stop-color="rgb(32, 111, 178)"></stop><stop offset="0.75" stop-color="rgb(24, 100, 170)"></stop><stop offset="0.8" stop-color="rgb(17, 90, 161)"></stop><stop offset="0.85" stop-color="rgb(12, 80, 151)"></stop><stop offset="0.9" stop-color="rgb(9, 69, 137)"></stop><stop offset="0.95" stop-color="rgb(8, 59, 123)"></stop><stop offset="1" stop-color="rgb(8, 48, 107)"></stop></linearGradient></defs><g transform="translate(3.5,2.5)"><g class="mark-group role-frame root"><g transform="translate(0,0)"><path class="background" d="M0,0h600v600h-600Z" style="fill: none;"></path><g><g class="mark-arc role-mark"><path transform="translate(300,300)" d="M6.123233995736766e-15,-100A100,100,0,1,1,-6.123233995736766e-15,100A100,100,0,1,1,6.123233995736766e-15,-100Z" style="fill: rgb(153, 199, 225); stroke: white; stroke-width: 0.5;"></path><path transform="translate(300,300)" d="M1.2246467991473532e-14,-200A200,200,0,0,1,91.74177077009736,-177.7173246928023L45.87088538504868,-88.85866234640115A100,100,0,0,0,6.123233995736766e-15,-100Z" style="fill: rgb(108, 173, 213); stroke: white; stroke-width: 0.5;"></path><path transform="translate(300,300)" d="M167.44463201122068,109.3722780718537A200,200,0,0,1,-108.43634938681302,168.05224821959692L-54.21817469340651,84.02612410979846A100,100,0,0,0,83.72231600561034,54.68613903592685Z" style="fill: rgb(173, 208, 231); stroke: white; stroke-width: 0.5;"></path><path transform="translate(300,300)" d="M187.7133721770778,-69.01948931939359A200,200,0,0,1,167.44463201122068,109.3722780718537L83.72231600561034,54.68613903592685A100,100,0,0,0,93.8566860885389,-34.50974465969679Z" style="fill: rgb(128, 186, 218); stroke: white; stroke-width: 0.5;"></path><path transform="translate(300,300)" d="M91.74177077009736,-177.7173246928023A200,200,0,0,1,187.7133721770778,-69.01948931939359L93.8566860885389,-34.50974465969679A100,100,0,0,0,45.87088538504868,-88.85866234640115Z" style="fill: rgb(129, 186, 219); stroke: white; stroke-width: 0.5;"></path><path transform="translate(300,300)" d="M-108.43634938681302,168.05224821959692A200,200,0,0,1,-3.6739403974420595e-14,-200L-1.8369701987210297e-14,-100A100,100,0,0,0,-54.21817469340651,84.02612410979846Z" style="fill: rgb(177, 210, 232); stroke: white; stroke-width: 0.5;"></path><path transform="translate(300,300)" d="M242.17654444073955,177.06078425993294A300,300,0,0,1,236.99701122617896,183.93590369978995L157.99800748411928,122.62393579985998A200,200,0,0,0,161.4510296271597,118.0405228399553Z" style="fill: rgb(192, 217, 237); stroke: white; stroke-width: 0.5;"></path><path transform="translate(300,300)" d="M286.7319895356721,-88.23132197193495A300,300,0,0,1,293.68784452842175,-61.21641917206167L195.79189635228119,-40.81094611470778A200,200,0,0,0,191.15465969044806,-58.8208813146233Z" style="fill: rgb(156, 200, 226); stroke: white; stroke-width: 0.5;"></path><path transform="translate(300,300)" d="M-174.1986084749904,244.24341302351837A300,300,0,0,1,-189.97460313237482,232.18451749566913L-126.64973542158322,154.78967833044607A200,200,0,0,0,-116.13240564999361,162.82894201567893Z" style="fill: rgb(170, 207, 230); stroke: white; stroke-width: 0.5;"></path><path transform="translate(300,300)" d="M-162.65452408021952,252.0783723293954A300,300,0,0,1,-163.9288590351298,251.25152571763726L-109.28590602341986,167.5010171450915A200,200,0,0,0,-108.43634938681302,168.05224821959692Z" style="fill: rgb(166, 205, 228); stroke: white; stroke-width: 0.5;"></path><path transform="translate(300,300)" d="M245.8419387177617,171.9352819158776A300,300,0,0,1,242.17654444073955,177.06078425993294L161.4510296271597,118.0405228399553A200,200,0,0,0,163.89462581184114,114.62352127725173Z" style="fill: rgb(190, 216, 236); stroke: white; stroke-width: 0.5;"></path><path transform="translate(300,300)" d="M-247.57052740191503,169.43681406925015A300,300,0,0,1,-293.9322890825644,60.0317368954438L-195.95485938837626,40.021157930295864A200,200,0,0,0,-165.04701826794334,112.95787604616676Z" style="fill: rgb(178, 211, 232); stroke: white; stroke-width: 0.5;"></path><path transform="translate(300,300)" d="M281.57005826561664,-103.52923397909038A300,300,0,0,1,281.9563961735107,-102.47238972936212L187.97093078234047,-68.31492648624142A200,200,0,0,0,187.7133721770778,-69.01948931939359Z" style="fill: rgb(198, 220, 239); stroke: white; stroke-width: 0.5;"></path><path transform="translate(300,300)" d="M293.68784452842175,-61.21641917206167A300,300,0,0,1,298.08214844106885,33.86787239784309L198.7214322940459,22.578581598562057A200,200,0,0,0,195.79189635228119,-40.81094611470778Z" style="fill: rgb(116, 178, 215); stroke: white; stroke-width: 0.5;"></path><path transform="translate(300,300)" d="M236.99701122617896,183.93590369978995A300,300,0,0,1,228.8814363573388,193.94145531835494L152.58762423822589,129.29430354556996A200,200,0,0,0,157.99800748411928,122.62393579985998Z" style="fill: rgb(191, 217, 237); stroke: white; stroke-width: 0.5;"></path><path transform="translate(300,300)" d="M281.9563961735107,-102.47238972936212A300,300,0,0,1,283.7737646451964,-97.32651488208481L189.18250976346428,-64.8843432547232A200,200,0,0,0,187.97093078234047,-68.31492648624142Z" style="fill: rgb(157, 200, 226); stroke: white; stroke-width: 0.5;"></path><path transform="translate(300,300)" d="M228.8814363573388,193.94145531835494A300,300,0,0,1,205.53386552958617,218.53107358100354L137.0225770197241,145.6873823873357A200,200,0,0,0,152.58762423822589,129.29430354556996Z" style="fill: rgb(190, 216, 236); stroke: white; stroke-width: 0.5;"></path><path transform="translate(300,300)" d="M129.070591459906,270.815033593392A300,300,0,0,1,62.41386406149975,293.43569921349484L41.609242707666496,195.62379947566325A200,200,0,0,0,86.04706097327067,180.543355728928Z" style="fill: rgb(166, 205, 228); stroke: white; stroke-width: 0.5;"></path><path transform="translate(300,300)" d="M169.40199017960495,247.59435721193046A300,300,0,0,1,129.070591459906,270.815033593392L86.04706097327067,180.543355728928A200,200,0,0,0,112.93466011973663,165.06290480795366Z" style="fill: rgb(154, 199, 225); stroke: white; stroke-width: 0.5;"></path><path transform="translate(300,300)" d="M-163.9288590351298,251.25152571763726A300,300,0,0,1,-166.7923868103606,249.35977963998735L-111.19492454024041,166.23985309332488A200,200,0,0,0,-109.28590602341986,167.5010171450915Z" style="fill: rgb(201, 222, 240); stroke: white; stroke-width: 0.5;"></path><path transform="translate(300,300)" d="M205.53386552958617,218.53107358100354A300,300,0,0,1,169.40199017960495,247.59435721193046L112.93466011973663,165.06290480795366A200,200,0,0,0,137.0225770197241,145.6873823873357Z" style="fill: rgb(176, 209, 231); stroke: white; stroke-width: 0.5;"></path><path transform="translate(300,300)" d="M249.085740460691,167.20135734840576A300,300,0,0,1,245.8419387177617,171.9352819158776L163.89462581184114,114.62352127725173A200,200,0,0,0,166.05716030712733,111.46757156560385Z" style="fill: rgb(188, 215, 235); stroke: white; stroke-width: 0.5;"></path><path transform="translate(300,300)" d="M283.7737646451964,-97.32651488208481A300,300,0,0,1,286.7319895356721,-88.23132197193495L191.15465969044806,-58.8208813146233A200,200,0,0,0,189.18250976346428,-64.8843432547232Z" style="fill: rgb(144, 194, 222); stroke: white; stroke-width: 0.5;"></path><path transform="translate(300,300)" d="M-293.9322890825644,60.0317368954438A300,300,0,0,1,-287.7703178741847,-84.78351343622597L-191.84687858278977,-56.52234229081732A200,200,0,0,0,-195.95485938837626,40.021157930295864Z" style="fill: rgb(174, 208, 231); stroke: white; stroke-width: 0.5;"></path><path transform="translate(300,300)" d="M251.16694801683101,164.05841710778054A300,300,0,0,1,249.085740460691,167.20135734840576L166.05716030712733,111.46757156560385A200,200,0,0,0,167.44463201122068,109.3722780718537Z" style="fill: rgb(171, 207, 230); stroke: white; stroke-width: 0.5;"></path><path transform="translate(300,300)" d="M-189.97460313237482,232.18451749566913A300,300,0,0,1,-220.83947162065527,203.05153969943143L-147.22631441377018,135.3676931329543A200,200,0,0,0,-126.64973542158322,154.78967833044607Z" style="fill: rgb(183, 213, 234); stroke: white; stroke-width: 0.5;"></path><path transform="translate(300,300)" d="M-166.7923868103606,249.35977963998735A300,300,0,0,1,-174.1986084749904,244.24341302351837L-116.13240564999361,162.82894201567893A200,200,0,0,0,-111.19492454024041,166.23985309332488Z" style="fill: rgb(181, 212, 233); stroke: white; stroke-width: 0.5;"></path><path transform="translate(300,300)" d="M-220.83947162065527,203.05153969943143A300,300,0,0,1,-247.57052740191503,169.43681406925015L-165.04701826794334,112.95787604616676A200,200,0,0,0,-147.22631441377018,135.3676931329543Z" style="fill: rgb(182, 213, 234); stroke: white; stroke-width: 0.5;"></path></g><g class="mark-text role-mark"><text text-anchor="middle" transform="translate(300,353)" style="font: 9px sans-serif; fill: #000;">Complaints</text><text text-anchor="middle" transform="translate(335.40339653239323,157.23786666637275)" style="font: 9px sans-serif; fill: #000;">Credit card</text><text text-anchor="middle" transform="translate(331.2069320307499,449.71784960674745)" style="font: 9px sans-serif; fill: #000;">Debt collection</text><text text-anchor="middle" transform="translate(449.0410742205344,319.9339361989215)" style="font: 9px sans-serif; fill: #000;">Bank account or service</text><text text-anchor="middle" transform="translate(412.44398376319543,203.7208455139638)" style="font: 9px sans-serif; fill: #000;">Credit reporting</text><text text-anchor="middle" transform="translate(156.11484106290766,260.608243281887)" style="font: 9px sans-serif; fill: #000;">Mortgage</text><text text-anchor="middle" transform="translate(499.6761978273398,453.43076819991666)" style="font: 9px sans-serif; fill: #000;">Mortgage</text><text text-anchor="middle" transform="translate(542.1034087876002,240.66269613285988)" style="font: 9px sans-serif; fill: #000;">Other bank product/service</text><text text-anchor="middle" transform="translate(148.17799563523138,501.6204395087882)" style="font: 9px sans-serif; fill: #000;">Home equity loan or line of credit</text><text text-anchor="middle" transform="translate(163.92315424068948,512.7214630127228)" style="font: 9px sans-serif; fill: #000;">Second mortgage</text><text text-anchor="middle" transform="translate(503.3522492390749,448.42304744918926)" style="font: 9px sans-serif; fill: #000;">Auto</text><text text-anchor="middle" transform="translate(69.81484989583387,400.54381923793284)" style="font: 9px sans-serif; fill: #000;">Conventional fixed mortgage</text><text text-anchor="middle" transform="translate(534.803102269761,217.16583917520848)" style="font: 9px sans-serif; fill: #000;">Cashing a check without an account</text><text text-anchor="middle" transform="translate(549.7334506398431,291.458612236084)" style="font: 9px sans-serif; fill: #000;">Checking account</text><text text-anchor="middle" transform="translate(494.16078271933304,460.48520709519335)" style="font: 9px sans-serif; fill: #000;">Payday loan</text><text text-anchor="middle" transform="translate(535.7306515595831,219.747012574356)" style="font: 9px sans-serif; fill: #000;">(CD) Certificate of deposit</text><text text-anchor="middle" transform="translate(481.2961166617582,475.1386594677853)" style="font: 9px sans-serif; fill: #000;">Medical</text><text text-anchor="middle" transform="translate(380.33997986359986,539.7392819865693)" style="font: 9px sans-serif; fill: #000;">Other (i.e. phone, health club, etc.)</text><text text-anchor="middle" transform="translate(424.7393684251225,519.6566176346837)" style="font: 9px sans-serif; fill: #000;">Credit card</text><text text-anchor="middle" transform="translate(162.19722656091886,511.59145627876825)" style="font: 9px sans-serif; fill: #000;">Reverse mortgage</text><text text-anchor="middle" transform="translate(456.6919141623247,497.80155039461744)" style="font: 9px sans-serif; fill: #000;">I do not know</text><text text-anchor="middle" transform="translate(506.22929932260774,444.31339674958724)" style="font: 9px sans-serif; fill: #000;">Non-federal student loan</text><text text-anchor="middle" transform="translate(537.7409370306267,225.67441005850915)" style="font: 9px sans-serif; fill: #000;">Savings account</text><text text-anchor="middle" transform="translate(50.22601200003501,292.37197484979663)" style="font: 9px sans-serif; fill: #000;">Other mortgage</text><text text-anchor="middle" transform="translate(508.4427339432594,441.0276300827468)" style="font: 9px sans-serif; fill: #000;">Federal student loan</text><text text-anchor="middle" transform="translate(128.39759778411857,484.80378311173524)" style="font: 9px sans-serif; fill: #000;">Conventional adjustable mortgage (ARM)</text><text text-anchor="middle" transform="translate(157.9044261913294,508.69114687799436)" style="font: 9px sans-serif; fill: #000;">VA mortgage</text><text text-anchor="middle" transform="translate(104.32724803457782,458.6026161035809)" style="font: 9px sans-serif; fill: #000;">FHA mortgage</text></g><g class="mark-group role-legend"><g transform="translate(618,0)"><path class="background" d="M0,0h101v49h-101Z" style="pointer-events: none; fill: none;"></path><g><g class="mark-group role-legend-entry"><g transform="translate(0,16)"><path class="background" d="M0,0h0v0h0Z" style="pointer-events: none; fill: none;"></path><g><g class="mark-rect role-legend-gradient" style="pointer-events: none;"><path d="M0,0h100v20h-100Z" style="fill: url(#gradient_0); stroke: #ddd; stroke-width: 0; opacity: 1;"></path></g><g class="mark-text role-legend-label" style="pointer-events: none;"><text text-anchor="start" transform="translate(0,30)" style="font: 10px sans-serif; fill: #000; opacity: 1;">0.0</text><text text-anchor="end" transform="translate(100,30)" style="font: 10px sans-serif; fill: #000; opacity: 1;">1.0</text></g></g></g></g><g class="mark-text role-legend-title" style="pointer-events: none;"><text text-anchor="start" transform="translate(0,9)" style="font: bold 11px sans-serif; fill: #000; opacity: 1;">Relief received</text></g></g></g></g></g></g></g></g></svg>