<svg class="marks" width="521" height="174" viewBox="0 0 521 174" version="1.1" xmlns="http://www.w3.org/2000/svg" xmlns:xlink="http://www.w3.org/1999/xlink"><rect width="521" height="174" style="fill: #ffffff;"></rect><g transform="translate(9,39)"><g class="mark-group role-frame root"><g transform="translate(0,0)"><path class="background" d="M0,0h500v100h-500Z" style="fill: none;"></path><g><g class="mark-line role-mark"><path d="M0,100L1.6666666666666665,100L3.333333333333333,100L5,100L6.666666666666666,100L8.333333333333334,100L10,100L11.666666666666666,100L13.333333333333332,100L15,100L16.666666666666668,100L18.333333333333332,100L20,100L21.666666666666664,100L23.333333333333332,100L25,100L26.666666666666664,100L28.333333333333332,100L30,100L31.66666666666666,100L33.333333333333336,100L35,100L36.666666666666664,100L38.33333333333333,100L40,100L41.66666666666666,100L43.33333333333333,100L45,100L46.666666666666664,100L48.333333333333336,100L50,100L51.66666666666666,100L53.33333333333333,100L55,100L56.666666666666664,100L58.33333333333333,100L60,100L61.666666666666664,100L63.33333333333332,100L65,100L66.66666666666667,100L68.33333333333333,100L70,100L71.66666666666666,100L73.33333333333333,100L75,100L76.66666666666666,100L78.33333333333333,100L80,100L81.66666666666667,100L83.33333333333331,100L85,100L86.66666666666666,100L88.33333333333331,100L90,100L91.66666666666666,100L93.33333333333333,100L95,100L96.66666666666667,100L98.33333333333333,100L100,100L101.66666666666666,100L103.33333333333331,100L105,100L106.66666666666666,100L108.33333333333333,100L110,99L111.66666666666666,99L113.33333333333333,99L115,98L116.66666666666666,98L118.33333333333331,97L120,97L121.66666666666666,96L123.33333333333333,95L125,94L126.66666666666664,93L128.33333333333331,92L130,90L131.66666666666666,89L133.33333333333334,87L135,86L136.66666666666666,84L138.33333333333331,82L140,81L141.66666666666666,79L143.33333333333331,76L145,74L146.66666666666666,71L148.33333333333331,68L150,65L151.66666666666669,61L153.33333333333331,57L155,53L156.66666666666666,49L158.33333333333331,44L160,40L161.66666666666666,36L163.33333333333334,32L165,28L166.66666666666663,25L168.33333333333334,22L170,19L171.66666666666663,16L173.33333333333331,13L175,10L176.66666666666663,6L178.33333333333331,2L180,-3L181.66666666666663,-8L183.33333333333331,-12L185,-16L186.66666666666666,-19L188.33333333333331,-21L190,-21L191.66666666666666,-19L193.33333333333334,-16L195,-11L196.66666666666666,-5L198.33333333333334,1L200,8L201.66666666666663,15L203.33333333333331,21L205,26L206.66666666666663,30L208.33333333333331,34L210,36L211.66666666666663,37L213.33333333333331,37L215,36L216.66666666666666,35L218.33333333333331,32L220,28L221.66666666666666,24L223.33333333333331,18L225,12L226.66666666666666,5L228.33333333333334,-2L230,-8L231.66666666666663,-15L233.33333333333331,-21L235,-25L236.66666666666663,-29L238.33333333333331,-31L240,-32L241.66666666666663,-31L243.33333333333331,-29L245,-26L246.66666666666666,-23L248.33333333333331,-20L250,-16L251.66666666666666,-13L253.3333333333333,-11L255,-9L256.66666666666663,-7L258.3333333333333,-7L260,-6L261.6666666666667,-6L263.3333333333333,-5L265,-4L266.6666666666667,-3L268.3333333333333,-1L270,1L271.6666666666667,5L273.3333333333333,8L275,13L276.66666666666663,17L278.3333333333333,22L280,26L281.66666666666663,30L283.3333333333333,34L285,36L286.66666666666663,37L288.3333333333333,37L290,35L291.66666666666663,32L293.3333333333333,28L295,22L296.66666666666663,15L298.3333333333333,7L300,-1L301.66666666666663,-9L303.33333333333337,-15L305,-20L306.66666666666663,-24L308.33333333333337,-25L310,-23L311.66666666666663,-19L313.3333333333333,-12L315,-3L316.66666666666663,7L318.3333333333333,17L320,28L321.66666666666663,39L323.3333333333333,49L325,58L326.6666666666667,66L328.3333333333333,72L330,78L331.6666666666667,81L333.33333333333326,84L335,87L336.6666666666667,88L338.33333333333326,89L340,90L341.66666666666663,90L343.33333333333326,90L345,90L346.66666666666663,90L348.33333333333326,89L350,88L351.66666666666663,87L353.33333333333326,86L355,84L356.66666666666663,82L358.33333333333326,80L360,77L361.66666666666663,74L363.33333333333326,71L365,68L366.66666666666663,65L368.3333333333333,63L370,60L371.66666666666663,59L373.3333333333333,58L375,57L376.66666666666663,58L378.3333333333333,59L380,61L381.66666666666663,64L383.3333333333333,67L385,71L386.6666666666667,74L388.3333333333333,78L390,82L391.6666666666667,85L393.3333333333333,88L395,91L396.6666666666667,93L398.33333333333326,95L400,96L401.66666666666663,97L403.33333333333326,98L405,99L406.66666666666663,99L408.33333333333326,100L410,100L411.66666666666663,100L413.33333333333326,100L415,100L416.66666666666663,100L418.33333333333326,100L420,100L421.66666666666663,100L423.33333333333326,100L425,100L426.66666666666663,100L428.3333333333333,100L430,100L431.66666666666663,99L433.3333333333333,99L435,99L436.66666666666663,99L438.3333333333333,98L440,98L441.66666666666663,97L443.3333333333333,97L445,97L446.66666666666663,96L448.3333333333333,96L450,96L451.6666666666667,96L453.3333333333333,96L455,96L456.6666666666667,96L458.33333333333326,96L460,96L461.6666666666667,96L463.33333333333326,96L465,95L466.66666666666663,95L468.33333333333326,95L470,95L471.66666666666663,95L473.33333333333326,95L475,95L476.66666666666663,96L478.33333333333326,96L480,96L481.66666666666663,96L483.33333333333326,96L485,96L486.66666666666663,96L488.33333333333326,96L490,96L491.66666666666663,96L493.3333333333333,96L495,97L496.66666666666663,97L498.3333333333333,97L500,98" style="fill: none; stroke: steelblue; stroke-width: 2;"></path></g><g class="mark-line role-mark"><path d="M0,100L1.6666666666666665,100L3.333333333333333,100L5,100L6.666666666666666,100L8.333333333333334,100L10,100L11.666666666666666,100L13.333333333333332,100L15,100L16.666666666666668,100L18.333333333333332,100L20,100L21.666666666666664,100L23.333333333333332,100L25,100L26.666666666666664,100L28.333333333333332,100L30,100L31.66666666666666,100L33.333333333333336,100L35,100L36.666666666666664,100L38.33333333333333,100L40,100L41.66666666666666,100L43.33333333333333,100L45,100L46.666666666666664,100L48.333333333333336,100L50,100L51.66666666666666,100L53.33333333333333,100L55,100L56.666666666666664,100L58.33333333333333,100L60,100L61.666666666666664,100L63.33333333333332,100L65,100L66.66666666666667,100L68.33333333333333,99L70,99L71.66666666666666,99L73.33333333333333,99L75,99L76.66666666666666,99L78.33333333333333,99L80,99L81.66666666666667,99L83.33333333333331,98L85,98L86.66666666666666,98L88.33333333333331,98L90,97L91.66666666666666,97L93.33333333333333,97L95,96L96.66666666666667,96L98.33333333333333,95L100,95L101.66666666666666,94L103.33333333333331,94L105,93L106.66666666666666,92L108.33333333333333,92L110,91L111.66666666666666,90L113.33333333333333,89L115,88L116.66666666666666,87L118.33333333333331,86L120,85L121.66666666666666,84L123.33333333333333,83L125,81L126.66666666666664,80L128.33333333333331,78L130,77L131.66666666666666,75L133.33333333333334,74L135,72L136.66666666666666,70L138.33333333333331,69L140,67L141.66666666666666,65L143.33333333333331,63L145,61L146.66666666666666,59L148.33333333333331,57L150,55L151.66666666666669,53L153.33333333333331,51L155,49L156.66666666666666,47L158.33333333333331,45L160,43L161.66666666666666,41L163.33333333333334,39L165,37L166.66666666666663,35L168.33333333333334,34L170,32L171.66666666666663,30L173.33333333333331,29L175,27L176.66666666666663,25L178.33333333333331,24L180,23L181.66666666666663,21L183.33333333333331,20L185,19L186.66666666666666,18L188.33333333333331,17L190,16L191.66666666666666,15L193.33333333333334,14L195,13L196.66666666666666,12L198.33333333333334,11L200,11L201.66666666666663,10L203.33333333333331,9L205,9L206.66666666666663,8L208.33333333333331,8L210,7L211.66666666666663,7L213.33333333333331,6L215,6L216.66666666666666,5L218.33333333333331,5L220,4L221.66666666666666,4L223.33333333333331,3L225,3L226.66666666666666,2L228.33333333333334,2L230,2L231.66666666666663,1L233.33333333333331,1L235,1L236.66666666666663,1L238.33333333333331,0L240,0L241.66666666666663,0L243.33333333333331,0L245,0L246.66666666666666,0L248.33333333333331,0L250,0L251.66666666666666,0L253.3333333333333,1L255,1L256.66666666666663,1L258.3333333333333,1L260,2L261.6666666666667,2L263.3333333333333,3L265,3L266.6666666666667,4L268.3333333333333,4L270,5L271.6666666666667,6L273.3333333333333,6L275,7L276.66666666666663,8L278.3333333333333,9L280,9L281.66666666666663,10L283.3333333333333,11L285,12L286.66666666666663,13L288.3333333333333,14L290,15L291.66666666666663,16L293.3333333333333,17L295,18L296.66666666666663,19L298.3333333333333,21L300,22L301.66666666666663,23L303.33333333333337,24L305,26L306.66666666666663,27L308.33333333333337,29L310,30L311.66666666666663,32L313.3333333333333,33L315,35L316.66666666666663,36L318.3333333333333,38L320,40L321.66666666666663,41L323.3333333333333,43L325,45L326.6666666666667,46L328.3333333333333,48L330,50L331.6666666666667,51L333.33333333333326,53L335,54L336.6666666666667,56L338.33333333333326,57L340,59L341.66666666666663,60L343.33333333333326,61L345,63L346.66666666666663,64L348.33333333333326,65L350,66L351.66666666666663,67L353.33333333333326,68L355,69L356.66666666666663,70L358.33333333333326,71L360,71L361.66666666666663,72L363.33333333333326,73L365,74L366.66666666666663,74L368.3333333333333,75L370,76L371.66666666666663,76L373.3333333333333,77L375,78L376.66666666666663,78L378.3333333333333,79L380,79L381.66666666666663,80L383.3333333333333,81L385,81L386.6666666666667,82L388.3333333333333,83L390,83L391.6666666666667,84L393.3333333333333,84L395,85L396.6666666666667,86L398.33333333333326,86L400,87L401.66666666666663,88L403.33333333333326,88L405,89L406.66666666666663,89L408.33333333333326,90L410,91L411.66666666666663,91L413.33333333333326,92L415,92L416.66666666666663,92L418.33333333333326,93L420,93L421.66666666666663,94L423.33333333333326,94L425,94L426.66666666666663,95L428.3333333333333,95L430,95L431.66666666666663,95L433.3333333333333,96L435,96L436.66666666666663,96L438.3333333333333,96L440,96L441.66666666666663,96L443.3333333333333,96L445,96L446.66666666666663,96L448.3333333333333,97L450,97L451.6666666666667,97L453.3333333333333,97L455,97L456.6666666666667,97L458.33333333333326,97L460,97L461.6666666666667,97L463.33333333333326,97L465,97L466.66666666666663,97L468.33333333333326,97L470,97L471.66666666666663,97L473.33333333333326,97L475,97L476.66666666666663,97L478.33333333333326,97L480,97L481.66666666666663,97L483.33333333333326,97L485,97L486.66666666666663,97L488.33333333333326,97L490,97L491.66666666666663,97L493.3333333333333,97L495,98L496.66666666666663,98L498.3333333333333,98L500,98" style="fill: none; stroke: #b44682; stroke-width: 2;"></path></g><g class="mark-rect role-mark"><path d="M210,125h1v5h-1Z" style="fill: steelblue; fill-opacity: 0.7;"></path><path d="M210,125h1v5h-1Z" style="fill: steelblue; fill-opacity: 0.7;"></path><path d="M190,125h1v5h-1Z" style="fill: steelblue; fill-opacity: 0.7;"></path><path d="M240,125h1v5h-1Z" style="fill: steelblue; fill-opacity: 0.7;"></path><path d="M180,125h1v5h-1Z" style="fill: steelblue; fill-opacity: 0.7;"></path><path d="M190,125h1v5h-1Z" style="fill: steelblue; fill-opacity: 0.7;"></path><path d="M190,125h1v5h-1Z" style="fill: steelblue; fill-opacity: 0.7;"></path><path d="M190,125h1v5h-1Z" style="fill: steelblue; fill-opacity: 0.7;"></path><path d="M170,125h1v5h-1Z" style="fill: steelblue; fill-opacity: 0.7;"></path><path d="M160,125h1v5h-1Z" style="fill: steelblue; fill-opacity: 0.7;"></path><path d="M230,125h1v5h-1Z" style="fill: steelblue; fill-opacity: 0.7;"></path><path d="M230,125h1v5h-1Z" style="fill: steelblue; fill-opacity: 0.7;"></path><path d="M210,125h1v5h-1Z" style="fill: steelblue; fill-opacity: 0.7;"></path><path d="M210,125h1v5h-1Z" style="fill: steelblue; fill-opacity: 0.7;"></path><path d="M200,125h1v5h-1Z" style="fill: steelblue; fill-opacity: 0.7;"></path><path d="M160,125h1v5h-1Z" style="fill: steelblue; fill-opacity: 0.7;"></path><path d="M160,125h1v5h-1Z" style="fill: steelblue; fill-opacity: 0.7;"></path><path d="M150,125h1v5h-1Z" style="fill: steelblue; fill-opacity: 0.7;"></path><path d="M470,125h1v5h-1Z" style="fill: steelblue; fill-opacity: 0.7;"></path><path d="M380,125h1v5h-1Z" style="fill: steelblue; fill-opacity: 0.7;"></path><path d="M380,125h1v5h-1Z" style="fill: steelblue; fill-opacity: 0.7;"></path><path d="M370,125h1v5h-1Z" style="fill: steelblue; fill-opacity: 0.7;"></path><path d="M310,125h1v5h-1Z" style="fill: steelblue; fill-opacity: 0.7;"></path><path d="M240,125h1v5h-1Z" style="fill: steelblue; fill-opacity: 0.7;"></path><path d="M310,125h1v5h-1Z" style="fill: steelblue; fill-opacity: 0.7;"></path><path d="M310,125h1v5h-1Z" style="fill: steelblue; fill-opacity: 0.7;"></path><path d="M310,125h1v5h-1Z" style="fill: steelblue; fill-opacity: 0.7;"></path><path d="M240,125h1v5h-1Z" style="fill: steelblue; fill-opacity: 0.7;"></path><path d="M240,125h1v5h-1Z" style="fill: steelblue; fill-opacity: 0.7;"></path><path d="M190,125h1v5h-1Z" style="fill: steelblue; fill-opacity: 0.7;"></path><path d="M490,125h1v5h-1Z" style="fill: steelblue; fill-opacity: 0.7;"></path><path d="M310,125h1v5h-1Z" style="fill: steelblue; fill-opacity: 0.7;"></path><path d="M380,125h1v5h-1Z" style="fill: steelblue; fill-opacity: 0.7;"></path><path d="M300,125h1v5h-1Z" style="fill: steelblue; fill-opacity: 0.7;"></path><path d="M300,125h1v5h-1Z" style="fill: steelblue; fill-opacity: 0.7;"></path><path d="M300,125h1v5h-1Z" style="fill: steelblue; fill-opacity: 0.7;"></path><path d="M300,125h1v5h-1Z" style="fill: steelblue; fill-opacity: 0.7;"></path><path d="M270,125h1v5h-1Z" style="fill: steelblue; fill-opacity: 0.7;"></path><path d="M270,125h1v5h-1Z" style="fill: steelblue; fill-opacity: 0.7;"></path><path d="M270,125h1v5h-1Z" style="fill: steelblue; fill-opacity: 0.7;"></path><path d="M270,125h1v5h-1Z" style="fill: steelblue; fill-opacity: 0.7;"></path><path d="M240,125h1v5h-1Z" style="fill: steelblue; fill-opacity: 0.7;"></path><path d="M250,125h1v5h-1Z" style="fill: steelblue; fill-opacity: 0.7;"></path><path d="M240,125h1v5h-1Z" style="fill: steelblue; fill-opacity: 0.7;"></path><path d="M380,125h1v5h-1Z" style="fill: steelblue; fill-opacity: 0.7;"></path><path d="M380,125h1v5h-1Z" style="fill: steelblue; fill-opacity: 0.7;"></path><path d="M240,125h1v5h-1Z" style="fill: steelblue; fill-opacity: 0.7;"></path><path d="M150,125h1v5h-1Z" style="fill: steelblue; fill-opacity: 0.7;"></path><path d="M150,125h1v5h-1Z" style="fill: steelblue; fill-opacity: 0.7;"></path><path d="M130,125h1v5h-1Z" style="fill: steelblue; fill-opacity: 0.7;"></path><path d="M300,125h1v5h-1Z" style="fill: steelblue; fill-opacity: 0.7;"></path><path d="M310,125h1v5h-1Z" style="fill: steelblue; fill-opacity: 0.7;"></path><path d="M310,125h1v5h-1Z" style="fill: steelblue; fill-opacity: 0.7;"></path><path d="M310,125h1v5h-1Z" style="fill: steelblue; fill-opacity: 0.7;"></path><path d="M310,125h1v5h-1Z" style="fill: steelblue; fill-opacity: 0.7;"></path><path d="M170,125h1v5h-1Z" style="fill: steelblue; fill-opacity: 0.7;"></path><path d="M170,125h1v5h-1Z" style="fill: steelblue; fill-opacity: 0.7;"></path><path d="M170,125h1v5h-1Z" style="fill: steelblue; fill-opacity: 0.7;"></path><path d="M160,125h1v5h-1Z" style="fill: steelblue; fill-opacity: 0.7;"></path><path d="M260,125h1v5h-1Z" style="fill: steelblue; fill-opacity: 0.7;"></path><path d="M260,125h1v5h-1Z" style="fill: steelblue; fill-opacity: 0.7;"></path><path d="M260,125h1v5h-1Z" style="fill: steelblue; fill-opacity: 0.7;"></path><path d="M260,125h1v5h-1Z" style="fill: steelblue; fill-opacity: 0.7;"></path><path d="M360,125h1v5h-1Z" style="fill: steelblue; fill-opacity: 0.7;"></path><path d="M260,125h1v5h-1Z" style="fill: steelblue; fill-opacity: 0.7;"></path><path d="M190,125h1v5h-1Z" style="fill: steelblue; fill-opacity: 0.7;"></path><path d="M310,125h1v5h-1Z" style="fill: steelblue; fill-opacity: 0.7;"></path><path d="M220,125h1v5h-1Z" style="fill: steelblue; fill-opacity: 0.7;"></path><path d="M220,125h1v5h-1Z" style="fill: steelblue; fill-opacity: 0.7;"></path><path d="M220,125h1v5h-1Z" style="fill: steelblue; fill-opacity: 0.7;"></path><path d="M220,125h1v5h-1Z" style="fill: steelblue; fill-opacity: 0.7;"></path><path d="M160,125h1v5h-1Z" style="fill: steelblue; fill-opacity: 0.7;"></path><path d="M160,125h1v5h-1Z" style="fill: steelblue; fill-opacity: 0.7;"></path><path d="M140,125h1v5h-1Z" style="fill: steelblue; fill-opacity: 0.7;"></path><path d="M140,125h1v5h-1Z" style="fill: steelblue; fill-opacity: 0.7;"></path><path d="M190,125h1v5h-1Z" style="fill: steelblue; fill-opacity: 0.7;"></path><path d="M370,125h1v5h-1Z" style="fill: steelblue; fill-opacity: 0.7;"></path><path d="M310,125h1v5h-1Z" style="fill: steelblue; fill-opacity: 0.7;"></path><path d="M310,125h1v5h-1Z" style="fill: steelblue; fill-opacity: 0.7;"></path><path d="M240,125h1v5h-1Z" style="fill: steelblue; fill-opacity: 0.7;"></path><path d="M230,125h1v5h-1Z" style="fill: steelblue; fill-opacity: 0.7;"></path><path d="M250,125h1v5h-1Z" style="fill: steelblue; fill-opacity: 0.7;"></path><path d="M190,125h1v5h-1Z" style="fill: steelblue; fill-opacity: 0.7;"></path><path d="M190,125h1v5h-1Z" style="fill: steelblue; fill-opacity: 0.7;"></path><path d="M190,125h1v5h-1Z" style="fill: steelblue; fill-opacity: 0.7;"></path><path d="M250,125h1v5h-1Z" style="fill: steelblue; fill-opacity: 0.7;"></path><path d="M250,125h1v5h-1Z" style="fill: steelblue; fill-opacity: 0.7;"></path><path d="M230,125h1v5h-1Z" style="fill: steelblue; fill-opacity: 0.7;"></path><path d="M230,125h1v5h-1Z" style="fill: steelblue; fill-opacity: 0.7;"></path><path d="M310,125h1v5h-1Z" style="fill: steelblue; fill-opacity: 0.7;"></path><path d="M450,125h1v5h-1Z" style="fill: steelblue; fill-opacity: 0.7;"></path><path d="M310,125h1v5h-1Z" style="fill: steelblue; fill-opacity: 0.7;"></path><path d="M310,125h1v5h-1Z" style="fill: steelblue; fill-opacity: 0.7;"></path><path d="M310,125h1v5h-1Z" style="fill: steelblue; fill-opacity: 0.7;"></path><path d="M310,125h1v5h-1Z" style="fill: steelblue; fill-opacity: 0.7;"></path><path d="M310,125h1v5h-1Z" style="fill: steelblue; fill-opacity: 0.7;"></path><path d="M310,125h1v5h-1Z" style="fill: steelblue; fill-opacity: 0.7;"></path><path d="M310,125h1v5h-1Z" style="fill: steelblue; fill-opacity: 0.7;"></path><path d="M310,125h1v5h-1Z" style="fill: steelblue; fill-opacity: 0.7;"></path><path d="M270,125h1v5h-1Z" style="fill: steelblue; fill-opacity: 0.7;"></path><path d="M270,125h1v5h-1Z" style="fill: steelblue; fill-opacity: 0.7;"></path><path d="M170,125h1v5h-1Z" style="fill: steelblue; fill-opacity: 0.7;"></path><path d="M170,125h1v5h-1Z" style="fill: steelblue; fill-opacity: 0.7;"></path><path d="M190,125h1v5h-1Z" style="fill: steelblue; fill-opacity: 0.7;"></path><path d="M190,125h1v5h-1Z" style="fill: steelblue; fill-opacity: 0.7;"></path><path d="M170,125h1v5h-1Z" style="fill: steelblue; fill-opacity: 0.7;"></path><path d="M190,125h1v5h-1Z" style="fill: steelblue; fill-opacity: 0.7;"></path><path d="M190,125h1v5h-1Z" style="fill: steelblue; fill-opacity: 0.7;"></path><path d="M280,125h1v5h-1Z" style="fill: steelblue; fill-opacity: 0.7;"></path><path d="M190,125h1v5h-1Z" style="fill: steelblue; fill-opacity: 0.7;"></path><path d="M250,125h1v5h-1Z" style="fill: steelblue; fill-opacity: 0.7;"></path><path d="M190,125h1v5h-1Z" style="fill: steelblue; fill-opacity: 0.7;"></path><path d="M280,125h1v5h-1Z" style="fill: steelblue; fill-opacity: 0.7;"></path><path d="M190,125h1v5h-1Z" style="fill: steelblue; fill-opacity: 0.7;"></path><path d="M250,125h1v5h-1Z" style="fill: steelblue; fill-opacity: 0.7;"></path><path d="M190,125h1v5h-1Z" style="fill: steelblue; fill-opacity: 0.7;"></path><path d="M280,125h1v5h-1Z" style="fill: steelblue; fill-opacity: 0.7;"></path><path d="M180,125h1v5h-1Z" style="fill: steelblue; fill-opacity: 0.7;"></path><path d="M370,125h1v5h-1Z" style="fill: steelblue; fill-opacity: 0.7;"></path><path d="M240,125h1v5h-1Z" style="fill: steelblue; fill-opacity: 0.7;"></path><path d="M310,125h1v5h-1Z" style="fill: steelblue; fill-opacity: 0.7;"></path><path d="M310,125h1v5h-1Z" style="fill: steelblue; fill-opacity: 0.7;"></path><path d="M310,125h1v5h-1Z" style="fill: steelblue; fill-opacity: 0.7;"></path><path d="M240,125h1v5h-1Z" style="fill: steelblue; fill-opacity: 0.7;"></path><path d="M190,125h1v5h-1Z" style="fill: steelblue; fill-opacity: 0.7;"></path><path d="M190,125h1v5h-1Z" style="fill: steelblue; fill-opacity: 0.7;"></path><path d="M170,125h1v5h-1Z" style="fill: steelblue; fill-opacity: 0.7;"></path><path d="M170,125h1v5h-1Z" style="fill: steelblue; fill-opacity: 0.7;"></path><path d="M170,125h1v5h-1Z" style="fill: steelblue; fill-opacity: 0.7;"></path><path d="M170,125h1v5h-1Z" style="fill: steelblue; fill-opacity: 0.7;"></path><path d="M230,125h1v5h-1Z" style="fill: steelblue; fill-opacity: 0.7;"></path><path d="M230,125h1v5h-1Z" style="fill: steelblue; fill-opacity: 0.7;"></path><path d="M210,125h1v5h-1Z" style="fill: steelblue; fill-opacity: 0.7;"></path><path d="M210,125h1v5h-1Z" style="fill: steelblue; fill-opacity: 0.7;"></path><path d="M210,125h1v5h-1Z" style="fill: steelblue; fill-opacity: 0.7;"></path><path d="M210,125h1v5h-1Z" style="fill: steelblue; fill-opacity: 0.7;"></path><path d="M190,125h1v5h-1Z" style="fill: steelblue; fill-opacity: 0.7;"></path><path d="M190,125h1v5h-1Z" style="fill: steelblue; fill-opacity: 0.7;"></path><path d="M310,125h1v5h-1Z" style="fill: steelblue; fill-opacity: 0.7;"></path><path d="M260,125h1v5h-1Z" style="fill: steelblue; fill-opacity: 0.7;"></path><path d="M260,125h1v5h-1Z" style="fill: steelblue; fill-opacity: 0.7;"></path><path d="M320,125h1v5h-1Z" style="fill: steelblue; fill-opacity: 0.7;"></path><path d="M280,125h1v5h-1Z" style="fill: steelblue; fill-opacity: 0.7;"></path><path d="M260,125h1v5h-1Z" style="fill: steelblue; fill-opacity: 0.7;"></path><path d="M240,125h1v5h-1Z" style="fill: steelblue; fill-opacity: 0.7;"></path><path d="M240,125h1v5h-1Z" style="fill: steelblue; fill-opacity: 0.7;"></path><path d="M280,125h1v5h-1Z" style="fill: steelblue; fill-opacity: 0.7;"></path><path d="M250,125h1v5h-1Z" style="fill: steelblue; fill-opacity: 0.7;"></path><path d="M230,125h1v5h-1Z" style="fill: steelblue; fill-opacity: 0.7;"></path><path d="M230,125h1v5h-1Z" style="fill: steelblue; fill-opacity: 0.7;"></path><path d="M350,125h1v5h-1Z" style="fill: steelblue; fill-opacity: 0.7;"></path><path d="M310,125h1v5h-1Z" style="fill: steelblue; fill-opacity: 0.7;"></path><path d="M310,125h1v5h-1Z" style="fill: steelblue; fill-opacity: 0.7;"></path><path d="M310,125h1v5h-1Z" style="fill: steelblue; fill-opacity: 0.7;"></path><path d="M270,125h1v5h-1Z" style="fill: steelblue; fill-opacity: 0.7;"></path><path d="M270,125h1v5h-1Z" style="fill: steelblue; fill-opacity: 0.7;"></path><path d="M300,125h1v5h-1Z" style="fill: steelblue; fill-opacity: 0.7;"></path><path d="M300,125h1v5h-1Z" style="fill: steelblue; fill-opacity: 0.7;"></path><path d="M340,125h1v5h-1Z" style="fill: steelblue; fill-opacity: 0.7;"></path><path d="M380,125h1v5h-1Z" style="fill: steelblue; fill-opacity: 0.7;"></path><path d="M380,125h1v5h-1Z" style="fill: steelblue; fill-opacity: 0.7;"></path><path d="M280,125h1v5h-1Z" style="fill: steelblue; fill-opacity: 0.7;"></path><path d="M280,125h1v5h-1Z" style="fill: steelblue; fill-opacity: 0.7;"></path><path d="M290,125h1v5h-1Z" style="fill: steelblue; fill-opacity: 0.7;"></path><path d="M290,125h1v5h-1Z" style="fill: steelblue; fill-opacity: 0.7;"></path><path d="M260,125h1v5h-1Z" style="fill: steelblue; fill-opacity: 0.7;"></path><path d="M260,125h1v5h-1Z" style="fill: steelblue; fill-opacity: 0.7;"></path><path d="M240,125h1v5h-1Z" style="fill: steelblue; fill-opacity: 0.7;"></path><path d="M240,125h1v5h-1Z" style="fill: steelblue; fill-opacity: 0.7;"></path><path d="M240,125h1v5h-1Z" style="fill: steelblue; fill-opacity: 0.7;"></path><path d="M240,125h1v5h-1Z" style="fill: steelblue; fill-opacity: 0.7;"></path><path d="M240,125h1v5h-1Z" style="fill: steelblue; fill-opacity: 0.7;"></path><path d="M240,125h1v5h-1Z" style="fill: steelblue; fill-opacity: 0.7;"></path><path d="M290,125h1v5h-1Z" style="fill: steelblue; fill-opacity: 0.7;"></path><path d="M300,125h1v5h-1Z" style="fill: steelblue; fill-opacity: 0.7;"></path><path d="M270,125h1v5h-1Z" style="fill: steelblue; fill-opacity: 0.7;"></path><path d="M270,125h1v5h-1Z" style="fill: steelblue; fill-opacity: 0.7;"></path><path d="M270,125h1v5h-1Z" style="fill: steelblue; fill-opacity: 0.7;"></path><path d="M200,125h1v5h-1Z" style="fill: steelblue; fill-opacity: 0.7;"></path><path d="M190,125h1v5h-1Z" style="fill: steelblue; fill-opacity: 0.7;"></path><path d="M200,125h1v5h-1Z" style="fill: steelblue; fill-opacity: 0.7;"></path><path d="M190,125h1v5h-1Z" style="fill: steelblue; fill-opacity: 0.7;"></path><path d="M370,125h1v5h-1Z" style="fill: steelblue; fill-opacity: 0.7;"></path><path d="M270,125h1v5h-1Z" style="fill: steelblue; fill-opacity: 0.7;"></path><path d="M370,125h1v5h-1Z" style="fill: steelblue; fill-opacity: 0.7;"></path><path d="M270,125h1v5h-1Z" style="fill: steelblue; fill-opacity: 0.7;"></path><path d="M270,125h1v5h-1Z" style="fill: steelblue; fill-opacity: 0.7;"></path><path d="M370,125h1v5h-1Z" style="fill: steelblue; fill-opacity: 0.7;"></path><path d="M260,125h1v5h-1Z" style="fill: steelblue; fill-opacity: 0.7;"></path><path d="M240,125h1v5h-1Z" style="fill: steelblue; fill-opacity: 0.7;"></path><path d="M240,125h1v5h-1Z" style="fill: steelblue; fill-opacity: 0.7;"></path><path d="M190,125h1v5h-1Z" style="fill: steelblue; fill-opacity: 0.7;"></path><path d="M330,125h1v5h-1Z" style="fill: steelblue; fill-opacity: 0.7;"></path><path d="M250,125h1v5h-1Z" style="fill: steelblue; fill-opacity: 0.7;"></path><path d="M230,125h1v5h-1Z" style="fill: steelblue; fill-opacity: 0.7;"></path><path d="M230,125h1v5h-1Z" style="fill: steelblue; fill-opacity: 0.7;"></path><path d="M240,125h1v5h-1Z" style="fill: steelblue; fill-opacity: 0.7;"></path><path d="M240,125h1v5h-1Z" style="fill: steelblue; fill-opacity: 0.7;"></path><path d="M170,125h1v5h-1Z" style="fill: steelblue; fill-opacity: 0.7;"></path><path d="M170,125h1v5h-1Z" style="fill: steelblue; fill-opacity: 0.7;"></path><path d="M230,125h1v5h-1Z" style="fill: steelblue; fill-opacity: 0.7;"></path><path d="M190,125h1v5h-1Z" style="fill: steelblue; fill-opacity: 0.7;"></path><path d="M180,125h1v5h-1Z" style="fill: steelblue; fill-opacity: 0.7;"></path><path d="M260,125h1v5h-1Z" style="fill: steelblue; fill-opacity: 0.7;"></path><path d="M190,125h1v5h-1Z" style="fill: steelblue; fill-opacity: 0.7;"></path></g><g class="mark-group role-axis"><g transform="translate(0.5,100.5)"><path class="background" d="M0,0h0v0h0Z" style="pointer-events: none; fill: none;"></path><g><g class="mark-rule role-axis-tick" style="pointer-events: none;"><line transform="translate(0,0)" x2="0" y2="5" style="fill: none; stroke: #888; stroke-width: 1; opacity: 1;"></line><line transform="translate(50,0)" x2="0" y2="5" style="fill: none; stroke: #888; stroke-width: 1; opacity: 1;"></line><line transform="translate(100,0)" x2="0" y2="5" style="fill: none; stroke: #888; stroke-width: 1; opacity: 1;"></line><line transform="translate(150,0)" x2="0" y2="5" style="fill: none; stroke: #888; stroke-width: 1; opacity: 1;"></line><line transform="translate(200,0)" x2="0" y2="5" style="fill: none; stroke: #888; stroke-width: 1; opacity: 1;"></line><line transform="translate(250,0)" x2="0" y2="5" style="fill: none; stroke: #888; stroke-width: 1; opacity: 1;"></line><line transform="translate(300,0)" x2="0" y2="5" style="fill: none; stroke: #888; stroke-width: 1; opacity: 1;"></line><line transform="translate(350,0)" x2="0" y2="5" style="fill: none; stroke: #888; stroke-width: 1; opacity: 1;"></line><line transform="translate(400,0)" x2="0" y2="5" style="fill: none; stroke: #888; stroke-width: 1; opacity: 1;"></line><line transform="translate(450,0)" x2="0" y2="5" style="fill: none; stroke: #888; stroke-width: 1; opacity: 1;"></line><line transform="translate(500,0)" x2="0" y2="5" style="fill: none; stroke: #888; stroke-width: 1; opacity: 1;"></line></g><g class="mark-text role-axis-label" style="pointer-events: none;"><text text-anchor="middle" transform="translate(0,15)" style="font: 10px sans-serif; fill: #000; opacity: 1;">0</text><text text-anchor="middle" transform="translate(50,15)" style="font: 10px sans-serif; fill: #000; opacity: 1;">5</text><text text-anchor="middle" transform="translate(100,15)" style="font: 10px sans-serif; fill: #000; opacity: 1;">10</text><text text-anchor="middle" transform="translate(150,15)" style="font: 10px sans-serif; fill: #000; opacity: 1;">15</text><text text-anchor="middle" transform="translate(200,15)" style="font: 10px sans-serif; fill: #000; opacity: 1;">20</text><text text-anchor="middle" transform="translate(250,15)" style="font: 10px sans-serif; fill: #000; opacity: 1;">25</text><text text-anchor="middle" transform="translate(300,15)" style="font: 10px sans-serif; fill: #000; opacity: 1;">30</text><text text-anchor="middle" transform="translate(350,15)" style="font: 10px sans-serif; fill: #000; opacity: 1;">35</text><text text-anchor="middle" transform="translate(400,15)" style="font: 10px sans-serif; fill: #000; opacity: 1;">40</text><text text-anchor="middle" transform="translate(450,15)" style="font: 10px sans-serif; fill: #000; opacity: 1;">45</text><text text-anchor="middle" transform="translate(500,15)" style="font: 10px sans-serif; fill: #000; opacity: 1;">50</text></g><g class="mark-rule role-axis-domain" style="pointer-events: none;"><line transform="translate(0,0)" x2="500" y2="0" style="fill: none; stroke: #888; stroke-width: 1; opacity: 1;"></line></g></g></g></g><g class="mark-group role-legend"><g transform="translate(0,0)"><path class="background" d="M0,0h89v26h-89Z" style="pointer-events: none; fill: none;"></path><g><g class="mark-group role-legend-entry"><g transform="translate(0,0)"><path class="background" d="M0,0h0v0h0Z" style="pointer-events: none; fill: none;"></path><g><g class="mark-symbol role-legend-symbol" style="pointer-events: none;"><path transform="translate(5,5)" d="M5,0A5,5,0,1,1,-5,0A5,5,0,1,1,5,0" style="fill: steelblue; stroke-width: 1.5; opacity: 1;"></path><path transform="translate(5,20)" d="M5,0A5,5,0,1,1,-5,0A5,5,0,1,1,5,0" style="fill: #b44682; stroke-width: 1.5; opacity: 1;"></path></g><g class="mark-text role-legend-label" style="pointer-events: none;"><text text-anchor="start" transform="translate(18,8)" style="font: 10px sans-serif; fill: #000; opacity: 1;">bandwidth = 1</text><text text-anchor="start" transform="translate(18,23)" style="font: 10px sans-serif; fill: #000; opacity: 1;">bandwidth = 3</text></g></g></g></g></g></g></g></g></g></g></g></svg>