<svg class="marks" width="292" height="150" viewBox="0 0 292 150" version="1.1" xmlns="http://www.w3.org/2000/svg" xmlns:xlink="http://www.w3.org/1999/xlink"><rect width="292" height="150" style="fill: #ffffff;"></rect><g transform="translate(86,5)"><g class="mark-group role-frame root"><g transform="translate(0,0)"><path class="background" d="M0.5,0.5h200v105h-200Z" style="fill-opacity: 0; stroke: #ddd;"></path><g><g class="mark-group role-axis"><g transform="translate(0.5,105.5)"><path class="background" d="M0,0h0v0h0Z" style="pointer-events: none; fill: none;"></path><g><g class="mark-rule role-axis-grid" style="pointer-events: none;"><line transform="translate(0,0)" x2="0" y2="-105" style="fill: none; stroke: #ddd; stroke-width: 1; stroke-dasharray: ; opacity: 1;"></line><line transform="translate(40,0)" x2="0" y2="-105" style="fill: none; stroke: #ddd; stroke-width: 1; stroke-dasharray: ; opacity: 1;"></line><line transform="translate(80,0)" x2="0" y2="-105" style="fill: none; stroke: #ddd; stroke-width: 1; stroke-dasharray: ; opacity: 1;"></line><line transform="translate(120,0)" x2="0" y2="-105" style="fill: none; stroke: #ddd; stroke-width: 1; stroke-dasharray: ; opacity: 1;"></line><line transform="translate(160,0)" x2="0" y2="-105" style="fill: none; stroke: #ddd; stroke-width: 1; stroke-dasharray: ; opacity: 1;"></line><line transform="translate(200,0)" x2="0" y2="-105" style="fill: none; stroke: #ddd; stroke-width: 1; stroke-dasharray: ; opacity: 1;"></line></g></g></g></g><g class="mark-rule role-mark layer_0_marks"><line transform="translate(64,10.499999999999998)" x2="32" y2="0" style="fill: none; stroke: black;"></line><line transform="translate(64,52.5)" x2="132" y2="0" style="fill: none; stroke: black;"></line><line transform="translate(52,73.5)" x2="128" y2="0" style="fill: none; stroke: black;"></line><line transform="translate(68,94.5)" x2="56" y2="0" style="fill: none; stroke: black;"></line><line transform="translate(56.00000000000001,31.5)" x2="68" y2="0" style="fill: none; stroke: black;"></line></g><g class="mark-rect role-mark layer_1_marks"><path d="M63.5,7.999999999999998h1v5h-1Z" style="fill: #4c78a8;"></path><path d="M63.5,50h1v5h-1Z" style="fill: #4c78a8;"></path><path d="M51.5,71h1v5h-1Z" style="fill: #4c78a8;"></path><path d="M67.5,92h1v5h-1Z" style="fill: #4c78a8;"></path><path d="M55.50000000000001,29h1v5h-1Z" style="fill: #4c78a8;"></path></g><g class="mark-rect role-mark layer_2_marks"><path d="M95.5,7.999999999999998h1v5h-1Z" style="fill: #4c78a8;"></path><path d="M195.5,50h1v5h-1Z" style="fill: #4c78a8;"></path><path d="M179.5,71h1v5h-1Z" style="fill: #4c78a8;"></path><path d="M123.5,92h1v5h-1Z" style="fill: #4c78a8;"></path><path d="M123.5,29h1v5h-1Z" style="fill: #4c78a8;"></path></g><g class="mark-rect role-mark layer_3_marks"><path d="M72,7.999999999999998h21v5h-21Z" style="fill: #4c78a8;"></path><path d="M76,50h48v5h-48Z" style="fill: #4c78a8;"></path><path d="M76,71h45v5h-45Z" style="fill: #4c78a8;"></path><path d="M88,92h20v5h-20Z" style="fill: #4c78a8;"></path><path d="M68,29h28v5h-28Z" style="fill: #4c78a8;"></path></g><g class="mark-rect role-mark layer_4_marks"><path d="M83.5,7.999999999999998h1v5h-1Z" style="fill: white;"></path><path d="M103.5,50h1v5h-1Z" style="fill: white;"></path><path d="M99.5,71h1v5h-1Z" style="fill: white;"></path><path d="M95.5,92h1v5h-1Z" style="fill: white;"></path><path d="M91.5,29h1v5h-1Z" style="fill: white;"></path></g><g class="mark-group role-axis"><g transform="translate(0.5,105.5)"><path class="background" d="M0,0h0v0h0Z" style="pointer-events: none; fill: none;"></path><g><g class="mark-rule role-axis-tick" style="pointer-events: none;"><line transform="translate(0,0)" x2="0" y2="5" style="fill: none; stroke: #888; stroke-width: 1; opacity: 1;"></line><line transform="translate(40,0)" x2="0" y2="5" style="fill: none; stroke: #888; stroke-width: 1; opacity: 1;"></line><line transform="translate(80,0)" x2="0" y2="5" style="fill: none; stroke: #888; stroke-width: 1; opacity: 1;"></line><line transform="translate(120,0)" x2="0" y2="5" style="fill: none; stroke: #888; stroke-width: 1; opacity: 1;"></line><line transform="translate(160,0)" x2="0" y2="5" style="fill: none; stroke: #888; stroke-width: 1; opacity: 1;"></line><line transform="translate(200,0)" x2="0" y2="5" style="fill: none; stroke: #888; stroke-width: 1; opacity: 1;"></line></g><g class="mark-text role-axis-label" style="pointer-events: none;"><text text-anchor="start" transform="translate(0,15)" style="font: 10px sans-serif; fill: #000; opacity: 1;">0</text><text text-anchor="middle" transform="translate(40,15)" style="font: 10px sans-serif; fill: #000; opacity: 1;">10</text><text text-anchor="middle" transform="translate(80,15)" style="font: 10px sans-serif; fill: #000; opacity: 1;">20</text><text text-anchor="middle" transform="translate(120,15)" style="font: 10px sans-serif; fill: #000; opacity: 1;">30</text><text text-anchor="middle" transform="translate(160,15)" style="font: 10px sans-serif; fill: #000; opacity: 1;">40</text><text text-anchor="end" transform="translate(200,15)" style="font: 10px sans-serif; fill: #000; opacity: 1;">50</text></g><g class="mark-rule role-axis-domain" style="pointer-events: none;"><line transform="translate(0,0)" x2="200" y2="0" style="fill: none; stroke: #888; stroke-width: 1; opacity: 1;"></line></g><g class="mark-text role-axis-title" style="pointer-events: none;"><text text-anchor="middle" transform="translate(100,31)" style="font: bold 11px sans-serif; fill: #000; opacity: 1;">City MPG</text></g></g></g></g><g class="mark-group role-axis"><g transform="translate(0.5,0.5)"><path class="background" d="M0,0h0v0h0Z" style="pointer-events: none; fill: none;"></path><g><g class="mark-rule role-axis-tick" style="pointer-events: none;"><line transform="translate(0,9)" x2="-5" y2="0" style="fill: none; stroke: #888; stroke-width: 1; opacity: 1;"></line><line transform="translate(0,31)" x2="-5" y2="0" style="fill: none; stroke: #888; stroke-width: 1; opacity: 1;"></line><line transform="translate(0,52)" x2="-5" y2="0" style="fill: none; stroke: #888; stroke-width: 1; opacity: 1;"></line><line transform="translate(0,73)" x2="-5" y2="0" style="fill: none; stroke: #888; stroke-width: 1; opacity: 1;"></line><line transform="translate(0,94)" x2="-5" y2="0" style="fill: none; stroke: #888; stroke-width: 1; opacity: 1;"></line></g><g class="mark-text role-axis-label" style="pointer-events: none;"><text text-anchor="end" transform="translate(-7,12.499999999999998)" style="font: 10px sans-serif; fill: #000; opacity: 1;">convertible</text><text text-anchor="end" transform="translate(-7,33.5)" style="font: 10px sans-serif; fill: #000; opacity: 1;">hardtop</text><text text-anchor="end" transform="translate(-7,54.5)" style="font: 10px sans-serif; fill: #000; opacity: 1;">hatchback</text><text text-anchor="end" transform="translate(-7,75.5)" style="font: 10px sans-serif; fill: #000; opacity: 1;">sedan</text><text text-anchor="end" transform="translate(-7,96.5)" style="font: 10px sans-serif; fill: #000; opacity: 1;">wagon</text></g><g class="mark-rule role-axis-domain" style="pointer-events: none;"><line transform="translate(0,0)" x2="0" y2="105" style="fill: none; stroke: #888; stroke-width: 1; opacity: 1;"></line></g><g class="mark-text role-axis-title" style="pointer-events: none;"><text text-anchor="middle" transform="translate(-68,52.5) rotate(-90) translate(0,-2)" style="font: bold 11px sans-serif; fill: #000; opacity: 1;">Body Style</text></g></g></g></g></g></g></g></g></svg>